<svg xmlns="http://www.w3.org/2000/svg" xmlns:xlink="http://www.w3.org/1999/xlink" width="500" zoomAndPan="magnify" viewBox="0 0 375 374.999991" height="500" preserveAspectRatio="xMidYMid meet" version="1.0"><defs><g/><clipPath id="9ec8673aef"><path d="M 28.660156 4 L 346.660156 4 L 346.660156 371 L 28.660156 371 Z M 28.660156 4 " clip-rule="nonzero"/></clipPath><clipPath id="fc9bcfd039"><path d="M 331 146 L 337 146 L 337 152 L 331 152 Z M 331 146 " clip-rule="nonzero"/></clipPath><clipPath id="74c0bd4e20"><path d="M 206.535156 318.75 L 26.296875 173.070312 L 163.019531 3.914062 L 343.257812 149.59375 Z M 206.535156 318.75 " clip-rule="nonzero"/></clipPath><clipPath id="0ea3931111"><path d="M 206.535156 318.75 L 26.296875 173.070312 L 163.019531 3.914062 L 343.257812 149.59375 Z M 206.535156 318.75 " clip-rule="nonzero"/></clipPath><clipPath id="a49434dba3"><path d="M 39 100 L 326 100 L 326 163 L 39 163 Z M 39 100 " clip-rule="nonzero"/></clipPath><clipPath id="4e67fcdd32"><path d="M 206.535156 318.75 L 26.296875 173.070312 L 163.019531 3.914062 L 343.257812 149.59375 Z M 206.535156 318.75 " clip-rule="nonzero"/></clipPath><clipPath id="de7b6d3303"><path d="M 206.535156 318.75 L 26.296875 173.070312 L 163.019531 3.914062 L 343.257812 149.59375 Z M 206.535156 318.75 " clip-rule="nonzero"/></clipPath><clipPath id="a5ce75c121"><path d="M 32 168 L 37 168 L 37 174 L 32 174 Z M 32 168 " clip-rule="nonzero"/></clipPath><clipPath id="caa6302bc4"><path d="M 206.535156 318.75 L 26.296875 173.070312 L 163.019531 3.914062 L 343.257812 149.59375 Z M 206.535156 318.75 " clip-rule="nonzero"/></clipPath><clipPath id="3531d30a33"><path d="M 206.535156 318.75 L 26.296875 173.070312 L 163.019531 3.914062 L 343.257812 149.59375 Z M 206.535156 318.75 " clip-rule="nonzero"/></clipPath><clipPath id="2676816f13"><path d="M 331 145 L 342 145 L 342 156 L 331 156 Z M 331 145 " clip-rule="nonzero"/></clipPath><clipPath id="612d39d6ca"><path d="M 206.535156 318.75 L 26.296875 173.070312 L 163.019531 3.914062 L 343.257812 149.59375 Z M 206.535156 318.75 " clip-rule="nonzero"/></clipPath><clipPath id="e6f85b5226"><path d="M 206.535156 318.75 L 26.296875 173.070312 L 163.019531 3.914062 L 343.257812 149.59375 Z M 206.535156 318.75 " clip-rule="nonzero"/></clipPath><clipPath id="ec48410b86"><path d="M 28 167 L 39 167 L 39 178 L 28 178 Z M 28 167 " clip-rule="nonzero"/></clipPath><clipPath id="9ec79b0229"><path d="M 206.535156 318.75 L 26.296875 173.070312 L 163.019531 3.914062 L 343.257812 149.59375 Z M 206.535156 318.75 " clip-rule="nonzero"/></clipPath><clipPath id="6b6a144ae9"><path d="M 206.535156 318.75 L 26.296875 173.070312 L 163.019531 3.914062 L 343.257812 149.59375 Z M 206.535156 318.75 " clip-rule="nonzero"/></clipPath><clipPath id="6b168b5a7a"><path d="M 82.867188 106.855469 L 244 106.855469 L 244 264.355469 L 82.867188 264.355469 Z M 82.867188 106.855469 " clip-rule="nonzero"/></clipPath><clipPath id="c166d4e2b3"><path d="M 187.5 108.667969 L 305.25 108.667969 L 305.25 241.417969 L 187.5 241.417969 Z M 187.5 108.667969 " clip-rule="nonzero"/></clipPath><clipPath id="8de2451b55"><path d="M 13.566406 132 L 43.566406 132 L 43.566406 241.371094 L 13.566406 241.371094 Z M 13.566406 132 " clip-rule="nonzero"/></clipPath><clipPath id="9d6fde83ae"><path d="M 312.777344 178 L 326 178 L 326 244 L 312.777344 244 Z M 312.777344 178 " clip-rule="nonzero"/></clipPath><clipPath id="8f4879230d"><path d="M 321.066406 125.941406 L 364.527344 125.941406 L 364.527344 245.425781 L 321.066406 245.425781 Z M 321.066406 125.941406 " clip-rule="nonzero"/></clipPath></defs><rect x="-37.5" width="450" fill="#ffffff" y="-37.499999" height="449.999989" fill-opacity="1"/><rect x="-37.5" width="450" fill="#ffffff" y="-37.499999" height="449.999989" fill-opacity="1"/><g clip-path="url(#9ec8673aef)"><path fill="#4a3249" d="M 346.332031 133.714844 L 339.160156 133.714844 L 339.160156 99.941406 L 187.496094 12.3125 L 35.832031 99.941406 L 35.832031 133.714844 L 28.660156 133.714844 L 28.660156 95.78125 L 187.496094 4.066406 L 346.332031 95.78125 Z M 346.332031 279.214844 L 346.332031 241.28125 L 339.160156 241.28125 L 339.160156 275.054688 L 187.496094 362.613281 L 35.832031 275.054688 L 35.832031 241.28125 L 28.660156 241.28125 L 28.660156 279.214844 L 187.496094 370.929688 Z M 346.332031 279.214844 " fill-opacity="1" fill-rule="nonzero"/></g><g clip-path="url(#fc9bcfd039)"><g clip-path="url(#74c0bd4e20)"><g clip-path="url(#0ea3931111)"><path fill="#f9c350" d="M 336.894531 148.839844 L 335.652344 151.402344 C 334.371094 150.78125 333.089844 150.164062 331.804688 149.546875 L 333.039062 146.976562 C 334.324219 147.59375 335.613281 148.21875 336.894531 148.839844 Z M 336.894531 148.839844 " fill-opacity="1" fill-rule="nonzero"/></g></g></g><g clip-path="url(#a49434dba3)"><g clip-path="url(#4e67fcdd32)"><g clip-path="url(#de7b6d3303)"><path fill="#f9c350" d="M 325.460938 143.355469 L 324.242188 145.933594 C 321.636719 144.703125 319.082031 143.507812 316.65625 142.382812 L 317.855469 139.796875 C 320.292969 140.921875 322.851562 142.121094 325.460938 143.355469 Z M 310.214844 136.300781 L 309.042969 138.902344 C 306.460938 137.734375 303.882812 136.589844 301.394531 135.5 L 302.542969 132.886719 C 305.039062 133.984375 307.625 135.128906 310.222656 136.300781 Z M 294.816406 129.566406 L 293.707031 132.195312 C 291.113281 131.097656 288.511719 130.019531 285.976562 128.992188 L 287.046875 126.347656 C 289.597656 127.382812 292.210938 128.46875 294.8125 129.570312 Z M 279.230469 123.238281 L 278.203125 125.898438 C 275.582031 124.882812 272.945312 123.886719 270.375 122.941406 L 271.359375 120.265625 C 273.941406 121.214844 276.589844 122.21875 279.230469 123.238281 Z M 263.4375 117.4375 L 262.507812 120.132812 C 259.855469 119.214844 257.1875 118.320312 254.578125 117.476562 L 255.457031 114.765625 C 258.082031 115.613281 260.765625 116.511719 263.4375 117.4375 Z M 247.417969 112.261719 L 246.601562 114.996094 C 243.914062 114.195312 241.210938 113.421875 238.570312 112.703125 L 239.320312 109.953125 C 241.980469 110.679688 244.703125 111.460938 247.421875 112.265625 Z M 231.160156 107.839844 L 230.484375 110.613281 C 227.765625 109.949219 225.027344 109.320312 222.347656 108.746094 L 222.949219 105.953125 C 225.652344 106.535156 228.410156 107.167969 231.160156 107.839844 Z M 214.683594 104.304688 L 214.167969 107.109375 C 211.425781 106.605469 208.664062 106.136719 205.941406 105.722656 L 206.367188 102.902344 C 209.117188 103.320312 211.914062 103.789062 214.679688 104.300781 Z M 198.015625 101.773438 L 197.679688 104.605469 C 194.902344 104.277344 192.109375 103.992188 189.390625 103.769531 L 189.625 100.929688 C 192.382812 101.15625 195.207031 101.441406 198.019531 101.777344 Z M 181.207031 100.371094 L 181.074219 103.222656 C 179.632812 103.152344 178.175781 103.097656 176.75 103.058594 C 175.425781 103.023438 174.082031 103 172.757812 102.992188 L 172.773438 100.140625 C 174.121094 100.144531 175.484375 100.171875 176.828125 100.207031 C 178.277344 100.246094 179.753906 100.300781 181.207031 100.371094 Z M 164.324219 100.269531 L 164.433594 103.121094 C 161.683594 103.226562 158.886719 103.394531 156.128906 103.621094 L 155.894531 100.78125 C 158.695312 100.550781 161.535156 100.378906 164.328125 100.273438 Z M 147.488281 101.652344 L 147.84375 104.484375 C 145.101562 104.832031 142.328125 105.242188 139.613281 105.707031 L 139.128906 102.894531 C 141.886719 102.421875 144.695312 102.003906 147.488281 101.652344 Z M 130.835938 104.507812 L 131.445312 107.296875 C 128.738281 107.882812 126.015625 108.542969 123.351562 109.253906 L 122.621094 106.496094 C 125.324219 105.777344 128.089844 105.109375 130.835938 104.515625 Z M 114.5 108.851562 L 115.359375 111.570312 C 112.714844 112.410156 110.070312 113.316406 107.488281 114.269531 L 106.503906 111.59375 C 109.125 110.625 111.816406 109.703125 114.5 108.851562 Z M 98.644531 114.722656 L 99.761719 117.347656 C 97.207031 118.433594 94.664062 119.601562 92.199219 120.804688 L 90.945312 118.238281 C 93.453125 117.015625 96.042969 115.832031 98.640625 114.71875 Z M 83.445312 122.160156 L 84.835938 124.652344 C 82.40625 126.007812 80.003906 127.433594 77.691406 128.890625 L 76.167969 126.480469 C 78.523438 124.988281 80.976562 123.535156 83.449219 122.15625 Z M 69.140625 131.214844 L 70.804688 133.53125 C 68.550781 135.152344 66.328125 136.847656 64.210938 138.570312 L 62.410156 136.355469 C 64.574219 134.59375 66.839844 132.863281 69.140625 131.210938 Z M 56.003906 141.90625 L 57.941406 144.003906 C 55.910156 145.882812 53.921875 147.839844 52.039062 149.828125 L 49.96875 147.867188 C 51.894531 145.835938 53.921875 143.832031 56 141.910156 Z M 44.351562 154.214844 L 46.550781 156.03125 C 46.285156 156.359375 46.015625 156.683594 45.753906 157.007812 C 44.285156 158.828125 42.855469 160.710938 41.503906 162.601562 L 39.179688 160.945312 C 40.5625 159.007812 42.027344 157.082031 43.53125 155.21875 C 43.800781 154.886719 44.074219 154.550781 44.347656 154.21875 Z M 44.351562 154.214844 " fill-opacity="1" fill-rule="nonzero"/></g></g></g><g clip-path="url(#a5ce75c121)"><g clip-path="url(#caa6302bc4)"><g clip-path="url(#3531d30a33)"><path fill="#f9c350" d="M 36.933594 169.515625 C 36.199219 170.71875 35.480469 171.941406 34.800781 173.164062 L 32.308594 171.765625 C 33.011719 170.519531 33.746094 169.261719 34.5 168.027344 Z M 36.933594 169.515625 " fill-opacity="1" fill-rule="nonzero"/></g></g></g><g clip-path="url(#2676816f13)"><g clip-path="url(#612d39d6ca)"><g clip-path="url(#e6f85b5226)"><path fill="#f9c350" d="M 332.371094 146.96875 C 332.578125 146.710938 332.808594 146.476562 333.0625 146.269531 C 333.316406 146.058594 333.585938 145.871094 333.875 145.714844 C 334.164062 145.558594 334.46875 145.429688 334.78125 145.332031 C 335.097656 145.234375 335.417969 145.167969 335.746094 145.132812 C 336.070312 145.097656 336.398438 145.097656 336.726562 145.125 C 337.054688 145.15625 337.378906 145.21875 337.695312 145.3125 C 338.007812 145.402344 338.3125 145.527344 338.605469 145.679688 C 338.894531 145.832031 339.171875 146.011719 339.425781 146.21875 C 339.683594 146.425781 339.914062 146.65625 340.125 146.910156 C 340.335938 147.164062 340.523438 147.433594 340.679688 147.722656 C 340.835938 148.011719 340.964844 148.316406 341.0625 148.628906 C 341.160156 148.945312 341.226562 149.265625 341.261719 149.59375 C 341.296875 149.917969 341.296875 150.246094 341.269531 150.574219 C 341.238281 150.902344 341.175781 151.226562 341.082031 151.539062 C 340.992188 151.855469 340.867188 152.160156 340.714844 152.453125 C 340.5625 152.742188 340.382812 153.015625 340.175781 153.273438 C 339.96875 153.53125 339.738281 153.761719 339.484375 153.972656 C 339.230469 154.183594 338.960938 154.367188 338.671875 154.527344 C 338.382812 154.683594 338.078125 154.8125 337.765625 154.910156 C 337.449219 155.007812 337.128906 155.074219 336.800781 155.109375 C 336.476562 155.144531 336.148438 155.144531 335.820312 155.117188 C 335.492188 155.085938 335.167969 155.023438 334.851562 154.929688 C 334.539062 154.839844 334.234375 154.714844 333.941406 154.5625 C 333.652344 154.410156 333.375 154.230469 333.121094 154.023438 C 332.863281 153.816406 332.632812 153.585938 332.421875 153.332031 C 332.210938 153.078125 332.023438 152.808594 331.867188 152.519531 C 331.710938 152.230469 331.582031 151.925781 331.484375 151.613281 C 331.386719 151.296875 331.320312 150.976562 331.285156 150.648438 C 331.25 150.320312 331.25 149.996094 331.277344 149.667969 C 331.308594 149.339844 331.371094 149.015625 331.464844 148.699219 C 331.554688 148.386719 331.679688 148.082031 331.832031 147.789062 C 331.984375 147.5 332.164062 147.222656 332.371094 146.96875 Z M 332.371094 146.96875 " fill-opacity="1" fill-rule="nonzero"/></g></g></g><g clip-path="url(#ec48410b86)"><g clip-path="url(#9ec79b0229)"><g clip-path="url(#6b6a144ae9)"><path fill="#f9c350" d="M 29.65625 169.308594 C 29.863281 169.054688 30.09375 168.820312 30.34375 168.609375 C 30.597656 168.398438 30.871094 168.214844 31.160156 168.058594 C 31.449219 167.898438 31.75 167.773438 32.0625 167.675781 C 32.378906 167.578125 32.699219 167.511719 33.027344 167.476562 C 33.355469 167.441406 33.683594 167.4375 34.011719 167.46875 C 34.339844 167.496094 34.660156 167.558594 34.976562 167.652344 C 35.292969 167.746094 35.597656 167.871094 35.886719 168.023438 C 36.179688 168.175781 36.453125 168.355469 36.707031 168.5625 C 36.964844 168.769531 37.199219 169 37.410156 169.253906 C 37.621094 169.503906 37.804688 169.777344 37.960938 170.066406 C 38.117188 170.355469 38.246094 170.65625 38.34375 170.972656 C 38.441406 171.285156 38.507812 171.605469 38.542969 171.933594 C 38.578125 172.261719 38.582031 172.589844 38.550781 172.917969 C 38.519531 173.246094 38.460938 173.566406 38.367188 173.882812 C 38.273438 174.199219 38.148438 174.503906 37.996094 174.792969 C 37.84375 175.085938 37.664062 175.359375 37.457031 175.617188 C 37.25 175.871094 37.019531 176.105469 36.765625 176.316406 C 36.515625 176.527344 36.242188 176.710938 35.953125 176.867188 C 35.664062 177.027344 35.363281 177.152344 35.046875 177.25 C 34.734375 177.347656 34.414062 177.414062 34.085938 177.449219 C 33.757812 177.484375 33.429688 177.488281 33.101562 177.457031 C 32.773438 177.429688 32.453125 177.367188 32.136719 177.273438 C 31.820312 177.179688 31.515625 177.058594 31.226562 176.902344 C 30.933594 176.75 30.660156 176.570312 30.402344 176.363281 C 30.148438 176.15625 29.914062 175.925781 29.703125 175.671875 C 29.492188 175.421875 29.308594 175.148438 29.152344 174.859375 C 28.992188 174.570312 28.867188 174.269531 28.769531 173.953125 C 28.667969 173.640625 28.601562 173.320312 28.570312 172.992188 C 28.535156 172.664062 28.53125 172.335938 28.5625 172.007812 C 28.589844 171.679688 28.652344 171.359375 28.746094 171.042969 C 28.839844 170.726562 28.960938 170.421875 29.117188 170.132812 C 29.269531 169.839844 29.449219 169.566406 29.65625 169.308594 Z M 29.65625 169.308594 " fill-opacity="1" fill-rule="nonzero"/></g></g></g><path fill="#4a3249" d="M 215.550781 150.035156 C 215.359375 149.691406 215.140625 149.339844 215.101562 149.25 C 214.5 147.898438 214.089844 146.441406 213.882812 144.976562 C 213.304688 140.972656 214.039062 137.238281 215.570312 133.527344 C 216.03125 132.410156 216.535156 131.3125 217.019531 130.203125 C 217.078125 130.070312 217.328125 129.253906 217.519531 129.246094 C 217.65625 129.238281 217.753906 130.429688 217.765625 130.523438 C 217.957031 132.011719 218.191406 133.507812 218.488281 134.976562 C 219.316406 139.074219 220.039062 143.304688 219.179688 147.460938 C 218.886719 148.875 218.3125 150.777344 216.945312 151.589844 C 216.109375 159.125 212.800781 165.933594 210.523438 173.109375 C 210.847656 172.476562 211.191406 171.855469 211.554688 171.246094 C 214.746094 165.855469 219.21875 161.808594 224.796875 159.023438 C 226.003906 158.417969 227.222656 157.851562 228.460938 157.3125 C 228.601562 157.253906 229.476562 156.757812 229.605469 156.90625 C 229.796875 157.125 229.089844 158.378906 228.996094 158.59375 C 228.203125 160.402344 227.351562 162.1875 226.550781 163.992188 C 223.992188 169.796875 219.394531 174.203125 214.074219 177.492188 C 212.742188 178.316406 210.550781 179.894531 208.789062 180.007812 C 207.621094 186.675781 207.957031 193.355469 209.386719 199.941406 C 209.421875 199.035156 209.476562 198.128906 209.546875 197.226562 C 209.84375 193.421875 210.40625 188.425781 212.800781 185.140625 C 212.609375 184.949219 212.445312 184.71875 212.324219 184.457031 C 211.789062 183.289062 212.304688 181.90625 213.472656 181.371094 C 214.640625 180.835938 216.023438 181.351562 216.558594 182.519531 C 217.09375 183.6875 216.582031 185.070312 215.414062 185.605469 C 215.023438 185.785156 214.609375 185.847656 214.210938 185.808594 C 211.8125 188.847656 211.359375 193.699219 211.070312 197.34375 C 211.03125 197.835938 211 198.324219 210.96875 198.816406 C 211.933594 194.085938 213.753906 189.402344 216.777344 185.621094 C 217.1875 185.105469 219.429688 181.941406 220.359375 182.21875 C 220.597656 182.289062 220.300781 183.558594 220.28125 183.734375 C 220.089844 185.40625 220.074219 187.105469 220.082031 188.785156 C 220.113281 194.589844 218.726562 199.519531 215.234375 204.289062 C 214.226562 205.664062 212.617188 206.574219 211.597656 207.886719 C 212.628906 211.082031 213.730469 214.246094 214.773438 217.429688 C 214.914062 216.96875 215.058594 216.507812 215.203125 216.050781 C 216.082031 213.300781 217.285156 210.714844 218.992188 208.386719 C 219.035156 208.328125 219.082031 208.28125 219.132812 208.238281 C 219.09375 208.171875 219.058594 208.105469 219.027344 208.035156 C 218.492188 206.863281 219.003906 205.480469 220.175781 204.945312 C 221.34375 204.410156 222.726562 204.925781 223.261719 206.09375 C 223.796875 207.261719 223.28125 208.644531 222.113281 209.179688 C 221.507812 209.457031 220.84375 209.453125 220.273438 209.222656 C 220.257812 209.246094 220.242188 209.269531 220.226562 209.289062 C 218.617188 211.484375 217.488281 213.925781 216.660156 216.515625 C 216.371094 217.421875 216.09375 218.328125 215.835938 219.238281 C 215.796875 219.375 215.824219 219.585938 215.828125 219.777344 C 215.828125 220.042969 215.808594 220.289062 215.757812 220.464844 L 215.75 220.488281 C 216.699219 223.546875 217.550781 226.636719 218.183594 229.796875 C 218.582031 231.773438 217.078125 232.042969 216.683594 230.097656 C 216.125 227.308594 215.394531 224.578125 214.578125 221.871094 C 214.148438 221.527344 213.671875 221.179688 213.628906 221.152344 C 211.617188 219.746094 209.261719 218.691406 206.972656 217.824219 C 201.59375 215.789062 197.78125 212.78125 195.871094 207.203125 C 195.578125 206.351562 194.285156 203.21875 194.882812 202.292969 C 194.925781 202.230469 196.042969 203.109375 196.121094 203.164062 C 197.550781 204.164062 198.960938 205.179688 200.347656 206.234375 C 203.527344 208.640625 206.554688 211.164062 209.582031 213.757812 C 210.796875 214.796875 211.96875 215.730469 212.96875 216.824219 C 211.734375 213.109375 210.4375 209.410156 209.296875 205.65625 C 208.054688 201.5625 207.1875 197.417969 206.792969 193.253906 C 206.347656 193.160156 205.570312 193.109375 205.28125 193.015625 C 203.90625 192.578125 202.597656 191.96875 201.347656 191.25 C 196.050781 188.195312 192.308594 182.9375 190.363281 177.210938 C 189.734375 175.34375 189.179688 173.433594 188.832031 171.492188 C 188.785156 171.226562 188.449219 169.957031 188.832031 169.765625 C 189.019531 169.667969 189.828125 170.957031 189.929688 171.085938 C 191.0625 172.5 192.433594 173.667969 193.730469 174.921875 C 197.800781 178.867188 201.9375 183.046875 205.042969 187.859375 C 204.796875 186.859375 204.546875 185.867188 204.269531 184.875 C 203.011719 180.371094 201.597656 176.070312 198.816406 172.269531 C 198.808594 172.257812 198.800781 172.246094 198.792969 172.234375 C 197.6875 172.578125 196.476562 172.058594 195.980469 170.980469 C 195.445312 169.8125 195.960938 168.429688 197.128906 167.894531 C 198.300781 167.359375 199.679688 167.871094 200.21875 169.042969 C 200.570312 169.8125 200.464844 170.675781 200.019531 171.328125 C 200.03125 171.339844 200.042969 171.351562 200.050781 171.367188 C 202.945312 175.316406 204.433594 179.78125 205.742188 184.464844 C 206.035156 185.507812 206.296875 186.5625 206.558594 187.613281 C 206.601562 183.945312 207.042969 180.265625 207.945312 176.59375 C 208.652344 173.71875 209.617188 170.929688 210.625 168.164062 C 210.601562 167.964844 210.589844 167.488281 210.527344 167.292969 C 210.316406 166.65625 210.070312 166.027344 209.78125 165.421875 C 208.957031 163.699219 207.882812 162.101562 206.808594 160.527344 C 203.289062 155.367188 200.773438 150.671875 200.28125 144.285156 C 200.171875 142.84375 200.125 141.382812 200.269531 139.941406 C 200.289062 139.769531 200.304688 138.652344 200.515625 138.554688 C 200.605469 138.515625 201.492188 140.035156 201.558594 140.132812 C 202.695312 141.804688 203.945312 143.410156 205.164062 145.023438 C 207.980469 148.742188 209.167969 152.902344 210.34375 157.347656 C 210.675781 158.605469 211 159.769531 211.269531 160.898438 C 211.359375 159.722656 211.414062 158.542969 211.410156 157.359375 C 211.386719 152.457031 210.855469 147.601562 209.339844 142.933594 C 208.453125 142.9375 207.605469 142.433594 207.214844 141.574219 C 206.679688 140.40625 207.195312 139.023438 208.363281 138.488281 C 209.53125 137.953125 210.914062 138.46875 211.449219 139.636719 C 211.902344 140.628906 211.601562 141.777344 210.78125 142.429688 C 212.359375 147.257812 212.914062 152.28125 212.9375 157.351562 C 212.949219 159.09375 212.828125 160.828125 212.660156 162.558594 C 214.074219 158.507812 215.261719 154.40625 215.550781 150.035156 Z M 215.550781 150.035156 " fill-opacity="1" fill-rule="evenodd"/><g clip-path="url(#6b168b5a7a)"><path fill="#4a3249" d="M 219.992188 225.175781 L 210.152344 225.175781 C 208.957031 230.828125 207.105469 235.273438 204.605469 238.5 C 200.410156 243.769531 195.292969 247.730469 189.238281 250.367188 C 183.03125 253.011719 176.046875 254.328125 168.285156 254.328125 C 154.46875 254.328125 143.683594 249.90625 135.921875 241.054688 C 133.28125 237.949219 131.265625 233.683594 129.867188 228.25 C 128.46875 222.816406 127.773438 217.851562 127.773438 213.351562 L 127.773438 129.769531 C 127.773438 124.644531 128.316406 120.921875 129.398438 118.59375 C 130.644531 116.109375 132.117188 114.554688 133.820312 113.9375 L 135.6875 113.238281 C 136.925781 112.773438 137.78125 112.460938 138.25 112.304688 C 138.867188 112.152344 140.191406 112.074219 142.203125 112.074219 L 148.726562 111.375 L 148.726562 106.949219 L 82.835938 106.949219 L 82.835938 111.609375 L 92.148438 113.003906 C 94.789062 113.160156 96.957031 113.78125 98.671875 114.867188 C 100.222656 115.953125 101.460938 117.894531 102.390625 120.6875 C 103.328125 123.480469 103.789062 127.441406 103.789062 132.5625 L 103.789062 210.789062 C 103.789062 217.773438 104.800781 224.296875 106.820312 230.351562 C 108.988281 237.019531 112.171875 242.769531 116.359375 247.578125 C 126.449219 258.75 141.664062 264.335938 161.996094 264.335938 C 182.949219 264.335938 198.234375 259.292969 207.863281 249.203125 C 212.207031 244.394531 215.699219 238.417969 218.339844 231.28125 C 218.980469 229.285156 219.523438 227.253906 219.992188 225.175781 Z M 211.15625 128.035156 L 222.328125 128.035156 C 222.632812 125.71875 223.09375 123.65625 223.691406 121.851562 C 224.9375 118.4375 226.410156 116.1875 228.113281 115.101562 C 230.445312 113.703125 232.851562 112.695312 235.335938 112.074219 L 243.71875 111.140625 L 243.71875 106.949219 L 189.699219 106.949219 L 189.699219 111.609375 C 195.601562 111.609375 200.257812 112.460938 203.667969 114.167969 C 206.933594 115.875 209.101562 118.824219 210.191406 123.015625 C 210.582031 124.410156 210.902344 126.082031 211.15625 128.035156 Z M 211.15625 128.035156 " fill-opacity="1" fill-rule="nonzero"/></g><path fill="#916a58" d="M 216.65625 153.535156 C 216.496094 153.242188 216.3125 152.941406 216.277344 152.867188 C 215.765625 151.722656 215.421875 150.488281 215.242188 149.246094 C 214.753906 145.847656 215.378906 142.679688 216.675781 139.53125 C 217.066406 138.582031 217.492188 137.652344 217.90625 136.710938 C 217.953125 136.597656 218.167969 135.90625 218.328125 135.898438 C 218.445312 135.890625 218.527344 136.902344 218.539062 136.980469 C 218.699219 138.246094 218.898438 139.511719 219.152344 140.761719 C 219.855469 144.234375 220.464844 147.824219 219.738281 151.351562 C 219.488281 152.550781 219 154.164062 217.839844 154.851562 C 217.128906 161.246094 214.324219 167.023438 212.394531 173.109375 C 212.667969 172.574219 212.960938 172.046875 213.265625 171.527344 C 215.976562 166.957031 219.769531 163.523438 224.503906 161.160156 C 225.527344 160.648438 226.558594 160.164062 227.609375 159.710938 C 227.730469 159.65625 228.472656 159.238281 228.582031 159.363281 C 228.742188 159.546875 228.144531 160.613281 228.066406 160.792969 C 227.394531 162.328125 226.667969 163.84375 225.992188 165.375 C 223.820312 170.300781 219.917969 174.035156 215.40625 176.824219 C 214.273438 177.523438 212.414062 178.867188 210.921875 178.960938 C 209.933594 184.617188 210.21875 190.28125 211.429688 195.871094 C 211.457031 195.101562 211.503906 194.332031 211.566406 193.566406 C 211.816406 190.339844 212.296875 186.101562 214.324219 183.316406 C 214.160156 183.152344 214.023438 182.957031 213.921875 182.738281 C 213.46875 181.746094 213.90625 180.570312 214.894531 180.117188 C 215.886719 179.664062 217.0625 180.101562 217.515625 181.09375 C 217.96875 182.082031 217.53125 183.257812 216.542969 183.710938 C 216.210938 183.863281 215.859375 183.914062 215.523438 183.882812 C 213.484375 186.460938 213.101562 190.578125 212.859375 193.667969 C 212.824219 194.085938 212.796875 194.5 212.773438 194.917969 C 213.589844 190.90625 215.132812 186.933594 217.699219 183.722656 C 218.046875 183.285156 219.949219 180.601562 220.734375 180.835938 C 220.941406 180.898438 220.6875 181.972656 220.671875 182.121094 C 220.507812 183.539062 220.496094 184.980469 220.503906 186.40625 C 220.53125 191.332031 219.355469 195.515625 216.390625 199.558594 C 215.535156 200.726562 214.167969 201.5 213.304688 202.613281 C 214.179688 205.320312 215.113281 208.007812 216 210.707031 C 216.117188 210.316406 216.238281 209.925781 216.363281 209.539062 C 217.109375 207.207031 218.128906 205.011719 219.578125 203.035156 C 219.613281 202.988281 219.652344 202.945312 219.699219 202.910156 C 219.664062 202.855469 219.636719 202.796875 219.605469 202.734375 C 219.152344 201.746094 219.589844 200.570312 220.582031 200.117188 C 221.570312 199.664062 222.746094 200.101562 223.199219 201.089844 C 223.652344 202.082031 223.21875 203.253906 222.226562 203.710938 C 221.710938 203.945312 221.148438 203.941406 220.664062 203.746094 C 220.652344 203.765625 220.640625 203.785156 220.625 203.800781 C 219.257812 205.664062 218.300781 207.734375 217.597656 209.933594 C 217.355469 210.699219 217.121094 211.46875 216.898438 212.242188 C 216.867188 212.359375 216.890625 212.535156 216.894531 212.699219 C 216.894531 212.925781 216.878906 213.132812 216.835938 213.28125 L 216.828125 213.300781 C 217.632812 215.898438 218.355469 218.515625 218.890625 221.199219 C 219.230469 222.875 219.457031 224.578125 219.683594 226.277344 C 219.722656 226.582031 219.898438 227.191406 219.90625 227.671875 C 219.910156 228.023438 219.832031 228.324219 219.6875 228.535156 C 219.488281 228.832031 219.082031 228.910156 218.785156 228.707031 C 218.5 228.511719 218.417969 228.128906 218.597656 227.835938 C 218.597656 227.792969 218.601562 227.53125 218.578125 227.371094 C 218.519531 227.015625 218.425781 226.65625 218.398438 226.449219 C 218.171875 224.777344 217.953125 223.105469 217.621094 221.453125 C 217.144531 219.089844 216.527344 216.769531 215.832031 214.476562 C 215.46875 214.183594 215.0625 213.890625 215.027344 213.863281 C 213.320312 212.671875 211.324219 211.777344 209.382812 211.042969 C 204.820312 209.316406 201.585938 206.765625 199.960938 202.03125 C 199.714844 201.308594 198.617188 198.652344 199.125 197.867188 C 199.160156 197.8125 200.109375 198.558594 200.175781 198.605469 C 201.390625 199.453125 202.582031 200.316406 203.761719 201.207031 C 206.457031 203.253906 209.027344 205.394531 211.59375 207.589844 C 212.625 208.476562 213.617188 209.265625 214.46875 210.191406 C 213.421875 207.039062 212.320312 203.90625 211.351562 200.71875 C 210.296875 197.246094 209.5625 193.730469 209.230469 190.199219 C 208.851562 190.121094 208.191406 190.074219 207.945312 189.996094 C 206.78125 189.625 205.667969 189.105469 204.609375 188.496094 C 200.117188 185.90625 196.941406 181.445312 195.292969 176.589844 C 194.757812 175.003906 194.289062 173.382812 193.992188 171.738281 C 193.949219 171.511719 193.667969 170.433594 193.992188 170.273438 C 194.148438 170.191406 194.835938 171.285156 194.925781 171.394531 C 195.882812 172.59375 197.046875 173.582031 198.144531 174.648438 C 201.601562 177.992188 205.109375 181.539062 207.746094 185.621094 C 207.535156 184.773438 207.320312 183.929688 207.085938 183.089844 C 206.023438 179.269531 204.824219 175.621094 202.460938 172.398438 C 202.457031 172.386719 202.449219 172.378906 202.441406 172.367188 C 201.507812 172.660156 200.476562 172.21875 200.058594 171.304688 C 199.601562 170.3125 200.039062 169.136719 201.03125 168.683594 C 202.023438 168.230469 203.195312 168.667969 203.648438 169.660156 C 203.949219 170.3125 203.863281 171.042969 203.484375 171.597656 C 203.492188 171.609375 203.5 171.617188 203.507812 171.628906 C 205.964844 174.980469 207.230469 178.769531 208.335938 182.742188 C 208.585938 183.628906 208.808594 184.519531 209.03125 185.414062 C 209.066406 182.300781 209.441406 179.179688 210.207031 176.066406 C 210.804688 173.628906 211.625 171.261719 212.480469 168.914062 C 212.460938 168.746094 212.453125 168.339844 212.398438 168.175781 C 212.21875 167.636719 212.007812 167.101562 211.761719 166.585938 C 211.0625 165.125 210.152344 163.773438 209.242188 162.4375 C 206.257812 158.058594 204.125 154.074219 203.707031 148.65625 C 203.609375 147.433594 203.574219 146.195312 203.695312 144.972656 C 203.710938 144.824219 203.726562 143.878906 203.902344 143.796875 C 203.980469 143.761719 204.730469 145.050781 204.789062 145.136719 C 205.753906 146.554688 206.8125 147.914062 207.847656 149.28125 C 210.238281 152.4375 211.242188 155.96875 212.242188 159.738281 C 212.523438 160.804688 212.796875 161.792969 213.027344 162.75 C 213.105469 161.753906 213.148438 160.75 213.144531 159.75 C 213.125 155.589844 212.675781 151.46875 211.390625 147.511719 C 210.636719 147.511719 209.917969 147.085938 209.585938 146.359375 C 209.132812 145.367188 209.570312 144.195312 210.558594 143.738281 C 211.550781 143.285156 212.726562 143.722656 213.179688 144.714844 C 213.566406 145.554688 213.308594 146.53125 212.613281 147.082031 C 213.949219 151.175781 214.421875 155.4375 214.441406 159.742188 C 214.449219 161.21875 214.351562 162.691406 214.207031 164.15625 C 215.40625 160.722656 216.414062 157.242188 216.65625 153.535156 Z M 216.65625 153.535156 " fill-opacity="1" fill-rule="evenodd"/><g clip-path="url(#c166d4e2b3)"><path fill="#916a58" d="M 225.4375 215.578125 L 205.15625 215.578125 L 205.15625 222.101562 C 205.15625 228.792969 203.683594 233.011719 200.738281 234.75 C 199.265625 235.6875 197.390625 236.355469 195.117188 236.757812 C 193.109375 237.292969 190.5625 237.5625 187.484375 237.5625 L 187.484375 241.578125 L 295.714844 241.578125 L 305.15625 206.640625 L 300.339844 206.640625 C 297.792969 212.929688 294.78125 218.015625 291.300781 221.898438 C 287.816406 225.78125 284.003906 228.527344 279.855469 230.132812 C 278.78125 230.667969 277.175781 231.269531 275.035156 231.941406 L 273.628906 232.339844 C 271.886719 232.875 269.945312 233.144531 267.804688 233.144531 L 252.542969 234.148438 L 236.480469 234.148438 C 234.742188 234.148438 233 233.8125 231.261719 233.144531 C 229.652344 232.609375 228.714844 232.339844 228.449219 232.339844 C 226.441406 231.269531 225.4375 229.464844 225.4375 226.917969 Z M 205.15625 134.644531 L 225.4375 134.644531 L 225.4375 128.527344 C 225.4375 122.371094 226.84375 118.21875 229.652344 116.078125 C 232.597656 113.800781 237.484375 112.664062 244.3125 112.664062 L 244.3125 108.648438 L 187.484375 108.648438 L 187.484375 112.664062 C 192.304688 112.664062 196.121094 113.332031 198.929688 114.671875 C 201.207031 115.742188 202.8125 117.484375 203.75 119.894531 C 204.6875 122.300781 205.15625 125.78125 205.15625 130.335938 Z M 205.15625 134.644531 " fill-opacity="1" fill-rule="nonzero"/></g><g clip-path="url(#8de2451b55)"><path fill="#916a58" d="M 18.480469 145.125 C 17.953125 145.445312 17.941406 145.886719 18.046875 146.378906 C 18.476562 148.425781 19.359375 150.316406 20.109375 152.25 C 21.308594 155.332031 21.867188 158.519531 21.46875 161.832031 C 21.335938 162.910156 21.023438 163.925781 20.488281 164.871094 C 20.347656 165.117188 20.210938 165.375 19.820312 165.546875 C 19.953125 164.574219 20.335938 163.730469 20.285156 162.824219 C 19.953125 163.933594 19.644531 165.050781 19.242188 166.136719 C 19.179688 166.304688 19.128906 166.476562 19.058594 166.636719 C 18.992188 166.796875 18.9375 167.015625 18.71875 166.996094 C 18.433594 166.972656 18.480469 166.71875 18.464844 166.523438 C 18.351562 165.117188 18.585938 163.71875 18.617188 162.144531 C 17.742188 164.378906 16.660156 166.273438 14.796875 167.636719 C 15.964844 164.71875 16.003906 161.765625 15.367188 158.761719 C 14.816406 161.160156 14.894531 163.628906 14.539062 166.117188 C 14.199219 165.964844 14.199219 165.738281 14.160156 165.535156 C 13.625 162.898438 13.566406 160.261719 14.175781 157.628906 C 14.625 155.699219 14.605469 153.796875 14.109375 151.867188 C 13.59375 149.847656 13.582031 147.800781 14.144531 145.773438 C 14.6875 143.808594 15.902344 142.539062 17.96875 142.222656 C 18.5 142.140625 18.65625 141.863281 18.714844 141.382812 C 19.347656 135.851562 23.460938 132.136719 29.007812 132.0625 C 33.375 132.003906 37.359375 133.183594 40.8125 135.902344 C 42.789062 137.457031 43.753906 139.519531 43.449219 142.074219 C 43.367188 142.753906 43.226562 143.4375 42.445312 143.921875 C 42.414062 142.945312 42.566406 142.019531 42 141.199219 C 42.261719 142.898438 41.636719 144.429688 41.183594 146 C 40.90625 146.953125 41.175781 147.808594 41.773438 148.570312 C 41.953125 148.796875 42.136719 149.023438 42.320312 149.246094 C 42.675781 149.660156 42.652344 150.046875 42.144531 150.273438 C 41.5 150.5625 41.351562 151.050781 41.425781 151.683594 C 41.472656 152.085938 41.507812 152.496094 41.070312 152.75 C 40.964844 152.8125 40.941406 152.945312 41.023438 153.046875 C 41.410156 153.523438 41.066406 153.824219 40.753906 154.117188 C 40.425781 154.425781 40.285156 154.804688 40.222656 155.238281 C 40.054688 156.378906 39.488281 156.777344 38.320312 156.699219 C 37.507812 156.640625 36.75 156.367188 35.957031 156.21875 C 34.847656 156.007812 34.273438 156.207031 33.890625 156.960938 C 33.441406 157.847656 33.613281 159.007812 34.285156 159.628906 C 34.722656 160.03125 35.246094 160.289062 35.777344 160.523438 C 36.972656 161.0625 37.695312 161.957031 38.113281 163.203125 C 39.449219 167.183594 40.195312 171.285156 40.890625 175.402344 C 41.285156 177.738281 41.738281 180.058594 41.890625 182.429688 C 42.09375 185.550781 42.101562 188.675781 42.058594 191.800781 C 42.042969 193.019531 41.605469 193.574219 40.472656 193.789062 C 39.933594 193.890625 39.429688 194.171875 38.886719 194.320312 C 38.410156 194.449219 38.253906 194.75 38.234375 195.199219 C 38.078125 199.195312 37.59375 203.164062 37.410156 207.160156 C 37.382812 207.769531 37.132812 208.019531 36.5625 207.992188 C 36.050781 207.964844 35.914062 208.214844 35.925781 208.6875 C 35.953125 209.492188 35.949219 210.296875 35.925781 211.097656 C 35.882812 212.546875 35.652344 213.96875 34.910156 215.222656 C 33.824219 217.050781 33.285156 219.003906 33.058594 221.105469 C 32.738281 224.015625 32.390625 226.910156 32.429688 229.847656 C 32.449219 231.414062 33.140625 232.523438 34.417969 233.339844 C 35.65625 234.128906 37.023438 234.609375 38.417969 235.03125 C 39.144531 235.253906 39.878906 235.453125 40.550781 235.8125 C 41.15625 236.140625 41.632812 236.589844 41.566406 237.332031 C 41.5 238.078125 40.890625 238.328125 40.277344 238.519531 C 39.46875 238.773438 38.621094 238.769531 37.722656 238.800781 C 37.789062 238.9375 37.820312 239.015625 37.867188 239.082031 C 38.410156 239.910156 38.207031 240.578125 37.273438 240.914062 C 36.316406 241.253906 35.3125 241.347656 34.308594 241.394531 C 31.773438 241.515625 29.265625 241.324219 26.8125 240.617188 C 25.8125 240.328125 24.785156 240.277344 23.761719 240.230469 C 21.222656 240.117188 20.898438 238.386719 21.191406 236.695312 C 21.324219 235.921875 21.609375 235.175781 21.996094 234.503906 C 22.75 233.195312 22.695312 231.8125 22.539062 230.402344 C 22.222656 227.652344 21.671875 224.933594 21.496094 222.167969 C 21.386719 220.429688 21.738281 218.796875 22.371094 217.199219 C 22.90625 215.855469 23.558594 214.546875 23.734375 213.082031 C 23.902344 211.683594 23.957031 210.277344 23.960938 208.871094 C 23.960938 208.46875 23.730469 208.347656 23.402344 208.246094 C 21.972656 207.808594 22.023438 207.804688 22.152344 206.335938 C 22.304688 204.578125 22.367188 202.816406 22.46875 201.054688 C 22.484375 200.757812 22.425781 200.5 22.207031 200.257812 C 19.367188 197.058594 19.214844 193.445312 20.613281 189.605469 C 20.757812 189.210938 20.898438 188.789062 21.144531 188.457031 C 22.226562 186.976562 22.148438 185.261719 22.214844 183.574219 C 22.234375 183.109375 21.90625 182.851562 21.625 182.570312 C 19.90625 180.878906 19.285156 178.875 19.855469 176.515625 C 20.113281 175.429688 20.375 174.347656 20.609375 173.253906 C 20.945312 171.660156 21.183594 170.066406 21.03125 168.40625 C 20.828125 166.246094 21.605469 164.328125 22.789062 162.558594 C 23.140625 162.039062 23.503906 161.53125 23.855469 161.015625 C 23.980469 160.832031 24.167969 160.636719 24.183594 160.4375 C 24.285156 159.300781 25.074219 158.757812 25.917969 158.15625 C 27.199219 157.242188 27.246094 154.910156 26.105469 153.800781 C 25.945312 153.644531 25.761719 153.597656 25.554688 153.601562 C 23.582031 153.628906 22.179688 152.605469 21.027344 151.136719 C 19.792969 149.554688 19.054688 147.75 18.707031 145.78125 C 18.667969 145.5625 18.667969 145.335938 18.476562 145.121094 Z M 18.480469 145.125 " fill-opacity="1" fill-rule="nonzero"/></g><g clip-path="url(#9d6fde83ae)"><path fill="#caa870" d="M 322.5 185.054688 L 322.785156 185.054688 L 314.339844 239.132812 L 313.9375 239.132812 L 313.3125 241.890625 L 313.042969 242.121094 L 312.777344 243.488281 C 312.777344 243.488281 312.875 243.601562 312.96875 243.621094 C 313.0625 243.640625 315.707031 243.984375 315.707031 243.984375 C 315.707031 243.984375 315.800781 243.964844 315.839844 243.8125 C 315.878906 243.660156 316.03125 242.441406 316.03125 242.441406 L 315.917969 242.253906 L 316.089844 239.492188 L 315.59375 239.246094 L 324.019531 185.265625 L 324.324219 185.265625 C 324.324219 185.265625 324.609375 183.667969 324.761719 183.34375 C 324.914062 183.019531 325.410156 181.746094 325.371094 180.492188 C 325.332031 179.234375 323.714844 178.167969 323.085938 179.445312 C 322.460938 180.71875 322.554688 181.136719 322.535156 182.011719 C 322.515625 182.886719 322.535156 183.4375 322.535156 183.894531 C 322.535156 184.351562 322.5 185.054688 322.5 185.054688 " fill-opacity="1" fill-rule="nonzero"/></g><g clip-path="url(#8f4879230d)"><path fill="#caa870" d="M 364.820312 162.574219 C 364.667969 161.679688 364.628906 160.402344 363.832031 159.148438 C 363.03125 157.894531 362.386719 157.207031 361.984375 156.828125 C 361.585938 156.449219 361.300781 156.257812 361.339844 156.144531 C 361.378906 156.027344 361.464844 155.945312 361.382812 155.871094 C 361.367188 155.859375 361.34375 155.835938 361.300781 155.796875 C 361.21875 155.722656 361.070312 155.59375 360.796875 155.359375 C 360.382812 155 359.785156 154.359375 359.441406 153.945312 C 359.097656 153.53125 358.285156 152.207031 357.972656 151.808594 C 357.660156 151.40625 356.789062 149.910156 356.332031 149.523438 C 355.875 149.140625 355.761719 148.769531 355.164062 148.039062 C 354.5625 147.3125 354.792969 147.242188 354.476562 146.671875 C 354.164062 146.101562 354.0625 145.984375 353.636719 145.53125 C 353.207031 145.074219 353.035156 145.128906 352.664062 144.628906 C 352.296875 144.132812 351.796875 143.789062 351.394531 143.574219 C 350.996094 143.363281 350.539062 143.21875 349.96875 143.003906 C 349.398438 142.789062 348.8125 142.746094 348.398438 142.632812 C 347.984375 142.519531 347.703125 142.390625 347.703125 142.390625 C 347.703125 142.390625 348.300781 142.234375 348.371094 142.164062 C 348.371094 142.164062 348 142.261719 347.886719 141.949219 C 347.773438 141.636719 347.859375 141.433594 347.789062 141.335938 C 347.714844 141.234375 347.714844 140.9375 347.703125 140.535156 C 347.6875 140.136719 347.871094 139.667969 347.945312 140.078125 C 347.945312 140.078125 347.945312 139.765625 347.800781 139.679688 C 347.660156 139.59375 347.542969 139.265625 347.542969 139.066406 C 347.542969 138.867188 347.5 138.410156 347.542969 138.296875 C 347.585938 138.183594 347.617188 138.351562 347.773438 138.796875 C 347.929688 139.238281 348.242188 139.339844 348.242188 139.339844 C 348.242188 139.339844 347.816406 138.882812 347.816406 138.539062 C 347.816406 138.195312 347.605469 137.710938 347.527344 137.527344 C 347.445312 137.339844 347.273438 137.140625 347.203125 136.84375 C 347.128906 136.542969 347.03125 136.328125 346.972656 135.65625 C 346.917969 134.988281 347.257812 135.929688 347.273438 136.128906 C 347.273438 136.128906 347.230469 135.570312 347.117188 135.316406 C 347.003906 135.058594 346.761719 134.757812 346.730469 134.644531 C 346.703125 134.53125 346.304688 133.277344 346.375 132.503906 C 346.445312 131.734375 346.417969 131.347656 346.203125 130.890625 C 345.988281 130.4375 345.589844 129.835938 345.574219 129.792969 C 345.5625 129.75 346.019531 130.035156 346.117188 130.335938 C 346.117188 130.335938 345.960938 129.78125 345.761719 129.625 C 345.5625 129.464844 345.289062 129.324219 345.132812 128.953125 C 344.976562 128.582031 344.621094 128.097656 344.476562 127.984375 C 344.335938 127.867188 344.121094 127.699219 343.550781 127.511719 C 342.980469 127.324219 342.863281 126.800781 341.625 126.484375 C 340.382812 126.171875 339.769531 125.929688 338.558594 125.941406 C 337.34375 125.957031 336.660156 126.113281 335.988281 126.46875 C 335.320312 126.828125 334.804688 126.957031 334.605469 126.914062 C 334.40625 126.871094 333.648438 127.113281 333.648438 127.113281 C 333.648438 127.113281 334.960938 126.914062 334.460938 127.125 C 333.964844 127.339844 333.519531 127.425781 333.390625 127.570312 C 333.265625 127.710938 332.4375 128.183594 331.964844 128.609375 C 331.496094 129.039062 330.980469 130.179688 330.996094 130.265625 C 330.996094 130.265625 331.539062 129.507812 331.421875 129.808594 C 331.308594 130.109375 331.4375 130.394531 331.082031 130.835938 C 330.722656 131.277344 330.398438 132.105469 330.480469 132.519531 C 330.566406 132.933594 330.582031 133.375 330.554688 133.417969 C 330.523438 133.460938 330.765625 134.058594 331.109375 134.273438 C 331.453125 134.488281 331.496094 134.601562 331.496094 134.601562 C 331.496094 134.601562 331.152344 135.273438 331.183594 135.773438 C 331.210938 136.269531 331.28125 136.457031 331.394531 136.757812 C 331.507812 137.054688 331.539062 137.726562 331.496094 138.011719 C 331.453125 138.296875 331.394531 138.609375 331.453125 139.039062 C 331.507812 139.464844 331.894531 141.105469 331.921875 141.664062 C 331.929688 141.820312 331.929688 141.988281 331.929688 142.144531 C 331.929688 142.355469 331.835938 142.550781 331.824219 142.761719 C 331.808594 142.984375 331.847656 143.1875 331.949219 143.363281 C 332.117188 143.660156 332.21875 143.773438 332.542969 143.878906 C 332.765625 143.953125 333.027344 144.027344 333.074219 144.292969 C 333.140625 144.628906 332.878906 144.828125 332.589844 144.929688 C 332.4375 144.984375 332.3125 144.996094 332.15625 144.992188 C 331.925781 144.984375 331.710938 145.046875 331.488281 145.109375 C 331.074219 145.230469 330.648438 145.414062 330.339844 145.730469 C 329.683594 146.398438 329.3125 147.484375 329.113281 147.96875 C 328.914062 148.453125 328.640625 149.566406 328.527344 150.195312 C 328.414062 150.824219 328.585938 151.863281 328.171875 153.40625 C 327.757812 154.945312 327.242188 157.242188 326.757812 158.027344 C 326.273438 158.8125 326.1875 159.066406 326.058594 159.238281 C 325.929688 159.410156 325.660156 159.496094 325.917969 159.894531 C 326.175781 160.292969 326.417969 160.59375 326.417969 160.59375 C 326.417969 160.59375 325.890625 161.679688 325.546875 162.578125 C 325.203125 163.476562 324.933594 164.246094 324.761719 164.660156 C 324.589844 165.074219 324.21875 167.128906 324.175781 168.625 C 324.132812 170.125 324.277344 172.847656 324.261719 173.832031 C 324.246094 174.816406 324.132812 175.460938 324.003906 176.144531 C 323.878906 176.828125 323.734375 177.441406 323.550781 177.671875 C 323.363281 177.898438 323.019531 178.253906 322.421875 178.625 C 321.824219 178.996094 321.480469 179.113281 321.4375 179.484375 C 321.394531 179.851562 321.4375 179.980469 321.324219 180.265625 C 321.210938 180.550781 320.996094 180.867188 321.152344 181.082031 C 321.308594 181.292969 321.351562 181.335938 321.335938 181.4375 C 321.324219 181.535156 321.496094 181.921875 321.539062 182.394531 C 321.582031 182.863281 321.59375 183.449219 321.78125 183.691406 C 321.964844 183.933594 322.292969 184.132812 322.464844 184.445312 C 322.636719 184.761719 322.835938 184.945312 323.007812 184.71875 C 323.175781 184.488281 323.308594 183.863281 323.191406 183.503906 C 323.078125 183.148438 322.851562 182.847656 322.851562 182.578125 C 322.851562 182.363281 322.78125 182.144531 322.816406 181.929688 C 322.847656 181.738281 322.96875 181.574219 323.03125 181.386719 C 323.085938 181.214844 323.089844 180.984375 323.070312 180.792969 C 323.03125 180.40625 323.082031 180.125 323.292969 179.800781 C 323.597656 179.328125 324.066406 179.117188 324.566406 179.449219 C 325.070312 179.78125 325.136719 180.414062 325.136719 180.964844 C 325.136719 181.4375 325.191406 181.976562 324.917969 182.394531 C 324.703125 182.722656 324.390625 183.390625 324.589844 183.734375 C 324.789062 184.074219 324.863281 184.347656 325.191406 184.160156 C 325.519531 183.976562 325.617188 183.375 325.859375 183.175781 C 326.101562 182.976562 326.429688 182.636719 326.488281 182.136719 C 326.546875 181.636719 326.585938 181.265625 326.859375 180.894531 C 327.128906 180.523438 327.574219 178.953125 327.574219 178.597656 C 327.574219 178.242188 327.515625 178.113281 327.65625 177.5 C 327.800781 176.886719 327.914062 174.917969 327.929688 174.402344 C 327.941406 173.890625 328.355469 172.734375 328.472656 172.234375 C 328.585938 171.734375 328.671875 171.464844 328.8125 171.222656 C 328.957031 170.980469 329.371094 170.296875 329.371094 170.296875 C 329.371094 170.296875 329.570312 170.539062 329.640625 170.953125 C 329.710938 171.363281 330.46875 173.675781 330.753906 174.804688 C 331.039062 175.929688 331.253906 178.96875 331.226562 179.484375 C 331.195312 179.996094 331.265625 181.820312 331.324219 182.394531 C 331.382812 182.964844 331.722656 185.230469 331.582031 185.53125 C 331.4375 185.832031 331.324219 185.832031 331.011719 186.101562 C 330.695312 186.371094 330.195312 187.113281 329.855469 187.273438 C 329.511719 187.429688 329.042969 187.386719 329.085938 187.601562 C 329.128906 187.8125 329.167969 188 329.46875 188.199219 C 329.769531 188.398438 330.039062 188.527344 330.070312 188.785156 C 330.097656 189.039062 330.082031 189.238281 330.4375 189.484375 C 330.796875 189.726562 330.910156 189.695312 330.925781 189.996094 C 330.9375 190.296875 330.96875 190.636719 331.324219 190.792969 C 331.679688 190.953125 332.308594 191.023438 332.308594 191.023438 C 332.308594 191.023438 332.324219 193.703125 332.535156 195.386719 C 332.75 197.074219 333.179688 200.382812 333.179688 201.78125 C 333.179688 203.179688 333.535156 205.832031 333.464844 206.757812 C 333.390625 207.6875 333.519531 209.96875 333.507812 210.484375 C 333.492188 210.996094 333.578125 213.179688 333.023438 214.535156 C 332.464844 215.890625 333.234375 216.203125 333.964844 216.074219 C 334.691406 215.945312 334.707031 215.804688 335.277344 215.917969 C 335.847656 216.03125 336.273438 216.199219 336.675781 216.101562 C 337.074219 216.003906 337.371094 215.789062 337.828125 216.046875 C 338.285156 216.304688 338.515625 216.757812 338.84375 216.773438 C 339.171875 216.789062 339.386719 217.03125 339.386719 217.03125 C 339.386719 217.03125 339.441406 217.816406 339.726562 218.515625 C 340.011719 219.210938 340.269531 219.957031 340.238281 220.152344 C 340.210938 220.355469 339.769531 223.25 339.828125 224.292969 C 339.882812 225.332031 340.210938 229.113281 340.027344 230.125 C 339.839844 231.140625 339.425781 232.523438 339.199219 233.136719 C 338.96875 233.75 338.855469 234.449219 338.769531 234.476562 C 338.683594 234.507812 338.542969 234.621094 338.5 234.777344 C 338.457031 234.933594 338.484375 235.203125 338.34375 235.40625 C 338.199219 235.605469 337.617188 236.875 337.402344 237.316406 C 337.1875 237.757812 336.902344 238.144531 336.789062 238.257812 C 336.675781 238.371094 336.6875 238.472656 336.417969 238.515625 C 336.144531 238.558594 335.601562 238.957031 335.347656 239.15625 C 335.089844 239.355469 334.421875 240.054688 333.578125 240.441406 C 332.734375 240.828125 331.996094 241.425781 331.851562 241.78125 C 331.710938 242.136719 331.722656 242.335938 331.695312 242.550781 C 331.667969 242.765625 331.296875 243.320312 331.59375 243.507812 C 331.894531 243.695312 333.265625 244.050781 334.847656 244.25 C 336.429688 244.449219 337.402344 244.636719 338.386719 244.863281 C 339.371094 245.089844 340.640625 245.277344 341.109375 245.304688 C 341.582031 245.335938 342.863281 245.648438 342.863281 245.132812 C 342.863281 244.621094 342.820312 244.476562 343.023438 244.050781 C 343.222656 243.621094 343.292969 243.550781 343.222656 243.464844 C 343.152344 243.378906 343.09375 243.265625 343.136719 243.195312 C 343.179688 243.121094 343.363281 242.566406 343.378906 242.222656 C 343.394531 241.882812 343.335938 241.738281 343.335938 241.738281 C 343.335938 241.738281 346.386719 241.625 347.429688 241.183594 C 348.472656 240.738281 348.570312 240.46875 348.96875 240.296875 C 349.371094 240.128906 350.769531 239.886719 351.382812 239.796875 C 351.996094 239.714844 353.808594 239.597656 353.894531 239.171875 C 353.976562 238.742188 353.863281 238.558594 353.835938 238.1875 C 353.808594 237.816406 354.050781 237.1875 353.636719 237.117188 C 353.222656 237.046875 352.894531 237.003906 352.652344 237.046875 C 352.410156 237.089844 352.222656 237.101562 352.222656 237.101562 C 352.222656 237.101562 352.824219 236.417969 352.453125 235.605469 C 352.082031 234.792969 351.738281 234.175781 351.539062 233.5625 C 351.339844 232.953125 350.496094 231.28125 350.46875 230.96875 C 350.441406 230.652344 350.851562 230.269531 350.667969 230.042969 C 350.484375 229.8125 350.242188 229.339844 350.210938 229.242188 C 350.183594 229.140625 350.054688 228.285156 349.96875 228.027344 C 349.882812 227.773438 349.8125 227.617188 349.8125 227.617188 C 349.8125 227.617188 349.828125 227.640625 349.699219 227.269531 C 349.699219 227.269531 349.226562 225.691406 349.070312 224.40625 C 348.914062 223.121094 348.871094 221.082031 348.457031 219.898438 C 348.042969 218.714844 347.714844 217.859375 347.714844 217.859375 C 347.714844 217.859375 347.617188 217.628906 347.945312 217.445312 C 348.273438 217.257812 348.570312 217.570312 348.472656 216.972656 C 348.371094 216.375 348.042969 215.972656 348.242188 215.789062 C 348.441406 215.601562 350.070312 215.074219 349.96875 214.71875 C 349.871094 214.363281 349.855469 214.078125 349.96875 213.933594 C 350.082031 213.792969 350.355469 213.90625 350.226562 213.308594 C 350.097656 212.707031 349.339844 210.796875 349.542969 209.371094 C 349.742188 207.941406 349.796875 206.832031 349.882812 206.058594 C 349.96875 205.289062 350.710938 204.105469 350.683594 203.207031 C 350.652344 202.308594 350.9375 201.125 351.066406 200.410156 C 351.195312 199.699219 352.480469 195.800781 352.90625 194.347656 C 353.335938 192.890625 354.234375 189.839844 354.378906 189.097656 C 354.519531 188.355469 354.5625 188.054688 354.691406 188 C 354.820312 187.941406 355.804688 187.957031 355.71875 187.6875 C 355.632812 187.414062 355.617188 187.199219 355.734375 187.070312 C 355.847656 186.945312 356.246094 186.816406 356.230469 186.542969 C 356.21875 186.273438 356.074219 186.003906 356.304688 185.789062 C 356.53125 185.574219 356.789062 185.429688 356.675781 185.144531 C 356.558594 184.859375 356.488281 184.445312 356.488281 184.332031 C 356.488281 184.21875 356.8125 181.878906 356.964844 180.359375 C 357.117188 178.835938 357.363281 175.410156 356.699219 174.382812 C 356.03125 173.355469 355.929688 172.539062 355.875 172.082031 C 355.824219 171.625 355.460938 170.921875 355.328125 170.597656 C 355.195312 170.277344 355.214844 170.066406 355.121094 169.609375 C 355.023438 169.152344 354.644531 168.527344 354.605469 168.222656 C 354.566406 167.917969 354.566406 167.917969 354.566406 167.917969 C 354.566406 167.917969 358.429688 166.964844 359.570312 166.378906 C 360.710938 165.789062 362.367188 164.703125 363.242188 164.378906 C 364.117188 164.054688 364.972656 163.464844 364.820312 162.574219 Z M 346.230469 234.621094 C 346.203125 234.976562 346.0625 235.203125 345.960938 235.40625 C 345.859375 235.605469 345.71875 235.546875 345.417969 235.546875 C 345.121094 235.546875 344.792969 236.175781 344.492188 236.71875 C 344.191406 237.261719 343.222656 237.816406 343.222656 237.816406 C 343.222656 237.816406 343.179688 237.703125 343.152344 237.445312 C 343.121094 237.1875 343.164062 237.21875 343.308594 237.058594 C 343.449219 236.902344 343.449219 236.375 343.476562 236.03125 C 343.507812 235.691406 343.804688 234.835938 343.949219 234.378906 C 344.09375 233.921875 344.148438 233.777344 344.207031 233.550781 C 344.261719 233.320312 344.148438 233.179688 344.175781 233.109375 C 344.207031 233.035156 344.292969 232.792969 344.347656 232.582031 C 344.40625 232.367188 345.191406 230.3125 345.191406 230.3125 C 345.191406 230.3125 345.203125 230.511719 345.246094 230.695312 C 345.289062 230.882812 345.417969 231.28125 345.476562 231.597656 C 345.53125 231.910156 345.832031 231.953125 345.960938 232.023438 C 346.089844 232.09375 346.230469 232.851562 346.230469 233.066406 C 346.230469 233.277344 346.289062 233.535156 346.304688 233.777344 C 346.316406 234.019531 346.261719 234.261719 346.230469 234.621094 Z M 355.347656 161.707031 C 355.089844 161.835938 354.632812 162.007812 354.433594 162.136719 C 354.234375 162.261719 354.011719 162.371094 354.078125 162.234375 C 354.078125 162.234375 354.363281 161.648438 354.449219 161.449219 C 354.535156 161.25 354.621094 161.050781 354.664062 160.921875 C 354.707031 160.792969 354.804688 160.664062 354.804688 160.464844 C 354.804688 160.265625 354.804688 159.96875 354.804688 159.96875 C 354.804688 159.96875 354.890625 159.894531 355.148438 160.179688 C 355.40625 160.464844 355.460938 160.535156 355.574219 160.792969 C 355.691406 161.050781 355.875 161.378906 355.875 161.378906 C 355.875 161.378906 355.605469 161.578125 355.347656 161.707031 " fill-opacity="1" fill-rule="nonzero"/></g><path fill="#4a3249" d="M 173.875 81.292969 C 173.875 81.292969 163.320312 72.929688 166.308594 69.542969 C 169.296875 66.15625 173.28125 72.929688 173.28125 72.929688 C 173.28125 72.929688 177.0625 66.757812 180.050781 68.546875 C 183.039062 70.335938 173.875 81.292969 173.875 81.292969 Z M 173.875 81.292969 " fill-opacity="1" fill-rule="nonzero"/><path fill="#4a3249" d="M 195.785156 98.816406 C 195.785156 98.816406 185.828125 89.253906 188.417969 87.066406 C 191.007812 84.875 194.789062 90.453125 194.789062 90.453125 C 194.789062 90.453125 197.777344 83.683594 200.5625 85.277344 C 203.351562 86.867188 195.785156 98.816406 195.785156 98.816406 Z M 195.785156 98.816406 " fill-opacity="1" fill-rule="nonzero"/><g fill="#000000" fill-opacity="0.4"><g transform="translate(138.759225, 69.295682)"><g><path d="M 1.765625 -20.328125 L 5.046875 -22.15625 L 9.796875 -13.65625 C 10.828125 -11.8125 10.988281 -9.894531 10.28125 -7.90625 C 9.632812 -6.101562 8.523438 -4.765625 6.953125 -3.890625 C 5.441406 -3.046875 3.773438 -2.800781 1.953125 -3.15625 C -0.148438 -3.5625 -1.738281 -4.726562 -2.8125 -6.65625 L -7.546875 -15.109375 L -4.265625 -16.953125 L 0.46875 -8.5 C 0.96875 -7.59375 1.691406 -7.050781 2.640625 -6.875 C 3.109375 -6.769531 3.578125 -6.757812 4.046875 -6.84375 C 4.472656 -6.90625 4.828125 -7.015625 5.109375 -7.171875 C 5.378906 -7.316406 5.6875 -7.570312 6.03125 -7.9375 C 6.375 -8.382812 6.613281 -8.796875 6.75 -9.171875 C 6.90625 -9.671875 6.96875 -10.109375 6.9375 -10.484375 C 6.914062 -10.910156 6.773438 -11.359375 6.515625 -11.828125 Z M 1.765625 -20.328125 "/></g></g></g><g fill="#000000" fill-opacity="0.4"><g transform="translate(156.529343, 60.066618)"><g><path d="M 3.625 -4.84375 L 11.421875 -7.109375 L 12.4375 -3.609375 L 0.75 -0.21875 L -3.953125 -16.421875 L -0.0625 -17.546875 Z M 3.625 -4.84375 "/></g></g></g><g fill="#000000" fill-opacity="0.4"><g transform="translate(173.852827, 55.804078)"><g><path d="M -1.5625 -16.8125 L 2.453125 -17.28125 L 4.40625 -0.515625 L 0.390625 -0.046875 Z M -1.5625 -16.8125 "/></g></g></g><g fill="#000000" fill-opacity="0.4"><g transform="translate(183.125672, 54.650191)"><g><path d="M 7.640625 0.515625 C 6.503906 0.441406 5.507812 0.210938 4.65625 -0.171875 C 4 -0.503906 3.320312 -1.007812 2.625 -1.6875 C 1.84375 -2.5 1.378906 -3.46875 1.234375 -4.59375 C 1.171875 -4.96875 1.148438 -5.335938 1.171875 -5.703125 C 1.160156 -5.828125 1.164062 -5.945312 1.1875 -6.0625 L 1.203125 -6.25 L 4.734375 -5.984375 L 4.734375 -6 C 4.691406 -5.363281 4.800781 -4.828125 5.0625 -4.390625 C 5.53125 -3.585938 6.460938 -3.140625 7.859375 -3.046875 C 10.109375 -2.910156 11.265625 -3.363281 11.328125 -4.40625 C 11.398438 -5.425781 10.285156 -6.140625 7.984375 -6.546875 C 6.660156 -6.785156 5.53125 -7.140625 4.59375 -7.609375 C 3.75 -8.015625 3.066406 -8.539062 2.546875 -9.1875 C 1.828125 -10.101562 1.503906 -11.125 1.578125 -12.25 C 1.628906 -12.96875 1.796875 -13.625 2.078125 -14.21875 C 2.304688 -14.675781 2.59375 -15.085938 2.9375 -15.453125 C 4.25 -16.742188 6.210938 -17.304688 8.828125 -17.140625 C 10.410156 -17.046875 11.722656 -16.648438 12.765625 -15.953125 C 13.554688 -15.429688 14.1875 -14.769531 14.65625 -13.96875 C 15 -13.351562 15.222656 -12.660156 15.328125 -11.890625 C 15.367188 -11.617188 15.390625 -11.351562 15.390625 -11.09375 C 15.410156 -11.019531 15.414062 -10.941406 15.40625 -10.859375 L 15.40625 -10.703125 L 11.859375 -10.921875 L 11.84375 -10.890625 C 11.90625 -11.398438 11.804688 -11.847656 11.546875 -12.234375 C 11.035156 -13.035156 10.050781 -13.484375 8.59375 -13.578125 C 7.71875 -13.628906 6.988281 -13.566406 6.40625 -13.390625 C 5.675781 -13.148438 5.296875 -12.769531 5.265625 -12.25 C 5.203125 -11.1875 6.3125 -10.453125 8.59375 -10.046875 C 11.164062 -9.597656 12.984375 -8.679688 14.046875 -7.296875 C 14.742188 -6.335938 15.054688 -5.296875 14.984375 -4.171875 L 14.96875 -3.9375 C 14.96875 -3.832031 14.953125 -3.734375 14.921875 -3.640625 C 14.890625 -3.359375 14.835938 -3.109375 14.765625 -2.890625 C 14.554688 -2.203125 14.191406 -1.609375 13.671875 -1.109375 C 13.054688 -0.492188 12.257812 -0.046875 11.28125 0.234375 C 10.289062 0.503906 9.078125 0.597656 7.640625 0.515625 Z M 7.640625 0.515625 "/></g></g></g><g fill="#000000" fill-opacity="0.4"><g transform="translate(202.490838, 56.331189)"><g><path d="M 7.296875 2.28125 C 6.210938 1.945312 5.304688 1.492188 4.578125 0.921875 C 4.003906 0.453125 3.460938 -0.195312 2.953125 -1.03125 C 2.367188 -2 2.140625 -3.050781 2.265625 -4.1875 C 2.296875 -4.5625 2.367188 -4.925781 2.484375 -5.28125 C 2.492188 -5.394531 2.53125 -5.507812 2.59375 -5.625 L 2.640625 -5.796875 L 6.015625 -4.703125 L 6.015625 -4.71875 C 5.835938 -4.113281 5.816406 -3.570312 5.953125 -3.09375 C 6.222656 -2.1875 7.023438 -1.53125 8.359375 -1.125 C 10.515625 -0.457031 11.742188 -0.625 12.046875 -1.625 C 12.347656 -2.601562 11.429688 -3.554688 9.296875 -4.484375 C 8.066406 -5.023438 7.054688 -5.632812 6.265625 -6.3125 C 5.523438 -6.90625 4.976562 -7.578125 4.625 -8.328125 C 4.144531 -9.390625 4.078125 -10.460938 4.421875 -11.546875 C 4.628906 -12.234375 4.941406 -12.832031 5.359375 -13.34375 C 5.691406 -13.726562 6.0625 -14.0625 6.46875 -14.34375 C 8.039062 -15.28125 10.082031 -15.363281 12.59375 -14.59375 C 14.101562 -14.125 15.285156 -13.429688 16.140625 -12.515625 C 16.796875 -11.816406 17.257812 -11.023438 17.53125 -10.140625 C 17.707031 -9.460938 17.765625 -8.738281 17.703125 -7.96875 C 17.671875 -7.707031 17.625 -7.445312 17.5625 -7.1875 C 17.5625 -7.101562 17.550781 -7.019531 17.53125 -6.9375 L 17.484375 -6.796875 L 14.078125 -7.84375 L 14.0625 -7.8125 C 14.238281 -8.300781 14.242188 -8.757812 14.078125 -9.1875 C 13.785156 -10.09375 12.941406 -10.757812 11.546875 -11.1875 C 10.710938 -11.445312 9.988281 -11.554688 9.375 -11.515625 C 8.613281 -11.453125 8.15625 -11.171875 8 -10.671875 C 7.6875 -9.648438 8.585938 -8.675781 10.703125 -7.75 C 13.097656 -6.707031 14.648438 -5.390625 15.359375 -3.796875 C 15.816406 -2.710938 15.878906 -1.628906 15.546875 -0.546875 L 15.484375 -0.328125 C 15.453125 -0.234375 15.410156 -0.140625 15.359375 -0.046875 C 15.253906 0.210938 15.148438 0.453125 15.046875 0.671875 C 14.671875 1.285156 14.171875 1.773438 13.546875 2.140625 C 12.816406 2.585938 11.9375 2.828125 10.90625 2.859375 C 9.875 2.898438 8.671875 2.707031 7.296875 2.28125 Z M 7.296875 2.28125 "/></g></g></g><g fill="#000000" fill-opacity="0.4"><g transform="translate(220.974653, 62.634208)"><g><path d="M 7.5 -3.3125 L 6.015625 -0.734375 L 12.703125 3.125 L 10.875 6.28125 L 0.671875 0.390625 L 9.125 -14.21875 L 19.328125 -8.328125 L 17.5 -5.1875 L 10.8125 -9.046875 L 9.3125 -6.453125 L 15 -3.171875 L 13.1875 -0.03125 Z M 7.5 -3.3125 "/></g></g></g><g fill="#916a58" fill-opacity="1"><g transform="translate(137.6113, 68.147714)"><g><path d="M 1.765625 -20.328125 L 5.046875 -22.15625 L 9.796875 -13.65625 C 10.828125 -11.8125 10.988281 -9.894531 10.28125 -7.90625 C 9.632812 -6.101562 8.523438 -4.765625 6.953125 -3.890625 C 5.441406 -3.046875 3.773438 -2.800781 1.953125 -3.15625 C -0.148438 -3.5625 -1.738281 -4.726562 -2.8125 -6.65625 L -7.546875 -15.109375 L -4.265625 -16.953125 L 0.46875 -8.5 C 0.96875 -7.59375 1.691406 -7.050781 2.640625 -6.875 C 3.109375 -6.769531 3.578125 -6.757812 4.046875 -6.84375 C 4.472656 -6.90625 4.828125 -7.015625 5.109375 -7.171875 C 5.378906 -7.316406 5.6875 -7.570312 6.03125 -7.9375 C 6.375 -8.382812 6.613281 -8.796875 6.75 -9.171875 C 6.90625 -9.671875 6.96875 -10.109375 6.9375 -10.484375 C 6.914062 -10.910156 6.773438 -11.359375 6.515625 -11.828125 Z M 1.765625 -20.328125 "/></g></g></g><g fill="#916a58" fill-opacity="1"><g transform="translate(155.381401, 58.918649)"><g><path d="M 3.625 -4.84375 L 11.421875 -7.109375 L 12.4375 -3.609375 L 0.75 -0.21875 L -3.953125 -16.421875 L -0.0625 -17.546875 Z M 3.625 -4.84375 "/></g></g></g><g fill="#916a58" fill-opacity="1"><g transform="translate(172.704902, 54.656168)"><g><path d="M -1.5625 -16.8125 L 2.453125 -17.28125 L 4.40625 -0.515625 L 0.390625 -0.046875 Z M -1.5625 -16.8125 "/></g></g></g><g fill="#916a58" fill-opacity="1"><g transform="translate(181.977732, 53.502281)"><g><path d="M 7.640625 0.515625 C 6.503906 0.441406 5.507812 0.210938 4.65625 -0.171875 C 4 -0.503906 3.320312 -1.007812 2.625 -1.6875 C 1.84375 -2.5 1.378906 -3.46875 1.234375 -4.59375 C 1.171875 -4.96875 1.148438 -5.335938 1.171875 -5.703125 C 1.160156 -5.828125 1.164062 -5.945312 1.1875 -6.0625 L 1.203125 -6.25 L 4.734375 -5.984375 L 4.734375 -6 C 4.691406 -5.363281 4.800781 -4.828125 5.0625 -4.390625 C 5.53125 -3.585938 6.460938 -3.140625 7.859375 -3.046875 C 10.109375 -2.910156 11.265625 -3.363281 11.328125 -4.40625 C 11.398438 -5.425781 10.285156 -6.140625 7.984375 -6.546875 C 6.660156 -6.785156 5.53125 -7.140625 4.59375 -7.609375 C 3.75 -8.015625 3.066406 -8.539062 2.546875 -9.1875 C 1.828125 -10.101562 1.503906 -11.125 1.578125 -12.25 C 1.628906 -12.96875 1.796875 -13.625 2.078125 -14.21875 C 2.304688 -14.675781 2.59375 -15.085938 2.9375 -15.453125 C 4.25 -16.742188 6.210938 -17.304688 8.828125 -17.140625 C 10.410156 -17.046875 11.722656 -16.648438 12.765625 -15.953125 C 13.554688 -15.429688 14.1875 -14.769531 14.65625 -13.96875 C 15 -13.351562 15.222656 -12.660156 15.328125 -11.890625 C 15.367188 -11.617188 15.390625 -11.351562 15.390625 -11.09375 C 15.410156 -11.019531 15.414062 -10.941406 15.40625 -10.859375 L 15.40625 -10.703125 L 11.859375 -10.921875 L 11.84375 -10.890625 C 11.90625 -11.398438 11.804688 -11.847656 11.546875 -12.234375 C 11.035156 -13.035156 10.050781 -13.484375 8.59375 -13.578125 C 7.71875 -13.628906 6.988281 -13.566406 6.40625 -13.390625 C 5.675781 -13.148438 5.296875 -12.769531 5.265625 -12.25 C 5.203125 -11.1875 6.3125 -10.453125 8.59375 -10.046875 C 11.164062 -9.597656 12.984375 -8.679688 14.046875 -7.296875 C 14.742188 -6.335938 15.054688 -5.296875 14.984375 -4.171875 L 14.96875 -3.9375 C 14.96875 -3.832031 14.953125 -3.734375 14.921875 -3.640625 C 14.890625 -3.359375 14.835938 -3.109375 14.765625 -2.890625 C 14.554688 -2.203125 14.191406 -1.609375 13.671875 -1.109375 C 13.054688 -0.492188 12.257812 -0.046875 11.28125 0.234375 C 10.289062 0.503906 9.078125 0.597656 7.640625 0.515625 Z M 7.640625 0.515625 "/></g></g></g><g fill="#916a58" fill-opacity="1"><g transform="translate(201.342899, 55.183279)"><g><path d="M 7.296875 2.28125 C 6.210938 1.945312 5.304688 1.492188 4.578125 0.921875 C 4.003906 0.453125 3.460938 -0.195312 2.953125 -1.03125 C 2.367188 -2 2.140625 -3.050781 2.265625 -4.1875 C 2.296875 -4.5625 2.367188 -4.925781 2.484375 -5.28125 C 2.492188 -5.394531 2.53125 -5.507812 2.59375 -5.625 L 2.640625 -5.796875 L 6.015625 -4.703125 L 6.015625 -4.71875 C 5.835938 -4.113281 5.816406 -3.570312 5.953125 -3.09375 C 6.222656 -2.1875 7.023438 -1.53125 8.359375 -1.125 C 10.515625 -0.457031 11.742188 -0.625 12.046875 -1.625 C 12.347656 -2.601562 11.429688 -3.554688 9.296875 -4.484375 C 8.066406 -5.023438 7.054688 -5.632812 6.265625 -6.3125 C 5.523438 -6.90625 4.976562 -7.578125 4.625 -8.328125 C 4.144531 -9.390625 4.078125 -10.460938 4.421875 -11.546875 C 4.628906 -12.234375 4.941406 -12.832031 5.359375 -13.34375 C 5.691406 -13.726562 6.0625 -14.0625 6.46875 -14.34375 C 8.039062 -15.28125 10.082031 -15.363281 12.59375 -14.59375 C 14.101562 -14.125 15.285156 -13.429688 16.140625 -12.515625 C 16.796875 -11.816406 17.257812 -11.023438 17.53125 -10.140625 C 17.707031 -9.460938 17.765625 -8.738281 17.703125 -7.96875 C 17.671875 -7.707031 17.625 -7.445312 17.5625 -7.1875 C 17.5625 -7.101562 17.550781 -7.019531 17.53125 -6.9375 L 17.484375 -6.796875 L 14.078125 -7.84375 L 14.0625 -7.8125 C 14.238281 -8.300781 14.242188 -8.757812 14.078125 -9.1875 C 13.785156 -10.09375 12.941406 -10.757812 11.546875 -11.1875 C 10.710938 -11.445312 9.988281 -11.554688 9.375 -11.515625 C 8.613281 -11.453125 8.15625 -11.171875 8 -10.671875 C 7.6875 -9.648438 8.585938 -8.675781 10.703125 -7.75 C 13.097656 -6.707031 14.648438 -5.390625 15.359375 -3.796875 C 15.816406 -2.710938 15.878906 -1.628906 15.546875 -0.546875 L 15.484375 -0.328125 C 15.453125 -0.234375 15.410156 -0.140625 15.359375 -0.046875 C 15.253906 0.210938 15.148438 0.453125 15.046875 0.671875 C 14.671875 1.285156 14.171875 1.773438 13.546875 2.140625 C 12.816406 2.585938 11.9375 2.828125 10.90625 2.859375 C 9.875 2.898438 8.671875 2.707031 7.296875 2.28125 Z M 7.296875 2.28125 "/></g></g></g><g fill="#916a58" fill-opacity="1"><g transform="translate(219.826728, 61.486298)"><g><path d="M 7.5 -3.3125 L 6.015625 -0.734375 L 12.703125 3.125 L 10.875 6.28125 L 0.671875 0.390625 L 9.125 -14.21875 L 19.328125 -8.328125 L 17.5 -5.1875 L 10.8125 -9.046875 L 9.3125 -6.453125 L 15 -3.171875 L 13.1875 -0.03125 Z M 7.5 -3.3125 "/></g></g></g><g fill="#000000" fill-opacity="0.4"><g transform="translate(80.449204, 296.38961)"><g><path d="M 8.28125 -4.53125 L 8.28125 0 L 6.71875 0 L 6.71875 -0.625 C 6.019531 -0.125 5.238281 0.125 4.375 0.125 C 3.269531 0.125 2.320312 -0.269531 1.53125 -1.0625 C 0.75 -1.84375 0.359375 -2.789062 0.359375 -3.90625 C 0.359375 -5.007812 0.75 -5.957031 1.53125 -6.75 C 2.320312 -7.53125 3.269531 -7.921875 4.375 -7.921875 C 5.375 -7.921875 6.25 -7.597656 7 -6.953125 L 5.796875 -5.765625 C 5.367188 -6.078125 4.894531 -6.234375 4.375 -6.234375 C 3.71875 -6.234375 3.171875 -6.007812 2.734375 -5.5625 C 2.273438 -5.09375 2.046875 -4.539062 2.046875 -3.90625 C 2.046875 -3.257812 2.273438 -2.707031 2.734375 -2.25 C 3.191406 -1.789062 3.738281 -1.5625 4.375 -1.5625 C 5.007812 -1.5625 5.5625 -1.789062 6.03125 -2.25 C 6.050781 -2.257812 6.066406 -2.273438 6.078125 -2.296875 L 6.140625 -2.359375 C 6.203125 -2.421875 6.253906 -2.476562 6.296875 -2.53125 C 6.429688 -2.695312 6.523438 -2.84375 6.578125 -2.96875 L 4.78125 -2.96875 L 4.78125 -4.53125 Z M 6.703125 -2.96875 L 6.71875 -2.953125 L 6.71875 -2.96875 Z M 6.703125 -2.96875 "/></g></g></g><g fill="#000000" fill-opacity="0.4"><g transform="translate(91.933218, 296.38961)"><g><path d="M 6.875 -5.140625 C 6.875 -4.628906 6.742188 -4.160156 6.484375 -3.734375 C 6.179688 -3.222656 5.742188 -2.863281 5.171875 -2.65625 L 6.859375 0 L 4.75 0 L 3.125 -2.484375 L 2.234375 -2.484375 L 2.234375 0 L 0.359375 0 L 0.359375 -7.796875 L 4.09375 -7.796875 C 4.976562 -7.796875 5.679688 -7.503906 6.203125 -6.921875 C 6.648438 -6.410156 6.875 -5.816406 6.875 -5.140625 Z M 2.234375 -6.125 L 2.234375 -4.15625 L 4.078125 -4.15625 C 4.335938 -4.15625 4.539062 -4.191406 4.6875 -4.265625 C 4.820312 -4.335938 4.914062 -4.40625 4.96875 -4.46875 C 5.050781 -4.570312 5.109375 -4.6875 5.140625 -4.8125 C 5.179688 -4.925781 5.203125 -5.035156 5.203125 -5.140625 C 5.203125 -5.242188 5.179688 -5.351562 5.140625 -5.46875 C 5.097656 -5.59375 5.03125 -5.707031 4.9375 -5.8125 C 4.769531 -6.019531 4.488281 -6.125 4.09375 -6.125 Z M 2.234375 -6.125 "/></g></g></g><g fill="#000000" fill-opacity="0.4"><g transform="translate(102.013236, 296.38961)"><g><path d="M 6.34375 0 L 5.78125 -1.09375 L 2.84375 -1.09375 L 2.28125 0 L 0.125 0 L 4.3125 -7.796875 L 8.515625 0 Z M 5.03125 -2.5625 L 4.3125 -3.921875 L 3.59375 -2.5625 Z M 5.03125 -2.5625 "/></g></g></g><g fill="#000000" fill-opacity="0.4"><g transform="translate(113.485256, 296.38961)"><g><path d="M 5.453125 -7.796875 L 7.328125 -7.796875 L 7.328125 0 L 2.15625 -3.796875 L 2.15625 0 L 0.28125 0 L 0.28125 -7.796875 L 5.453125 -3.8125 Z M 5.453125 -7.796875 "/></g></g></g><g fill="#000000" fill-opacity="0.4"><g transform="translate(123.94927, 296.38961)"><g><path d="M 3.328125 -7.75 C 4.398438 -7.75 5.316406 -7.367188 6.078125 -6.609375 C 6.835938 -5.847656 7.21875 -4.929688 7.21875 -3.859375 C 7.21875 -2.785156 6.835938 -1.863281 6.078125 -1.09375 C 5.316406 -0.332031 4.398438 0.046875 3.328125 0.046875 L 0.359375 0.046875 L 0.359375 -7.75 Z M 4.8125 -2.359375 C 5.21875 -2.765625 5.421875 -3.265625 5.421875 -3.859375 C 5.421875 -4.429688 5.21875 -4.929688 4.8125 -5.359375 C 4.40625 -5.765625 3.90625 -5.96875 3.3125 -5.96875 L 2.234375 -5.96875 L 2.234375 -1.75 L 3.328125 -1.75 C 3.910156 -1.75 4.40625 -1.953125 4.8125 -2.359375 Z M 4.8125 -2.359375 "/></g></g></g><g fill="#000000" fill-opacity="0.4"><g transform="translate(134.37728, 296.38961)"><g><path d="M 4.109375 -7.796875 C 4.992188 -7.796875 5.695312 -7.503906 6.21875 -6.921875 C 6.664062 -6.410156 6.890625 -5.816406 6.890625 -5.140625 C 6.890625 -4.472656 6.679688 -3.890625 6.265625 -3.390625 C 5.742188 -2.785156 5.015625 -2.484375 4.078125 -2.484375 L 2.234375 -2.484375 L 2.234375 0 L 0.359375 0 L 0.359375 -7.796875 Z M 4.984375 -4.46875 C 5.054688 -4.570312 5.113281 -4.6875 5.15625 -4.8125 C 5.1875 -4.925781 5.203125 -5.035156 5.203125 -5.140625 C 5.203125 -5.242188 5.179688 -5.351562 5.140625 -5.46875 C 5.097656 -5.59375 5.035156 -5.707031 4.953125 -5.8125 C 4.773438 -6.019531 4.492188 -6.125 4.109375 -6.125 L 2.234375 -6.125 L 2.234375 -4.15625 L 4.078125 -4.15625 C 4.328125 -4.15625 4.535156 -4.191406 4.703125 -4.265625 C 4.816406 -4.335938 4.910156 -4.40625 4.984375 -4.46875 Z M 4.984375 -4.46875 "/></g></g></g><g fill="#000000" fill-opacity="0.4"><g transform="translate(144.469292, 296.38961)"><g><path d="M 6.34375 0 L 5.78125 -1.09375 L 2.84375 -1.09375 L 2.28125 0 L 0.125 0 L 4.3125 -7.796875 L 8.515625 0 Z M 5.03125 -2.5625 L 4.3125 -3.921875 L 3.59375 -2.5625 Z M 5.03125 -2.5625 "/></g></g></g><g fill="#000000" fill-opacity="0.4"><g transform="translate(155.941312, 296.38961)"><g><path d="M 6.875 -5.140625 C 6.875 -4.628906 6.742188 -4.160156 6.484375 -3.734375 C 6.179688 -3.222656 5.742188 -2.863281 5.171875 -2.65625 L 6.859375 0 L 4.75 0 L 3.125 -2.484375 L 2.234375 -2.484375 L 2.234375 0 L 0.359375 0 L 0.359375 -7.796875 L 4.09375 -7.796875 C 4.976562 -7.796875 5.679688 -7.503906 6.203125 -6.921875 C 6.648438 -6.410156 6.875 -5.816406 6.875 -5.140625 Z M 2.234375 -6.125 L 2.234375 -4.15625 L 4.078125 -4.15625 C 4.335938 -4.15625 4.539062 -4.191406 4.6875 -4.265625 C 4.820312 -4.335938 4.914062 -4.40625 4.96875 -4.46875 C 5.050781 -4.570312 5.109375 -4.6875 5.140625 -4.8125 C 5.179688 -4.925781 5.203125 -5.035156 5.203125 -5.140625 C 5.203125 -5.242188 5.179688 -5.351562 5.140625 -5.46875 C 5.097656 -5.59375 5.03125 -5.707031 4.9375 -5.8125 C 4.769531 -6.019531 4.488281 -6.125 4.09375 -6.125 Z M 2.234375 -6.125 "/></g></g></g><g fill="#000000" fill-opacity="0.4"><g transform="translate(166.02133, 296.38961)"><g><path d="M 2.234375 -3.0625 L 2.234375 -1.6875 L 5.8125 -1.6875 L 5.8125 0 L 0.359375 0 L 0.359375 -7.796875 L 5.8125 -7.796875 L 5.8125 -6.125 L 2.234375 -6.125 L 2.234375 -4.734375 L 5.265625 -4.734375 L 5.265625 -3.0625 Z M 2.234375 -3.0625 "/></g></g></g><g fill="#000000" fill-opacity="0.4"><g transform="translate(175.03334, 296.38961)"><g><path d="M 5.453125 -7.796875 L 7.328125 -7.796875 L 7.328125 0 L 2.15625 -3.796875 L 2.15625 0 L 0.28125 0 L 0.28125 -7.796875 L 5.453125 -3.8125 Z M 5.453125 -7.796875 "/></g></g></g><g fill="#000000" fill-opacity="0.4"><g transform="translate(185.497354, 296.38961)"><g><path d="M 6.28125 -5.921875 L 4.265625 -5.921875 L 4.265625 0 L 2.390625 0 L 2.390625 -5.921875 L 0.359375 -5.921875 L 0.359375 -7.796875 L 6.28125 -7.796875 Z M 6.28125 -5.921875 "/></g></g></g><g fill="#000000" fill-opacity="0.4"><g transform="translate(194.881371, 296.38961)"><g><path d="M 0.1875 -7.796875 L 2.046875 -7.796875 L 2.046875 0 L 0.1875 0 Z M 0.1875 -7.796875 "/></g></g></g><g fill="#000000" fill-opacity="0.4"><g transform="translate(199.957375, 296.38961)"><g><path d="M 5.453125 -7.796875 L 7.328125 -7.796875 L 7.328125 0 L 2.15625 -3.796875 L 2.15625 0 L 0.28125 0 L 0.28125 -7.796875 L 5.453125 -3.8125 Z M 5.453125 -7.796875 "/></g></g></g><g fill="#000000" fill-opacity="0.4"><g transform="translate(210.421394, 296.38961)"><g><path d="M 8.28125 -4.53125 L 8.28125 0 L 6.71875 0 L 6.71875 -0.625 C 6.019531 -0.125 5.238281 0.125 4.375 0.125 C 3.269531 0.125 2.320312 -0.269531 1.53125 -1.0625 C 0.75 -1.84375 0.359375 -2.789062 0.359375 -3.90625 C 0.359375 -5.007812 0.75 -5.957031 1.53125 -6.75 C 2.320312 -7.53125 3.269531 -7.921875 4.375 -7.921875 C 5.375 -7.921875 6.25 -7.597656 7 -6.953125 L 5.796875 -5.765625 C 5.367188 -6.078125 4.894531 -6.234375 4.375 -6.234375 C 3.71875 -6.234375 3.171875 -6.007812 2.734375 -5.5625 C 2.273438 -5.09375 2.046875 -4.539062 2.046875 -3.90625 C 2.046875 -3.257812 2.273438 -2.707031 2.734375 -2.25 C 3.191406 -1.789062 3.738281 -1.5625 4.375 -1.5625 C 5.007812 -1.5625 5.5625 -1.789062 6.03125 -2.25 C 6.050781 -2.257812 6.066406 -2.273438 6.078125 -2.296875 L 6.140625 -2.359375 C 6.203125 -2.421875 6.253906 -2.476562 6.296875 -2.53125 C 6.429688 -2.695312 6.523438 -2.84375 6.578125 -2.96875 L 4.78125 -2.96875 L 4.78125 -4.53125 Z M 6.703125 -2.96875 L 6.71875 -2.953125 L 6.71875 -2.96875 Z M 6.703125 -2.96875 "/></g></g></g><g fill="#000000" fill-opacity="0.4"><g transform="translate(221.905402, 296.38961)"><g/></g></g><g fill="#000000" fill-opacity="0.4"><g transform="translate(227.869398, 296.38961)"><g><path d="M 6.96875 -0.984375 C 6.207031 -0.347656 5.34375 -0.03125 4.375 -0.03125 C 3.269531 -0.03125 2.320312 -0.425781 1.53125 -1.21875 C 0.75 -2 0.359375 -2.941406 0.359375 -4.046875 C 0.359375 -5.160156 0.75 -6.109375 1.53125 -6.890625 C 2.320312 -7.671875 3.269531 -8.0625 4.375 -8.0625 C 5.351562 -8.0625 6.21875 -7.742188 6.96875 -7.109375 L 5.765625 -5.921875 C 5.359375 -6.234375 4.894531 -6.390625 4.375 -6.390625 C 3.726562 -6.390625 3.175781 -6.160156 2.71875 -5.703125 C 2.269531 -5.242188 2.046875 -4.691406 2.046875 -4.046875 C 2.046875 -3.398438 2.269531 -2.851562 2.71875 -2.40625 C 3.175781 -1.945312 3.726562 -1.71875 4.375 -1.71875 C 4.894531 -1.71875 5.359375 -1.875 5.765625 -2.1875 Z M 6.96875 -0.984375 "/></g></g></g><g fill="#000000" fill-opacity="0.4"><g transform="translate(238.405424, 296.38961)"><g><path d="M 4.578125 -7.796875 L 6.453125 -7.796875 L 6.453125 0 L 4.578125 0 L 4.578125 -3.0625 L 2.234375 -3.0625 L 2.234375 0 L 0.359375 0 L 0.359375 -7.796875 L 2.234375 -7.796875 L 2.234375 -4.734375 L 4.578125 -4.734375 Z M 4.578125 -7.796875 "/></g></g></g><g fill="#000000" fill-opacity="0.4"><g transform="translate(248.065427, 296.38961)"><g><path d="M 6.34375 0 L 5.78125 -1.09375 L 2.84375 -1.09375 L 2.28125 0 L 0.125 0 L 4.3125 -7.796875 L 8.515625 0 Z M 5.03125 -2.5625 L 4.3125 -3.921875 L 3.59375 -2.5625 Z M 5.03125 -2.5625 "/></g></g></g><g fill="#000000" fill-opacity="0.4"><g transform="translate(259.537441, 296.38961)"><g><path d="M 5.453125 -7.796875 L 7.328125 -7.796875 L 7.328125 0 L 2.15625 -3.796875 L 2.15625 0 L 0.28125 0 L 0.28125 -7.796875 L 5.453125 -3.8125 Z M 5.453125 -7.796875 "/></g></g></g><g fill="#000000" fill-opacity="0.4"><g transform="translate(270.00146, 296.38961)"><g><path d="M 5.453125 -7.796875 L 7.328125 -7.796875 L 7.328125 0 L 2.15625 -3.796875 L 2.15625 0 L 0.28125 0 L 0.28125 -7.796875 L 5.453125 -3.8125 Z M 5.453125 -7.796875 "/></g></g></g><g fill="#000000" fill-opacity="0.4"><g transform="translate(280.465479, 296.38961)"><g><path d="M 2.234375 -3.0625 L 2.234375 -1.6875 L 5.8125 -1.6875 L 5.8125 0 L 0.359375 0 L 0.359375 -7.796875 L 5.8125 -7.796875 L 5.8125 -6.125 L 2.234375 -6.125 L 2.234375 -4.734375 L 5.265625 -4.734375 L 5.265625 -3.0625 Z M 2.234375 -3.0625 "/></g></g></g><g fill="#000000" fill-opacity="0.4"><g transform="translate(289.477495, 296.38961)"><g><path d="M 2.234375 -1.6875 L 5.984375 -1.6875 L 5.984375 0 L 0.359375 0 L 0.359375 -7.796875 L 2.234375 -7.796875 Z M 2.234375 -1.6875 "/></g></g></g><g fill="#916a58" fill-opacity="1"><g transform="translate(79.918871, 295.859277)"><g><path d="M 8.28125 -4.53125 L 8.28125 0 L 6.71875 0 L 6.71875 -0.625 C 6.019531 -0.125 5.238281 0.125 4.375 0.125 C 3.269531 0.125 2.320312 -0.269531 1.53125 -1.0625 C 0.75 -1.84375 0.359375 -2.789062 0.359375 -3.90625 C 0.359375 -5.007812 0.75 -5.957031 1.53125 -6.75 C 2.320312 -7.53125 3.269531 -7.921875 4.375 -7.921875 C 5.375 -7.921875 6.25 -7.597656 7 -6.953125 L 5.796875 -5.765625 C 5.367188 -6.078125 4.894531 -6.234375 4.375 -6.234375 C 3.71875 -6.234375 3.171875 -6.007812 2.734375 -5.5625 C 2.273438 -5.09375 2.046875 -4.539062 2.046875 -3.90625 C 2.046875 -3.257812 2.273438 -2.707031 2.734375 -2.25 C 3.191406 -1.789062 3.738281 -1.5625 4.375 -1.5625 C 5.007812 -1.5625 5.5625 -1.789062 6.03125 -2.25 C 6.050781 -2.257812 6.066406 -2.273438 6.078125 -2.296875 L 6.140625 -2.359375 C 6.203125 -2.421875 6.253906 -2.476562 6.296875 -2.53125 C 6.429688 -2.695312 6.523438 -2.84375 6.578125 -2.96875 L 4.78125 -2.96875 L 4.78125 -4.53125 Z M 6.703125 -2.96875 L 6.71875 -2.953125 L 6.71875 -2.96875 Z M 6.703125 -2.96875 "/></g></g></g><g fill="#916a58" fill-opacity="1"><g transform="translate(91.402885, 295.859277)"><g><path d="M 6.875 -5.140625 C 6.875 -4.628906 6.742188 -4.160156 6.484375 -3.734375 C 6.179688 -3.222656 5.742188 -2.863281 5.171875 -2.65625 L 6.859375 0 L 4.75 0 L 3.125 -2.484375 L 2.234375 -2.484375 L 2.234375 0 L 0.359375 0 L 0.359375 -7.796875 L 4.09375 -7.796875 C 4.976562 -7.796875 5.679688 -7.503906 6.203125 -6.921875 C 6.648438 -6.410156 6.875 -5.816406 6.875 -5.140625 Z M 2.234375 -6.125 L 2.234375 -4.15625 L 4.078125 -4.15625 C 4.335938 -4.15625 4.539062 -4.191406 4.6875 -4.265625 C 4.820312 -4.335938 4.914062 -4.40625 4.96875 -4.46875 C 5.050781 -4.570312 5.109375 -4.6875 5.140625 -4.8125 C 5.179688 -4.925781 5.203125 -5.035156 5.203125 -5.140625 C 5.203125 -5.242188 5.179688 -5.351562 5.140625 -5.46875 C 5.097656 -5.59375 5.03125 -5.707031 4.9375 -5.8125 C 4.769531 -6.019531 4.488281 -6.125 4.09375 -6.125 Z M 2.234375 -6.125 "/></g></g></g><g fill="#916a58" fill-opacity="1"><g transform="translate(101.482903, 295.859277)"><g><path d="M 6.34375 0 L 5.78125 -1.09375 L 2.84375 -1.09375 L 2.28125 0 L 0.125 0 L 4.3125 -7.796875 L 8.515625 0 Z M 5.03125 -2.5625 L 4.3125 -3.921875 L 3.59375 -2.5625 Z M 5.03125 -2.5625 "/></g></g></g><g fill="#916a58" fill-opacity="1"><g transform="translate(112.954924, 295.859277)"><g><path d="M 5.453125 -7.796875 L 7.328125 -7.796875 L 7.328125 0 L 2.15625 -3.796875 L 2.15625 0 L 0.28125 0 L 0.28125 -7.796875 L 5.453125 -3.8125 Z M 5.453125 -7.796875 "/></g></g></g><g fill="#916a58" fill-opacity="1"><g transform="translate(123.418937, 295.859277)"><g><path d="M 3.328125 -7.75 C 4.398438 -7.75 5.316406 -7.367188 6.078125 -6.609375 C 6.835938 -5.847656 7.21875 -4.929688 7.21875 -3.859375 C 7.21875 -2.785156 6.835938 -1.863281 6.078125 -1.09375 C 5.316406 -0.332031 4.398438 0.046875 3.328125 0.046875 L 0.359375 0.046875 L 0.359375 -7.75 Z M 4.8125 -2.359375 C 5.21875 -2.765625 5.421875 -3.265625 5.421875 -3.859375 C 5.421875 -4.429688 5.21875 -4.929688 4.8125 -5.359375 C 4.40625 -5.765625 3.90625 -5.96875 3.3125 -5.96875 L 2.234375 -5.96875 L 2.234375 -1.75 L 3.328125 -1.75 C 3.910156 -1.75 4.40625 -1.953125 4.8125 -2.359375 Z M 4.8125 -2.359375 "/></g></g></g><g fill="#916a58" fill-opacity="1"><g transform="translate(133.846947, 295.859277)"><g><path d="M 4.109375 -7.796875 C 4.992188 -7.796875 5.695312 -7.503906 6.21875 -6.921875 C 6.664062 -6.410156 6.890625 -5.816406 6.890625 -5.140625 C 6.890625 -4.472656 6.679688 -3.890625 6.265625 -3.390625 C 5.742188 -2.785156 5.015625 -2.484375 4.078125 -2.484375 L 2.234375 -2.484375 L 2.234375 0 L 0.359375 0 L 0.359375 -7.796875 Z M 4.984375 -4.46875 C 5.054688 -4.570312 5.113281 -4.6875 5.15625 -4.8125 C 5.1875 -4.925781 5.203125 -5.035156 5.203125 -5.140625 C 5.203125 -5.242188 5.179688 -5.351562 5.140625 -5.46875 C 5.097656 -5.59375 5.035156 -5.707031 4.953125 -5.8125 C 4.773438 -6.019531 4.492188 -6.125 4.109375 -6.125 L 2.234375 -6.125 L 2.234375 -4.15625 L 4.078125 -4.15625 C 4.328125 -4.15625 4.535156 -4.191406 4.703125 -4.265625 C 4.816406 -4.335938 4.910156 -4.40625 4.984375 -4.46875 Z M 4.984375 -4.46875 "/></g></g></g><g fill="#916a58" fill-opacity="1"><g transform="translate(143.938959, 295.859277)"><g><path d="M 6.34375 0 L 5.78125 -1.09375 L 2.84375 -1.09375 L 2.28125 0 L 0.125 0 L 4.3125 -7.796875 L 8.515625 0 Z M 5.03125 -2.5625 L 4.3125 -3.921875 L 3.59375 -2.5625 Z M 5.03125 -2.5625 "/></g></g></g><g fill="#916a58" fill-opacity="1"><g transform="translate(155.410979, 295.859277)"><g><path d="M 6.875 -5.140625 C 6.875 -4.628906 6.742188 -4.160156 6.484375 -3.734375 C 6.179688 -3.222656 5.742188 -2.863281 5.171875 -2.65625 L 6.859375 0 L 4.75 0 L 3.125 -2.484375 L 2.234375 -2.484375 L 2.234375 0 L 0.359375 0 L 0.359375 -7.796875 L 4.09375 -7.796875 C 4.976562 -7.796875 5.679688 -7.503906 6.203125 -6.921875 C 6.648438 -6.410156 6.875 -5.816406 6.875 -5.140625 Z M 2.234375 -6.125 L 2.234375 -4.15625 L 4.078125 -4.15625 C 4.335938 -4.15625 4.539062 -4.191406 4.6875 -4.265625 C 4.820312 -4.335938 4.914062 -4.40625 4.96875 -4.46875 C 5.050781 -4.570312 5.109375 -4.6875 5.140625 -4.8125 C 5.179688 -4.925781 5.203125 -5.035156 5.203125 -5.140625 C 5.203125 -5.242188 5.179688 -5.351562 5.140625 -5.46875 C 5.097656 -5.59375 5.03125 -5.707031 4.9375 -5.8125 C 4.769531 -6.019531 4.488281 -6.125 4.09375 -6.125 Z M 2.234375 -6.125 "/></g></g></g><g fill="#916a58" fill-opacity="1"><g transform="translate(165.490998, 295.859277)"><g><path d="M 2.234375 -3.0625 L 2.234375 -1.6875 L 5.8125 -1.6875 L 5.8125 0 L 0.359375 0 L 0.359375 -7.796875 L 5.8125 -7.796875 L 5.8125 -6.125 L 2.234375 -6.125 L 2.234375 -4.734375 L 5.265625 -4.734375 L 5.265625 -3.0625 Z M 2.234375 -3.0625 "/></g></g></g><g fill="#916a58" fill-opacity="1"><g transform="translate(174.503008, 295.859277)"><g><path d="M 5.453125 -7.796875 L 7.328125 -7.796875 L 7.328125 0 L 2.15625 -3.796875 L 2.15625 0 L 0.28125 0 L 0.28125 -7.796875 L 5.453125 -3.8125 Z M 5.453125 -7.796875 "/></g></g></g><g fill="#916a58" fill-opacity="1"><g transform="translate(184.967021, 295.859277)"><g><path d="M 6.28125 -5.921875 L 4.265625 -5.921875 L 4.265625 0 L 2.390625 0 L 2.390625 -5.921875 L 0.359375 -5.921875 L 0.359375 -7.796875 L 6.28125 -7.796875 Z M 6.28125 -5.921875 "/></g></g></g><g fill="#916a58" fill-opacity="1"><g transform="translate(194.351038, 295.859277)"><g><path d="M 0.1875 -7.796875 L 2.046875 -7.796875 L 2.046875 0 L 0.1875 0 Z M 0.1875 -7.796875 "/></g></g></g><g fill="#916a58" fill-opacity="1"><g transform="translate(199.427042, 295.859277)"><g><path d="M 5.453125 -7.796875 L 7.328125 -7.796875 L 7.328125 0 L 2.15625 -3.796875 L 2.15625 0 L 0.28125 0 L 0.28125 -7.796875 L 5.453125 -3.8125 Z M 5.453125 -7.796875 "/></g></g></g><g fill="#916a58" fill-opacity="1"><g transform="translate(209.891061, 295.859277)"><g><path d="M 8.28125 -4.53125 L 8.28125 0 L 6.71875 0 L 6.71875 -0.625 C 6.019531 -0.125 5.238281 0.125 4.375 0.125 C 3.269531 0.125 2.320312 -0.269531 1.53125 -1.0625 C 0.75 -1.84375 0.359375 -2.789062 0.359375 -3.90625 C 0.359375 -5.007812 0.75 -5.957031 1.53125 -6.75 C 2.320312 -7.53125 3.269531 -7.921875 4.375 -7.921875 C 5.375 -7.921875 6.25 -7.597656 7 -6.953125 L 5.796875 -5.765625 C 5.367188 -6.078125 4.894531 -6.234375 4.375 -6.234375 C 3.71875 -6.234375 3.171875 -6.007812 2.734375 -5.5625 C 2.273438 -5.09375 2.046875 -4.539062 2.046875 -3.90625 C 2.046875 -3.257812 2.273438 -2.707031 2.734375 -2.25 C 3.191406 -1.789062 3.738281 -1.5625 4.375 -1.5625 C 5.007812 -1.5625 5.5625 -1.789062 6.03125 -2.25 C 6.050781 -2.257812 6.066406 -2.273438 6.078125 -2.296875 L 6.140625 -2.359375 C 6.203125 -2.421875 6.253906 -2.476562 6.296875 -2.53125 C 6.429688 -2.695312 6.523438 -2.84375 6.578125 -2.96875 L 4.78125 -2.96875 L 4.78125 -4.53125 Z M 6.703125 -2.96875 L 6.71875 -2.953125 L 6.71875 -2.96875 Z M 6.703125 -2.96875 "/></g></g></g><g fill="#916a58" fill-opacity="1"><g transform="translate(221.375069, 295.859277)"><g/></g></g><g fill="#916a58" fill-opacity="1"><g transform="translate(227.339065, 295.859277)"><g><path d="M 6.96875 -0.984375 C 6.207031 -0.347656 5.34375 -0.03125 4.375 -0.03125 C 3.269531 -0.03125 2.320312 -0.425781 1.53125 -1.21875 C 0.75 -2 0.359375 -2.941406 0.359375 -4.046875 C 0.359375 -5.160156 0.75 -6.109375 1.53125 -6.890625 C 2.320312 -7.671875 3.269531 -8.0625 4.375 -8.0625 C 5.351562 -8.0625 6.21875 -7.742188 6.96875 -7.109375 L 5.765625 -5.921875 C 5.359375 -6.234375 4.894531 -6.390625 4.375 -6.390625 C 3.726562 -6.390625 3.175781 -6.160156 2.71875 -5.703125 C 2.269531 -5.242188 2.046875 -4.691406 2.046875 -4.046875 C 2.046875 -3.398438 2.269531 -2.851562 2.71875 -2.40625 C 3.175781 -1.945312 3.726562 -1.71875 4.375 -1.71875 C 4.894531 -1.71875 5.359375 -1.875 5.765625 -2.1875 Z M 6.96875 -0.984375 "/></g></g></g><g fill="#916a58" fill-opacity="1"><g transform="translate(237.875091, 295.859277)"><g><path d="M 4.578125 -7.796875 L 6.453125 -7.796875 L 6.453125 0 L 4.578125 0 L 4.578125 -3.0625 L 2.234375 -3.0625 L 2.234375 0 L 0.359375 0 L 0.359375 -7.796875 L 2.234375 -7.796875 L 2.234375 -4.734375 L 4.578125 -4.734375 Z M 4.578125 -7.796875 "/></g></g></g><g fill="#916a58" fill-opacity="1"><g transform="translate(247.535094, 295.859277)"><g><path d="M 6.34375 0 L 5.78125 -1.09375 L 2.84375 -1.09375 L 2.28125 0 L 0.125 0 L 4.3125 -7.796875 L 8.515625 0 Z M 5.03125 -2.5625 L 4.3125 -3.921875 L 3.59375 -2.5625 Z M 5.03125 -2.5625 "/></g></g></g><g fill="#916a58" fill-opacity="1"><g transform="translate(259.007108, 295.859277)"><g><path d="M 5.453125 -7.796875 L 7.328125 -7.796875 L 7.328125 0 L 2.15625 -3.796875 L 2.15625 0 L 0.28125 0 L 0.28125 -7.796875 L 5.453125 -3.8125 Z M 5.453125 -7.796875 "/></g></g></g><g fill="#916a58" fill-opacity="1"><g transform="translate(269.471128, 295.859277)"><g><path d="M 5.453125 -7.796875 L 7.328125 -7.796875 L 7.328125 0 L 2.15625 -3.796875 L 2.15625 0 L 0.28125 0 L 0.28125 -7.796875 L 5.453125 -3.8125 Z M 5.453125 -7.796875 "/></g></g></g><g fill="#916a58" fill-opacity="1"><g transform="translate(279.935147, 295.859277)"><g><path d="M 2.234375 -3.0625 L 2.234375 -1.6875 L 5.8125 -1.6875 L 5.8125 0 L 0.359375 0 L 0.359375 -7.796875 L 5.8125 -7.796875 L 5.8125 -6.125 L 2.234375 -6.125 L 2.234375 -4.734375 L 5.265625 -4.734375 L 5.265625 -3.0625 Z M 2.234375 -3.0625 "/></g></g></g><g fill="#916a58" fill-opacity="1"><g transform="translate(288.947162, 295.859277)"><g><path d="M 2.234375 -1.6875 L 5.984375 -1.6875 L 5.984375 0 L 0.359375 0 L 0.359375 -7.796875 L 2.234375 -7.796875 Z M 2.234375 -1.6875 "/></g></g></g></svg>