<svg xmlns="http://www.w3.org/2000/svg" xmlns:xlink="http://www.w3.org/1999/xlink" width="500" zoomAndPan="magnify" viewBox="0 0 375 374.999991" height="500" preserveAspectRatio="xMidYMid meet" version="1.0"><defs><g/><linearGradient x1="0" gradientTransform="matrix(0.75, 0, 0, 0.75, 0.0000045, 0)" y1="250" x2="499.999979" gradientUnits="userSpaceOnUse" y2="250" id="7607cca0e4"><stop stop-opacity="1" stop-color="rgb(80.39856%, 100%, 84.698486%)" offset="0"/><stop stop-opacity="1" stop-color="rgb(80.311584%, 99.891663%, 84.757996%)" offset="0.0078125"/><stop stop-opacity="1" stop-color="rgb(80.136108%, 99.676514%, 84.87854%)" offset="0.015625"/><stop stop-opacity="1" stop-color="rgb(79.960632%, 99.461365%, 84.997559%)" offset="0.0234375"/><stop stop-opacity="1" stop-color="rgb(79.786682%, 99.246216%, 85.116577%)" offset="0.03125"/><stop stop-opacity="1" stop-color="rgb(79.611206%, 99.032593%, 85.237122%)" offset="0.0390625"/><stop stop-opacity="1" stop-color="rgb(79.43573%, 98.817444%, 85.35614%)" offset="0.046875"/><stop stop-opacity="1" stop-color="rgb(79.26178%, 98.602295%, 85.476685%)" offset="0.0546875"/><stop stop-opacity="1" stop-color="rgb(79.086304%, 98.387146%, 85.595703%)" offset="0.0625"/><stop stop-opacity="1" stop-color="rgb(78.910828%, 98.171997%, 85.714722%)" offset="0.0703125"/><stop stop-opacity="1" stop-color="rgb(78.736877%, 97.958374%, 85.835266%)" offset="0.078125"/><stop stop-opacity="1" stop-color="rgb(78.561401%, 97.743225%, 85.954285%)" offset="0.0859375"/><stop stop-opacity="1" stop-color="rgb(78.385925%, 97.528076%, 86.073303%)" offset="0.09375"/><stop stop-opacity="1" stop-color="rgb(78.211975%, 97.312927%, 86.193848%)" offset="0.101562"/><stop stop-opacity="1" stop-color="rgb(78.036499%, 97.097778%, 86.312866%)" offset="0.109375"/><stop stop-opacity="1" stop-color="rgb(77.861023%, 96.884155%, 86.431885%)" offset="0.117188"/><stop stop-opacity="1" stop-color="rgb(77.685547%, 96.669006%, 86.552429%)" offset="0.125"/><stop stop-opacity="1" stop-color="rgb(77.511597%, 96.453857%, 86.671448%)" offset="0.132812"/><stop stop-opacity="1" stop-color="rgb(77.336121%, 96.238708%, 86.790466%)" offset="0.140625"/><stop stop-opacity="1" stop-color="rgb(77.160645%, 96.02356%, 86.911011%)" offset="0.148437"/><stop stop-opacity="1" stop-color="rgb(76.986694%, 95.809937%, 87.030029%)" offset="0.15625"/><stop stop-opacity="1" stop-color="rgb(76.811218%, 95.594788%, 87.149048%)" offset="0.164062"/><stop stop-opacity="1" stop-color="rgb(76.635742%, 95.379639%, 87.269592%)" offset="0.171875"/><stop stop-opacity="1" stop-color="rgb(76.461792%, 95.16449%, 87.388611%)" offset="0.179687"/><stop stop-opacity="1" stop-color="rgb(76.286316%, 94.949341%, 87.507629%)" offset="0.1875"/><stop stop-opacity="1" stop-color="rgb(76.11084%, 94.735718%, 87.628174%)" offset="0.195312"/><stop stop-opacity="1" stop-color="rgb(75.93689%, 94.520569%, 87.747192%)" offset="0.203125"/><stop stop-opacity="1" stop-color="rgb(75.761414%, 94.30542%, 87.866211%)" offset="0.210938"/><stop stop-opacity="1" stop-color="rgb(75.585938%, 94.090271%, 87.986755%)" offset="0.21875"/><stop stop-opacity="1" stop-color="rgb(75.410461%, 93.875122%, 88.105774%)" offset="0.226562"/><stop stop-opacity="1" stop-color="rgb(75.236511%, 93.661499%, 88.224792%)" offset="0.234375"/><stop stop-opacity="1" stop-color="rgb(75.061035%, 93.44635%, 88.345337%)" offset="0.242188"/><stop stop-opacity="1" stop-color="rgb(74.885559%, 93.231201%, 88.464355%)" offset="0.25"/><stop stop-opacity="1" stop-color="rgb(74.711609%, 93.016052%, 88.583374%)" offset="0.257812"/><stop stop-opacity="1" stop-color="rgb(74.536133%, 92.800903%, 88.703918%)" offset="0.265625"/><stop stop-opacity="1" stop-color="rgb(74.360657%, 92.58728%, 88.822937%)" offset="0.273437"/><stop stop-opacity="1" stop-color="rgb(74.186707%, 92.372131%, 88.941956%)" offset="0.28125"/><stop stop-opacity="1" stop-color="rgb(74.01123%, 92.156982%, 89.0625%)" offset="0.289062"/><stop stop-opacity="1" stop-color="rgb(73.835754%, 91.941833%, 89.181519%)" offset="0.296875"/><stop stop-opacity="1" stop-color="rgb(73.661804%, 91.726685%, 89.300537%)" offset="0.304687"/><stop stop-opacity="1" stop-color="rgb(73.486328%, 91.513062%, 89.421082%)" offset="0.3125"/><stop stop-opacity="1" stop-color="rgb(73.310852%, 91.297913%, 89.5401%)" offset="0.320312"/><stop stop-opacity="1" stop-color="rgb(73.136902%, 91.082764%, 89.659119%)" offset="0.328125"/><stop stop-opacity="1" stop-color="rgb(72.961426%, 90.867615%, 89.779663%)" offset="0.335937"/><stop stop-opacity="1" stop-color="rgb(72.78595%, 90.652466%, 89.898682%)" offset="0.34375"/><stop stop-opacity="1" stop-color="rgb(72.610474%, 90.438843%, 90.0177%)" offset="0.351562"/><stop stop-opacity="1" stop-color="rgb(72.436523%, 90.223694%, 90.138245%)" offset="0.359375"/><stop stop-opacity="1" stop-color="rgb(72.261047%, 90.008545%, 90.257263%)" offset="0.367187"/><stop stop-opacity="1" stop-color="rgb(72.085571%, 89.793396%, 90.376282%)" offset="0.375"/><stop stop-opacity="1" stop-color="rgb(71.911621%, 89.578247%, 90.496826%)" offset="0.382812"/><stop stop-opacity="1" stop-color="rgb(71.736145%, 89.364624%, 90.615845%)" offset="0.390625"/><stop stop-opacity="1" stop-color="rgb(71.560669%, 89.149475%, 90.734863%)" offset="0.398438"/><stop stop-opacity="1" stop-color="rgb(71.386719%, 88.934326%, 90.855408%)" offset="0.40625"/><stop stop-opacity="1" stop-color="rgb(71.211243%, 88.719177%, 90.974426%)" offset="0.414062"/><stop stop-opacity="1" stop-color="rgb(71.035767%, 88.504028%, 91.093445%)" offset="0.421875"/><stop stop-opacity="1" stop-color="rgb(70.861816%, 88.290405%, 91.213989%)" offset="0.429688"/><stop stop-opacity="1" stop-color="rgb(70.68634%, 88.075256%, 91.333008%)" offset="0.4375"/><stop stop-opacity="1" stop-color="rgb(70.510864%, 87.860107%, 91.452026%)" offset="0.445312"/><stop stop-opacity="1" stop-color="rgb(70.336914%, 87.644958%, 91.572571%)" offset="0.453125"/><stop stop-opacity="1" stop-color="rgb(70.161438%, 87.42981%, 91.691589%)" offset="0.460938"/><stop stop-opacity="1" stop-color="rgb(69.985962%, 87.216187%, 91.810608%)" offset="0.46875"/><stop stop-opacity="1" stop-color="rgb(69.810486%, 87.001038%, 91.931152%)" offset="0.476562"/><stop stop-opacity="1" stop-color="rgb(69.636536%, 86.785889%, 92.050171%)" offset="0.484375"/><stop stop-opacity="1" stop-color="rgb(69.46106%, 86.57074%, 92.169189%)" offset="0.492188"/><stop stop-opacity="1" stop-color="rgb(69.285583%, 86.355591%, 92.289734%)" offset="0.5"/><stop stop-opacity="1" stop-color="rgb(69.111633%, 86.141968%, 92.408752%)" offset="0.507812"/><stop stop-opacity="1" stop-color="rgb(68.936157%, 85.926819%, 92.527771%)" offset="0.515625"/><stop stop-opacity="1" stop-color="rgb(68.760681%, 85.71167%, 92.648315%)" offset="0.523437"/><stop stop-opacity="1" stop-color="rgb(68.586731%, 85.496521%, 92.767334%)" offset="0.53125"/><stop stop-opacity="1" stop-color="rgb(68.411255%, 85.281372%, 92.886353%)" offset="0.539062"/><stop stop-opacity="1" stop-color="rgb(68.235779%, 85.067749%, 93.006897%)" offset="0.546875"/><stop stop-opacity="1" stop-color="rgb(68.061829%, 84.8526%, 93.125916%)" offset="0.554687"/><stop stop-opacity="1" stop-color="rgb(67.886353%, 84.637451%, 93.244934%)" offset="0.5625"/><stop stop-opacity="1" stop-color="rgb(67.710876%, 84.422302%, 93.365479%)" offset="0.570312"/><stop stop-opacity="1" stop-color="rgb(67.536926%, 84.207153%, 93.484497%)" offset="0.578125"/><stop stop-opacity="1" stop-color="rgb(67.36145%, 83.99353%, 93.603516%)" offset="0.585937"/><stop stop-opacity="1" stop-color="rgb(67.185974%, 83.778381%, 93.72406%)" offset="0.59375"/><stop stop-opacity="1" stop-color="rgb(67.010498%, 83.563232%, 93.843079%)" offset="0.601562"/><stop stop-opacity="1" stop-color="rgb(66.836548%, 83.348083%, 93.962097%)" offset="0.609375"/><stop stop-opacity="1" stop-color="rgb(66.661072%, 83.132935%, 94.082642%)" offset="0.617187"/><stop stop-opacity="1" stop-color="rgb(66.485596%, 82.919312%, 94.20166%)" offset="0.625"/><stop stop-opacity="1" stop-color="rgb(66.311646%, 82.704163%, 94.320679%)" offset="0.632812"/><stop stop-opacity="1" stop-color="rgb(66.136169%, 82.489014%, 94.441223%)" offset="0.640625"/><stop stop-opacity="1" stop-color="rgb(65.960693%, 82.273865%, 94.560242%)" offset="0.648437"/><stop stop-opacity="1" stop-color="rgb(65.786743%, 82.058716%, 94.67926%)" offset="0.65625"/><stop stop-opacity="1" stop-color="rgb(65.611267%, 81.845093%, 94.799805%)" offset="0.664062"/><stop stop-opacity="1" stop-color="rgb(65.435791%, 81.629944%, 94.918823%)" offset="0.671875"/><stop stop-opacity="1" stop-color="rgb(65.261841%, 81.414795%, 95.037842%)" offset="0.679687"/><stop stop-opacity="1" stop-color="rgb(65.086365%, 81.199646%, 95.158386%)" offset="0.6875"/><stop stop-opacity="1" stop-color="rgb(64.910889%, 80.984497%, 95.277405%)" offset="0.695312"/><stop stop-opacity="1" stop-color="rgb(64.736938%, 80.770874%, 95.396423%)" offset="0.703125"/><stop stop-opacity="1" stop-color="rgb(64.561462%, 80.555725%, 95.516968%)" offset="0.710937"/><stop stop-opacity="1" stop-color="rgb(64.385986%, 80.340576%, 95.635986%)" offset="0.71875"/><stop stop-opacity="1" stop-color="rgb(64.21051%, 80.125427%, 95.755005%)" offset="0.726562"/><stop stop-opacity="1" stop-color="rgb(64.03656%, 79.910278%, 95.875549%)" offset="0.734375"/><stop stop-opacity="1" stop-color="rgb(63.861084%, 79.696655%, 95.994568%)" offset="0.742187"/><stop stop-opacity="1" stop-color="rgb(63.685608%, 79.481506%, 96.113586%)" offset="0.75"/><stop stop-opacity="1" stop-color="rgb(63.511658%, 79.266357%, 96.234131%)" offset="0.757812"/><stop stop-opacity="1" stop-color="rgb(63.336182%, 79.051208%, 96.353149%)" offset="0.765625"/><stop stop-opacity="1" stop-color="rgb(63.160706%, 78.83606%, 96.472168%)" offset="0.773438"/><stop stop-opacity="1" stop-color="rgb(62.986755%, 78.622437%, 96.592712%)" offset="0.78125"/><stop stop-opacity="1" stop-color="rgb(62.811279%, 78.407288%, 96.711731%)" offset="0.789062"/><stop stop-opacity="1" stop-color="rgb(62.635803%, 78.192139%, 96.83075%)" offset="0.796875"/><stop stop-opacity="1" stop-color="rgb(62.461853%, 77.97699%, 96.951294%)" offset="0.804688"/><stop stop-opacity="1" stop-color="rgb(62.286377%, 77.761841%, 97.070312%)" offset="0.8125"/><stop stop-opacity="1" stop-color="rgb(62.110901%, 77.548218%, 97.189331%)" offset="0.820312"/><stop stop-opacity="1" stop-color="rgb(61.936951%, 77.333069%, 97.309875%)" offset="0.828125"/><stop stop-opacity="1" stop-color="rgb(61.761475%, 77.11792%, 97.428894%)" offset="0.835938"/><stop stop-opacity="1" stop-color="rgb(61.585999%, 76.902771%, 97.547913%)" offset="0.84375"/><stop stop-opacity="1" stop-color="rgb(61.410522%, 76.687622%, 97.668457%)" offset="0.851562"/><stop stop-opacity="1" stop-color="rgb(61.236572%, 76.473999%, 97.787476%)" offset="0.859375"/><stop stop-opacity="1" stop-color="rgb(61.061096%, 76.25885%, 97.906494%)" offset="0.867188"/><stop stop-opacity="1" stop-color="rgb(60.88562%, 76.043701%, 98.027039%)" offset="0.875"/><stop stop-opacity="1" stop-color="rgb(60.71167%, 75.828552%, 98.146057%)" offset="0.882812"/><stop stop-opacity="1" stop-color="rgb(60.536194%, 75.613403%, 98.265076%)" offset="0.890625"/><stop stop-opacity="1" stop-color="rgb(60.360718%, 75.39978%, 98.38562%)" offset="0.898438"/><stop stop-opacity="1" stop-color="rgb(60.186768%, 75.184631%, 98.504639%)" offset="0.90625"/><stop stop-opacity="1" stop-color="rgb(60.011292%, 74.969482%, 98.623657%)" offset="0.914062"/><stop stop-opacity="1" stop-color="rgb(59.835815%, 74.754333%, 98.744202%)" offset="0.921875"/><stop stop-opacity="1" stop-color="rgb(59.661865%, 74.539185%, 98.86322%)" offset="0.929688"/><stop stop-opacity="1" stop-color="rgb(59.486389%, 74.325562%, 98.982239%)" offset="0.9375"/><stop stop-opacity="1" stop-color="rgb(59.310913%, 74.110413%, 99.102783%)" offset="0.945312"/><stop stop-opacity="1" stop-color="rgb(59.136963%, 73.895264%, 99.221802%)" offset="0.953125"/><stop stop-opacity="1" stop-color="rgb(58.961487%, 73.680115%, 99.34082%)" offset="0.960938"/><stop stop-opacity="1" stop-color="rgb(58.786011%, 73.464966%, 99.461365%)" offset="0.96875"/><stop stop-opacity="1" stop-color="rgb(58.610535%, 73.251343%, 99.580383%)" offset="0.976562"/><stop stop-opacity="1" stop-color="rgb(58.436584%, 73.036194%, 99.699402%)" offset="0.984375"/><stop stop-opacity="1" stop-color="rgb(58.261108%, 72.821045%, 99.819946%)" offset="0.992188"/><stop stop-opacity="1" stop-color="rgb(58.085632%, 72.605896%, 99.938965%)" offset="1"/></linearGradient><clipPath id="5557682da7"><path d="M 50.34375 22 L 325 22 L 325 258 L 50.34375 258 Z M 50.34375 22 " clip-rule="nonzero"/></clipPath></defs><rect x="-37.5" width="450" fill="#ffffff" y="-37.499999" height="449.999989" fill-opacity="1"/><rect x="-37.5" fill="url(#7607cca0e4)" width="450" y="-37.499999" height="449.999989"/><g clip-path="url(#5557682da7)"><path fill="#0cc0df" d="M 75.527344 201.753906 C 74.898438 200.085938 74.304688 198.40625 73.75 196.710938 C 73.195312 195.015625 72.675781 193.3125 72.195312 191.59375 C 71.71875 189.875 71.277344 188.148438 70.875 186.414062 C 70.472656 184.675781 70.109375 182.929688 69.785156 181.175781 C 69.460938 179.425781 69.175781 177.664062 68.929688 175.898438 C 68.683594 174.132812 68.480469 172.363281 68.3125 170.585938 C 68.144531 168.8125 68.019531 167.035156 67.933594 165.253906 C 67.84375 163.472656 67.796875 161.691406 67.789062 159.90625 C 67.785156 158.125 67.816406 156.339844 67.886719 154.558594 C 67.960938 152.777344 68.070312 151 68.222656 149.222656 C 68.375 147.445312 68.566406 145.675781 68.796875 143.90625 C 69.027344 142.136719 69.300781 140.375 69.609375 138.621094 C 69.917969 136.863281 70.265625 135.117188 70.65625 133.375 C 71.042969 131.636719 71.46875 129.90625 71.933594 128.183594 C 72.398438 126.460938 72.902344 124.753906 73.445312 123.054688 C 73.984375 121.355469 74.5625 119.667969 75.179688 117.996094 C 75.796875 116.324219 76.453125 114.664062 77.140625 113.019531 C 77.832031 111.378906 78.558594 109.75 79.324219 108.140625 C 80.085938 106.527344 80.886719 104.933594 81.722656 103.359375 C 82.554688 101.785156 83.425781 100.226562 84.328125 98.691406 C 85.234375 97.152344 86.171875 95.636719 87.144531 94.144531 C 88.117188 92.648438 89.121094 91.175781 90.160156 89.726562 C 91.195312 88.277344 92.265625 86.851562 93.367188 85.449219 C 94.46875 84.046875 95.601562 82.671875 96.765625 81.320312 C 97.925781 79.96875 99.121094 78.640625 100.34375 77.34375 C 101.566406 76.046875 102.816406 74.777344 104.09375 73.535156 C 105.371094 72.292969 106.679688 71.078125 108.011719 69.894531 C 109.34375 68.710938 110.703125 67.554688 112.089844 66.433594 C 113.472656 65.308594 114.882812 64.21875 116.316406 63.15625 C 117.75 62.097656 119.207031 61.070312 120.683594 60.074219 C 122.164062 59.078125 123.664062 58.117188 125.1875 57.191406 C 126.710938 56.261719 128.253906 55.367188 129.816406 54.507812 C 131.378906 53.648438 132.957031 52.824219 134.558594 52.035156 C 136.15625 51.25 137.773438 50.496094 139.40625 49.78125 C 141.039062 49.0625 142.683594 48.382812 144.347656 47.742188 C 146.011719 47.097656 147.6875 46.492188 149.378906 45.925781 C 151.066406 45.355469 152.769531 44.828125 154.484375 44.335938 C 156.199219 43.84375 157.921875 43.390625 159.65625 42.976562 C 161.390625 42.558594 163.132812 42.183594 164.882812 41.847656 C 166.632812 41.511719 168.390625 41.210938 170.15625 40.953125 C 171.917969 40.695312 173.6875 40.476562 175.460938 40.296875 C 177.238281 40.117188 179.015625 39.976562 180.792969 39.878906 C 182.574219 39.777344 184.355469 39.71875 186.136719 39.699219 C 187.921875 39.675781 189.703125 39.695312 191.484375 39.753906 C 193.269531 39.816406 195.046875 39.914062 196.824219 40.050781 C 198.601562 40.191406 200.375 40.371094 202.144531 40.585938 C 203.914062 40.804688 205.679688 41.0625 207.4375 41.359375 C 209.195312 41.65625 210.945312 41.992188 212.6875 42.367188 C 214.433594 42.742188 216.167969 43.15625 217.890625 43.609375 C 219.617188 44.0625 221.328125 44.550781 223.03125 45.082031 C 224.734375 45.609375 226.425781 46.175781 228.101562 46.78125 C 229.777344 47.386719 231.441406 48.027344 233.089844 48.707031 C 234.738281 49.386719 236.371094 50.101562 237.988281 50.851562 C 239.605469 51.605469 241.203125 52.390625 242.785156 53.214844 C 244.367188 54.039062 245.929688 54.894531 247.472656 55.789062 C 249.015625 56.683594 250.539062 57.609375 252.042969 58.570312 C 253.542969 59.53125 255.023438 60.523438 256.480469 61.550781 C 257.9375 62.578125 259.371094 63.640625 260.78125 64.730469 C 262.191406 65.820312 263.574219 66.945312 264.9375 68.097656 C 266.296875 69.25 267.628906 70.433594 268.9375 71.644531 C 270.242188 72.859375 271.523438 74.097656 272.773438 75.367188 C 274.027344 76.640625 275.25 77.9375 276.441406 79.261719 C 277.636719 80.585938 278.800781 81.933594 279.933594 83.3125 C 281.066406 84.6875 282.167969 86.089844 283.238281 87.515625 C 284.308594 88.941406 285.347656 90.390625 286.355469 91.863281 C 287.359375 93.332031 288.332031 94.828125 289.273438 96.34375 C 290.210938 97.859375 291.117188 99.394531 291.988281 100.949219 C 292.855469 102.507812 293.691406 104.082031 294.492188 105.675781 C 295.292969 107.265625 296.058594 108.878906 296.785156 110.503906 C 297.515625 112.132812 298.207031 113.777344 298.859375 115.433594 C 299.515625 117.09375 300.132812 118.765625 300.714844 120.449219 C 301.292969 122.136719 301.835938 123.835938 302.339844 125.542969 C 302.84375 127.253906 303.308594 128.976562 303.738281 130.707031 C 304.164062 132.4375 304.554688 134.175781 304.902344 135.925781 C 305.253906 137.671875 305.5625 139.429688 305.835938 141.191406 C 306.105469 142.953125 306.339844 144.71875 306.53125 146.492188 C 306.722656 148.265625 306.875 150.042969 306.988281 151.820312 C 307.101562 153.601562 307.175781 155.382812 307.207031 157.164062 C 307.242188 158.945312 307.234375 160.730469 307.191406 162.511719 C 307.144531 164.292969 307.058594 166.074219 306.933594 167.851562 C 306.804688 169.632812 306.640625 171.40625 306.433594 173.179688 C 306.230469 174.949219 305.984375 176.714844 305.703125 178.476562 C 305.417969 180.234375 305.09375 181.988281 304.734375 183.734375 C 304.371094 185.480469 303.96875 187.214844 303.53125 188.945312 C 303.089844 190.671875 302.613281 192.390625 302.09375 194.097656 C 301.578125 195.800781 301.023438 197.496094 300.429688 199.179688 C 299.839844 200.859375 299.210938 202.527344 298.542969 204.179688 C 297.875 205.835938 297.171875 207.472656 296.433594 209.09375 C 295.691406 210.71875 294.917969 212.320312 294.105469 213.910156 C 293.292969 215.496094 292.445312 217.066406 291.566406 218.617188 C 290.683594 220.164062 289.769531 221.695312 288.816406 223.203125 C 287.867188 224.710938 286.882812 226.199219 285.867188 227.664062 C 284.851562 229.128906 283.800781 230.570312 282.722656 231.988281 C 281.640625 233.40625 280.527344 234.796875 279.386719 236.167969 C 278.242188 237.535156 277.070312 238.878906 275.867188 240.195312 C 274.664062 241.507812 273.429688 242.796875 272.171875 244.058594 C 271.992188 244.234375 271.800781 244.394531 271.625 244.570312 C 271.886719 244.976562 272.152344 245.382812 272.382812 245.816406 C 272.613281 246.246094 272.824219 246.695312 273.019531 247.191406 C 274.246094 247.527344 275.417969 248.003906 276.535156 248.617188 C 277.652344 249.234375 278.679688 249.96875 279.621094 250.828125 C 280.5625 251.6875 281.390625 252.640625 282.105469 253.695312 C 282.820312 254.75 283.40625 255.875 283.855469 257.066406 C 285.855469 255.089844 287.792969 253.058594 289.671875 250.964844 C 291.546875 248.871094 293.355469 246.71875 295.101562 244.515625 C 296.847656 242.3125 298.519531 240.054688 300.125 237.746094 C 301.730469 235.4375 303.265625 233.082031 304.726562 230.679688 C 306.1875 228.277344 307.570312 225.835938 308.882812 223.347656 C 310.191406 220.859375 311.425781 218.335938 312.582031 215.769531 C 313.734375 213.207031 314.808594 210.613281 315.804688 207.984375 C 316.800781 205.351562 317.714844 202.695312 318.546875 200.011719 C 319.378906 197.324219 320.128906 194.617188 320.792969 191.886719 C 321.460938 189.152344 322.039062 186.40625 322.535156 183.636719 C 323.035156 180.871094 323.445312 178.089844 323.769531 175.296875 C 324.09375 172.503906 324.335938 169.707031 324.488281 166.898438 C 324.640625 164.089844 324.710938 161.28125 324.691406 158.46875 C 324.671875 155.660156 324.566406 152.851562 324.371094 150.046875 C 324.179688 147.242188 323.902344 144.445312 323.539062 141.65625 C 323.175781 138.871094 322.726562 136.09375 322.191406 133.335938 C 321.65625 130.574219 321.039062 127.832031 320.335938 125.113281 C 319.632812 122.390625 318.847656 119.691406 317.976562 117.019531 C 317.109375 114.34375 316.160156 111.699219 315.128906 109.085938 C 314.097656 106.46875 312.984375 103.886719 311.796875 101.339844 C 310.605469 98.792969 309.335938 96.285156 307.992188 93.816406 C 306.648438 91.347656 305.230469 88.921875 303.738281 86.539062 C 302.242188 84.15625 300.675781 81.824219 299.039062 79.539062 C 297.402344 77.253906 295.699219 75.019531 293.921875 72.839844 C 292.148438 70.65625 290.308594 68.535156 288.40625 66.464844 C 286.5 64.398438 284.535156 62.390625 282.503906 60.445312 C 280.476562 58.496094 278.390625 56.613281 276.246094 54.796875 C 274.101562 52.976562 271.90625 51.226562 269.652344 49.542969 C 267.402344 47.859375 265.097656 46.246094 262.75 44.707031 C 260.398438 43.164062 258 41.695312 255.5625 40.300781 C 253.121094 38.90625 250.636719 37.589844 248.117188 36.347656 C 245.59375 35.105469 243.035156 33.941406 240.441406 32.855469 C 237.847656 31.773438 235.222656 30.769531 232.566406 29.84375 C 229.914062 28.921875 227.230469 28.082031 224.523438 27.324219 C 221.816406 26.5625 219.089844 25.890625 216.339844 25.296875 C 213.589844 24.707031 210.828125 24.203125 208.046875 23.78125 C 205.269531 23.359375 202.476562 23.027344 199.675781 22.777344 C 196.878906 22.527344 194.070312 22.363281 191.261719 22.289062 C 188.449219 22.210938 185.640625 22.222656 182.832031 22.316406 C 180.019531 22.414062 177.21875 22.59375 174.417969 22.863281 C 171.621094 23.132812 168.832031 23.488281 166.054688 23.925781 C 163.277344 24.367188 160.519531 24.890625 157.773438 25.5 C 155.027344 26.109375 152.304688 26.804688 149.605469 27.582031 C 146.902344 28.359375 144.226562 29.21875 141.578125 30.160156 C 138.929688 31.101562 136.3125 32.121094 133.726562 33.222656 C 131.136719 34.328125 128.589844 35.507812 126.074219 36.765625 C 123.5625 38.027344 121.089844 39.363281 118.65625 40.773438 C 116.226562 42.183594 113.839844 43.667969 111.5 45.226562 C 109.160156 46.785156 106.871094 48.414062 104.628906 50.113281 C 102.390625 51.8125 100.203125 53.578125 98.070312 55.410156 C 95.941406 57.242188 93.867188 59.140625 91.851562 61.101562 C 89.835938 63.0625 87.886719 65.082031 85.996094 67.164062 C 84.105469 69.246094 82.277344 71.382812 80.519531 73.574219 C 78.761719 75.765625 77.070312 78.011719 75.449219 80.308594 C 73.828125 82.605469 72.277344 84.949219 70.800781 87.34375 C 69.324219 89.734375 67.921875 92.167969 66.59375 94.648438 C 65.265625 97.125 64.015625 99.644531 62.84375 102.199219 C 61.671875 104.753906 60.578125 107.34375 59.566406 109.964844 C 58.550781 112.585938 57.621094 115.238281 56.769531 117.917969 C 55.917969 120.597656 55.152344 123.300781 54.46875 126.027344 C 53.785156 128.753906 53.183594 131.5 52.667969 134.261719 C 52.152344 137.027344 51.722656 139.804688 51.378906 142.59375 C 51.035156 145.386719 50.773438 148.183594 50.601562 150.988281 C 50.429688 153.796875 50.34375 156.605469 50.34375 159.414062 C 50.347656 167.085938 50.980469 174.703125 52.25 182.269531 C 59.269531 189.652344 67.027344 196.144531 75.527344 201.753906 Z M 75.527344 201.753906 " fill-opacity="1" fill-rule="nonzero"/></g><path fill="#7ed957" d="M 261.351562 260.746094 C 268.347656 250.835938 260.144531 241.074219 246.246094 253.429688 C 253.03125 245.347656 247.664062 235.269531 237.421875 240.484375 C 230.484375 244.015625 227.855469 249.148438 217.398438 255.554688 C 193.449219 270.214844 164.953125 262.773438 157.523438 255.34375 C 175.695312 253.492188 186.839844 248.328125 197.164062 239.242188 C 205.476562 231.925781 203.789062 213.808594 172.394531 227.265625 C 123.242188 248.363281 71.628906 220.285156 53.933594 193.628906 C 54.644531 196.386719 55.433594 199.121094 56.3125 201.828125 C 57.1875 204.539062 58.148438 207.21875 59.191406 209.871094 C 60.234375 212.519531 61.359375 215.136719 62.5625 217.714844 C 63.769531 220.296875 65.050781 222.835938 66.414062 225.339844 C 67.777344 227.839844 69.214844 230.296875 70.730469 232.707031 C 72.246094 235.121094 73.832031 237.484375 75.492188 239.796875 C 77.152344 242.109375 78.882812 244.371094 80.6875 246.578125 C 82.488281 248.78125 84.355469 250.929688 86.289062 253.023438 C 88.222656 255.113281 90.21875 257.140625 92.277344 259.109375 C 94.339844 261.074219 96.457031 262.976562 98.636719 264.8125 C 100.8125 266.648438 103.046875 268.414062 105.332031 270.113281 C 107.617188 271.808594 109.957031 273.433594 112.34375 274.988281 C 114.730469 276.539062 117.164062 278.015625 119.644531 279.417969 C 122.125 280.820312 124.644531 282.144531 127.203125 283.390625 C 129.765625 284.636719 132.363281 285.800781 134.996094 286.882812 C 137.628906 287.96875 140.292969 288.972656 142.992188 289.890625 C 145.6875 290.8125 148.40625 291.644531 151.15625 292.398438 C 153.902344 293.148438 156.667969 293.8125 159.457031 294.394531 C 162.246094 294.972656 165.050781 295.464844 167.871094 295.871094 C 170.6875 296.277344 173.515625 296.59375 176.355469 296.824219 C 179.195312 297.054688 182.039062 297.199219 184.886719 297.253906 C 187.734375 297.308594 190.578125 297.273438 193.425781 297.152344 C 196.269531 297.03125 199.109375 296.820312 201.941406 296.523438 C 204.773438 296.222656 207.59375 295.839844 210.402344 295.367188 C 213.210938 294.894531 216.003906 294.335938 218.777344 293.691406 C 221.550781 293.042969 224.300781 292.3125 227.03125 291.496094 C 229.757812 290.679688 232.460938 289.78125 235.132812 288.796875 C 237.804688 287.816406 240.445312 286.75 243.054688 285.601562 C 245.660156 284.457031 248.230469 283.230469 250.757812 281.921875 C 253.289062 280.617188 255.777344 279.234375 258.222656 277.773438 C 260.667969 276.3125 263.066406 274.78125 265.417969 273.171875 C 267.765625 271.5625 270.066406 269.882812 272.3125 268.132812 C 278.664062 262.6875 271.171875 250.96875 261.351562 260.746094 Z M 261.351562 260.746094 " fill-opacity="1" fill-rule="nonzero"/><path fill="#7ed957" d="M 225.144531 236.074219 C 214.847656 241.226562 205.671875 227.105469 214.769531 220.039062 L 215.015625 219.851562 C 238.980469 201.488281 250.460938 186.25 255.070312 178.421875 C 259.984375 170.09375 250.347656 165.539062 246.246094 170.738281 C 235.9375 183.839844 205.953125 199.75 189.363281 199.019531 C 190.488281 198.925781 191.609375 198.769531 192.71875 198.558594 C 193.832031 198.34375 194.925781 198.070312 196.007812 197.742188 C 197.089844 197.410156 198.152344 197.023438 199.191406 196.578125 C 200.234375 196.136719 201.246094 195.636719 202.234375 195.085938 C 203.222656 194.53125 204.175781 193.929688 205.097656 193.273438 C 206.023438 192.621094 206.90625 191.917969 207.753906 191.167969 C 208.601562 190.421875 209.410156 189.628906 210.171875 188.792969 C 210.933594 187.957031 211.652344 187.085938 212.320312 186.171875 C 212.992188 185.261719 213.609375 184.316406 214.179688 183.339844 C 214.75 182.359375 215.265625 181.355469 215.726562 180.324219 C 216.1875 179.289062 216.59375 178.234375 216.941406 177.160156 C 217.289062 176.082031 217.582031 174.992188 217.8125 173.886719 C 218.046875 172.777344 218.21875 171.660156 218.332031 170.535156 C 218.445312 169.410156 218.496094 168.28125 218.488281 167.152344 C 218.480469 166.019531 218.414062 164.890625 218.285156 163.765625 C 218.160156 162.644531 217.972656 161.53125 217.722656 160.425781 C 217.476562 159.320312 217.171875 158.234375 216.808594 157.164062 C 216.445312 156.089844 216.027344 155.042969 215.550781 154.015625 C 215.074219 152.988281 214.546875 151.992188 213.964844 151.019531 C 213.382812 150.050781 212.75 149.113281 212.070312 148.210938 C 211.386719 147.308594 210.660156 146.445312 209.886719 145.621094 C 209.109375 144.796875 208.296875 144.015625 207.4375 143.277344 C 206.578125 142.539062 205.683594 141.847656 204.753906 141.207031 C 203.824219 140.566406 202.859375 139.972656 201.863281 139.433594 C 200.871094 138.894531 199.851562 138.410156 198.804688 137.980469 C 197.757812 137.550781 196.691406 137.175781 195.605469 136.859375 C 194.519531 136.542969 193.417969 136.285156 192.304688 136.089844 C 191.191406 135.890625 190.070312 135.75 188.941406 135.671875 C 187.8125 135.59375 186.683594 135.574219 185.554688 135.613281 C 184.421875 135.65625 183.296875 135.757812 182.179688 135.921875 C 181.058594 136.082031 179.953125 136.304688 178.855469 136.582031 C 177.757812 136.863281 176.679688 137.199219 175.621094 137.597656 C 174.5625 137.992188 173.527344 138.441406 172.515625 138.949219 C 171.503906 139.453125 170.519531 140.011719 169.566406 140.625 C 168.617188 141.234375 167.699219 141.894531 166.816406 142.601562 C 165.933594 143.3125 165.09375 144.066406 164.292969 144.863281 C 163.492188 145.664062 162.734375 146.503906 162.023438 147.382812 C 161.3125 148.261719 160.648438 149.175781 160.035156 150.125 C 159.421875 151.078125 158.859375 152.058594 158.351562 153.066406 C 157.84375 154.078125 157.390625 155.113281 156.992188 156.171875 C 156.59375 157.230469 156.25 158.308594 155.96875 159.402344 C 155.683594 160.496094 155.460938 161.605469 155.296875 162.722656 C 155.128906 163.84375 155.023438 164.96875 154.980469 166.097656 C 154.933594 167.226562 154.949219 168.359375 155.027344 169.488281 C 155.101562 170.617188 155.238281 171.738281 155.433594 172.851562 C 155.628906 173.964844 155.882812 175.066406 156.195312 176.152344 C 156.507812 177.238281 156.878906 178.308594 157.304688 179.355469 C 157.734375 180.402344 158.214844 181.425781 158.75 182.421875 C 154.945312 180.320312 151.34375 177.921875 147.9375 175.226562 C 144.527344 172.53125 141.367188 169.574219 138.453125 166.351562 C 135.535156 163.132812 132.902344 159.695312 130.558594 156.039062 C 128.210938 152.382812 126.179688 148.554688 124.46875 144.5625 C 122.429688 139.835938 115.28125 141.917969 115.988281 147 C 118.972656 168.566406 131.597656 183.179688 140.820312 201.796875 C 142.53125 205.308594 143.847656 208.960938 144.765625 212.757812 C 147.078125 222.148438 135.941406 228.738281 128.878906 222.128906 C 127.46875 220.8125 126.105469 219.449219 124.789062 218.039062 C 123.472656 216.625 122.203125 215.171875 120.988281 213.675781 C 119.769531 212.179688 118.601562 210.644531 117.488281 209.066406 C 116.375 207.492188 115.316406 205.878906 114.308594 204.230469 C 113.304688 202.582031 112.359375 200.902344 111.46875 199.191406 C 110.578125 197.476562 109.746094 195.738281 108.976562 193.96875 C 108.203125 192.199219 107.492188 190.40625 106.84375 188.589844 C 106.195312 186.769531 105.605469 184.933594 105.082031 183.078125 C 104.554688 181.21875 104.09375 179.347656 103.699219 177.457031 C 103.300781 175.570312 102.96875 173.667969 102.699219 171.757812 C 102.429688 169.847656 102.226562 167.929688 102.089844 166.003906 C 101.949219 164.078125 101.878906 162.152344 101.871094 160.222656 C 101.863281 158.292969 101.921875 156.363281 102.046875 154.4375 C 102.171875 152.511719 102.359375 150.589844 102.613281 148.679688 C 102.871094 146.765625 103.1875 144.863281 103.574219 142.972656 C 103.957031 141.082031 104.402344 139.203125 104.914062 137.34375 C 105.425781 135.480469 106 133.640625 106.636719 131.820312 C 107.273438 129.996094 107.972656 128.199219 108.730469 126.425781 C 109.488281 124.648438 110.308594 122.902344 111.1875 121.183594 C 112.0625 119.464844 113 117.777344 113.992188 116.121094 C 114.984375 114.46875 116.03125 112.847656 117.132812 111.261719 C 118.234375 109.679688 119.390625 108.132812 120.597656 106.628906 C 121.804688 105.125 123.0625 103.660156 124.371094 102.242188 C 125.675781 100.820312 127.03125 99.445312 128.429688 98.117188 C 129.832031 96.789062 131.273438 95.511719 132.761719 94.28125 C 134.25 93.050781 135.777344 91.875 137.34375 90.746094 C 138.910156 89.621094 140.515625 88.550781 142.15625 87.53125 C 143.796875 86.515625 145.46875 85.554688 147.175781 84.652344 C 148.878906 83.75 150.613281 82.90625 152.378906 82.121094 C 154.140625 81.332031 155.929688 80.609375 157.742188 79.945312 C 159.550781 79.28125 161.386719 78.679688 163.238281 78.140625 C 165.089844 77.601562 166.960938 77.125 168.847656 76.714844 C 169.203125 74.683594 169.726562 72.703125 170.425781 70.765625 C 170.808594 69.722656 171.242188 68.695312 171.722656 67.691406 C 172.203125 66.691406 172.730469 65.710938 173.304688 64.757812 C 173.878906 63.804688 174.496094 62.878906 175.160156 61.984375 C 175.820312 61.09375 176.523438 60.230469 177.269531 59.402344 C 178.011719 58.574219 178.792969 57.785156 179.613281 57.03125 C 180.433594 56.28125 181.285156 55.566406 182.171875 54.894531 C 183.058594 54.226562 183.976562 53.597656 184.925781 53.011719 C 185.871094 52.429688 186.84375 51.890625 187.84375 51.398438 C 188.839844 50.90625 189.859375 50.464844 190.902344 50.070312 C 191.941406 49.675781 193 49.332031 194.074219 49.039062 C 195.144531 48.746094 196.230469 48.503906 197.328125 48.3125 C 198.425781 48.121094 199.527344 47.984375 200.636719 47.898438 C 201.746094 47.816406 202.855469 47.78125 203.96875 47.804688 C 205.082031 47.824219 206.191406 47.898438 207.296875 48.023438 C 208.402344 48.152344 209.5 48.328125 210.589844 48.558594 C 211.675781 48.792969 212.753906 49.074219 213.8125 49.40625 C 214.875 49.742188 215.917969 50.125 216.945312 50.554688 C 217.96875 50.988281 218.972656 51.46875 219.949219 52 C 220.929688 52.527344 221.882812 53.101562 222.808594 53.71875 C 223.730469 54.339844 224.625 55 225.484375 55.703125 C 226.347656 56.410156 227.175781 57.152344 227.964844 57.9375 C 228.753906 58.71875 229.507812 59.539062 230.21875 60.390625 C 230.933594 61.246094 231.601562 62.132812 232.230469 63.050781 C 232.859375 63.96875 233.441406 64.917969 233.980469 65.890625 C 234.519531 66.863281 235.007812 67.863281 235.453125 68.882812 C 235.894531 69.902344 236.289062 70.945312 236.632812 72.003906 C 236.976562 73.058594 237.269531 74.132812 237.511719 75.21875 C 237.753906 76.304688 237.941406 77.398438 238.082031 78.503906 C 238.21875 79.609375 238.300781 80.71875 238.335938 81.828125 C 238.367188 82.941406 238.34375 84.054688 238.269531 85.164062 C 238.195312 86.273438 238.070312 87.378906 237.890625 88.476562 C 237.710938 89.574219 237.480469 90.664062 237.195312 91.738281 C 236.914062 92.816406 236.582031 93.875 236.195312 94.917969 C 235.8125 95.964844 235.378906 96.988281 234.898438 97.992188 C 234.417969 98.996094 233.886719 99.972656 233.3125 100.925781 C 232.738281 101.878906 232.121094 102.800781 231.457031 103.695312 C 230.792969 104.589844 230.089844 105.449219 229.34375 106.277344 C 228.601562 107.101562 227.816406 107.894531 227 108.644531 C 226.179688 109.398438 225.324219 110.109375 224.4375 110.78125 C 223.546875 111.449219 222.632812 112.078125 221.683594 112.660156 C 220.734375 113.246094 219.761719 113.78125 218.765625 114.273438 C 217.765625 114.761719 216.746094 115.207031 215.703125 115.597656 C 214.664062 115.992188 213.605469 116.335938 212.53125 116.628906 C 211.457031 116.921875 210.375 117.164062 209.277344 117.351562 C 208.179688 117.539062 207.078125 117.679688 205.96875 117.761719 C 204.859375 117.847656 203.746094 117.878906 202.632812 117.855469 C 201.523438 117.835938 200.414062 117.761719 199.308594 117.632812 C 198.203125 117.503906 197.105469 117.324219 196.015625 117.09375 C 196.015625 117.191406 196.015625 117.03125 196.015625 117.09375 C 197.152344 117.542969 198.308594 117.941406 199.484375 118.285156 C 200.65625 118.628906 201.84375 118.921875 203.042969 119.164062 C 204.242188 119.402344 205.449219 119.589844 206.664062 119.71875 C 207.882812 119.851562 209.101562 119.929688 210.324219 119.953125 C 211.546875 119.972656 212.769531 119.941406 213.988281 119.855469 C 215.210938 119.769531 216.421875 119.628906 217.628906 119.433594 C 218.839844 119.238281 220.035156 118.992188 221.21875 118.6875 C 222.40625 118.386719 223.574219 118.035156 224.730469 117.628906 C 225.882812 117.222656 227.015625 116.765625 228.128906 116.257812 C 229.242188 115.75 230.328125 115.195312 231.394531 114.589844 C 232.457031 113.984375 233.492188 113.332031 234.496094 112.636719 C 235.5 111.9375 236.472656 111.199219 237.410156 110.414062 C 238.351562 109.632812 239.253906 108.808594 240.117188 107.941406 C 240.984375 107.078125 241.808594 106.175781 242.59375 105.238281 C 243.378906 104.300781 244.121094 103.328125 244.816406 102.324219 C 245.515625 101.320312 246.167969 100.285156 246.773438 99.222656 C 247.976562 100.40625 249.140625 101.625 250.269531 102.875 C 251.398438 104.128906 252.488281 105.414062 253.542969 106.730469 C 254.59375 108.046875 255.605469 109.394531 256.582031 110.769531 C 257.554688 112.148438 258.484375 113.554688 259.375 114.984375 C 260.261719 116.417969 261.109375 117.875 261.910156 119.359375 C 262.714844 120.839844 263.472656 122.34375 264.183594 123.871094 C 264.898438 125.398438 265.566406 126.949219 266.1875 128.515625 C 266.808594 130.082031 267.382812 131.667969 267.910156 133.269531 C 268.4375 134.867188 268.917969 136.484375 269.347656 138.113281 C 269.78125 139.746094 270.164062 141.386719 270.496094 143.039062 C 270.832031 144.691406 271.117188 146.351562 271.351562 148.019531 C 271.585938 149.691406 271.773438 151.363281 271.910156 153.046875 C 272.042969 154.726562 272.128906 156.410156 272.167969 158.09375 C 272.203125 159.78125 272.1875 161.464844 272.125 163.148438 C 272.058594 164.835938 271.945312 166.515625 271.78125 168.195312 C 271.617188 169.871094 271.40625 171.542969 271.140625 173.207031 C 270.878906 174.875 270.566406 176.53125 270.203125 178.175781 C 269.84375 179.824219 269.433594 181.457031 268.972656 183.082031 C 268.515625 184.703125 268.007812 186.308594 267.457031 187.902344 C 266.902344 189.496094 266.300781 191.070312 265.652344 192.625 C 265.003906 194.183594 264.3125 195.71875 263.574219 197.234375 C 262.835938 198.75 262.050781 200.242188 261.226562 201.710938 C 260.398438 203.179688 259.527344 204.621094 258.613281 206.039062 C 257.699219 207.457031 256.746094 208.847656 255.75 210.207031 C 254.753906 211.566406 253.71875 212.898438 252.644531 214.195312 C 251.570312 215.496094 250.460938 216.761719 249.308594 217.996094 C 248.160156 219.226562 246.976562 220.425781 245.753906 221.589844 C 244.53125 222.75 243.277344 223.875 241.992188 224.964844 C 240.703125 226.054688 239.382812 227.101562 238.035156 228.113281 C 236.683594 229.121094 235.304688 230.089844 233.898438 231.019531 C 232.492188 231.949219 231.058594 232.832031 229.597656 233.675781 C 228.136719 234.519531 226.652344 235.316406 225.144531 236.074219 Z M 225.144531 236.074219 " fill-opacity="1" fill-rule="nonzero"/><g fill="#00bf63" fill-opacity="0.4"><g transform="translate(145.791523, 344.734489)"><g><path d="M 17.375 -25.609375 L 23.09375 -25.609375 L 23.09375 -10.84375 C 23.09375 -7.632812 21.882812 -4.96875 19.46875 -2.84375 C 17.289062 -0.945312 14.832031 0 12.09375 0 C 9.46875 0 7.078125 -0.921875 4.921875 -2.765625 C 2.429688 -4.859375 1.1875 -7.578125 1.1875 -10.921875 L 1.1875 -25.609375 L 6.890625 -25.609375 L 6.890625 -10.921875 C 6.890625 -9.335938 7.457031 -8.070312 8.59375 -7.125 C 9.113281 -6.65625 9.726562 -6.300781 10.4375 -6.0625 C 11.039062 -5.832031 11.59375 -5.71875 12.09375 -5.71875 C 12.570312 -5.71875 13.164062 -5.832031 13.875 -6.0625 C 14.65625 -6.382812 15.269531 -6.753906 15.71875 -7.171875 C 16.300781 -7.691406 16.707031 -8.21875 16.9375 -8.75 C 17.226562 -9.320312 17.375 -10.019531 17.375 -10.84375 Z M 17.375 -25.609375 "/></g></g></g><g fill="#00bf63" fill-opacity="0.4"><g transform="translate(170.060961, 344.734489)"><g><path d="M 6.703125 -27.390625 L 6.703125 0 L 1.1875 0 L 1.1875 -27.390625 Z M 6.703125 -27.390625 "/></g></g></g><g fill="#00bf63" fill-opacity="0.4"><g transform="translate(177.940652, 344.734489)"><g><path d="M 6.65625 -27.46875 L 6.65625 -22.8125 L 1.1875 -22.8125 L 1.1875 -27.46875 Z M 6.703125 -20.25 L 6.703125 0 L 1.1875 0 L 1.1875 -20.25 Z M 6.703125 -20.25 "/></g></g></g><g fill="#00bf63" fill-opacity="0.4"><g transform="translate(185.820344, 344.734489)"><g><path d="M 9.375 0 C 8.007812 0 6.816406 -0.207031 5.796875 -0.625 C 4.984375 -0.914062 4.140625 -1.457031 3.265625 -2.25 C 1.773438 -3.632812 1.09375 -5.394531 1.21875 -7.53125 L 1.21875 -7.953125 L 5.640625 -7.875 L 5.984375 -7.875 L 5.984375 -7.5625 C 6.015625 -6.90625 6.160156 -6.367188 6.421875 -5.953125 C 6.867188 -5.191406 7.851562 -4.8125 9.375 -4.8125 C 10.632812 -4.8125 11.539062 -4.953125 12.09375 -5.234375 C 12.382812 -5.367188 12.582031 -5.539062 12.6875 -5.75 C 12.738281 -5.832031 12.765625 -5.910156 12.765625 -5.984375 L 12.8125 -6.1875 C 12.8125 -6.738281 12.375 -7.1875 11.5 -7.53125 C 11.164062 -7.65625 10.773438 -7.757812 10.328125 -7.84375 C 9.984375 -7.914062 9.601562 -7.976562 9.1875 -8.03125 C 7.601562 -8.195312 6.285156 -8.515625 5.234375 -8.984375 C 4.191406 -9.398438 3.328125 -9.976562 2.640625 -10.71875 C 1.691406 -11.789062 1.21875 -13.023438 1.21875 -14.421875 C 1.21875 -15.285156 1.375 -16.085938 1.6875 -16.828125 C 1.925781 -17.398438 2.242188 -17.910156 2.640625 -18.359375 C 4.054688 -19.992188 6.328125 -20.8125 9.453125 -20.8125 C 11.316406 -20.8125 12.894531 -20.441406 14.1875 -19.703125 C 15.1875 -19.148438 15.988281 -18.398438 16.59375 -17.453125 C 17.0625 -16.742188 17.390625 -15.914062 17.578125 -14.96875 C 17.628906 -14.65625 17.664062 -14.351562 17.6875 -14.0625 L 17.6875 -13.234375 L 12.921875 -13.234375 L 12.921875 -13.828125 C 12.898438 -13.929688 12.890625 -14.035156 12.890625 -14.140625 C 12.804688 -14.429688 12.703125 -14.671875 12.578125 -14.859375 C 11.992188 -15.640625 10.953125 -16.03125 9.453125 -16.03125 C 7.242188 -16.03125 6.140625 -15.570312 6.140625 -14.65625 C 6.140625 -14.1875 6.40625 -13.804688 6.9375 -13.515625 C 7.488281 -13.171875 8.421875 -12.921875 9.734375 -12.765625 C 12.753906 -12.453125 14.945312 -11.492188 16.3125 -9.890625 C 17.226562 -8.816406 17.6875 -7.582031 17.6875 -6.1875 L 17.6875 -5.90625 L 17.65625 -5.5625 C 17.65625 -5.21875 17.613281 -4.898438 17.53125 -4.609375 C 17.320312 -3.765625 16.929688 -3.015625 16.359375 -2.359375 C 15.703125 -1.578125 14.78125 -0.988281 13.59375 -0.59375 C 12.414062 -0.195312 11.007812 0 9.375 0 Z M 9.375 0 "/></g></g></g><g fill="#00bf63" fill-opacity="0.4"><g transform="translate(204.692188, 344.734489)"><g><path d="M 9.375 0 C 8.007812 0 6.816406 -0.207031 5.796875 -0.625 C 4.984375 -0.914062 4.140625 -1.457031 3.265625 -2.25 C 1.773438 -3.632812 1.09375 -5.394531 1.21875 -7.53125 L 1.21875 -7.953125 L 5.640625 -7.875 L 5.984375 -7.875 L 5.984375 -7.5625 C 6.015625 -6.90625 6.160156 -6.367188 6.421875 -5.953125 C 6.867188 -5.191406 7.851562 -4.8125 9.375 -4.8125 C 10.632812 -4.8125 11.539062 -4.953125 12.09375 -5.234375 C 12.382812 -5.367188 12.582031 -5.539062 12.6875 -5.75 C 12.738281 -5.832031 12.765625 -5.910156 12.765625 -5.984375 L 12.8125 -6.1875 C 12.8125 -6.738281 12.375 -7.1875 11.5 -7.53125 C 11.164062 -7.65625 10.773438 -7.757812 10.328125 -7.84375 C 9.984375 -7.914062 9.601562 -7.976562 9.1875 -8.03125 C 7.601562 -8.195312 6.285156 -8.515625 5.234375 -8.984375 C 4.191406 -9.398438 3.328125 -9.976562 2.640625 -10.71875 C 1.691406 -11.789062 1.21875 -13.023438 1.21875 -14.421875 C 1.21875 -15.285156 1.375 -16.085938 1.6875 -16.828125 C 1.925781 -17.398438 2.242188 -17.910156 2.640625 -18.359375 C 4.054688 -19.992188 6.328125 -20.8125 9.453125 -20.8125 C 11.316406 -20.8125 12.894531 -20.441406 14.1875 -19.703125 C 15.1875 -19.148438 15.988281 -18.398438 16.59375 -17.453125 C 17.0625 -16.742188 17.390625 -15.914062 17.578125 -14.96875 C 17.628906 -14.65625 17.664062 -14.351562 17.6875 -14.0625 L 17.6875 -13.234375 L 12.921875 -13.234375 L 12.921875 -13.828125 C 12.898438 -13.929688 12.890625 -14.035156 12.890625 -14.140625 C 12.804688 -14.429688 12.703125 -14.671875 12.578125 -14.859375 C 11.992188 -15.640625 10.953125 -16.03125 9.453125 -16.03125 C 7.242188 -16.03125 6.140625 -15.570312 6.140625 -14.65625 C 6.140625 -14.1875 6.40625 -13.804688 6.9375 -13.515625 C 7.488281 -13.171875 8.421875 -12.921875 9.734375 -12.765625 C 12.753906 -12.453125 14.945312 -11.492188 16.3125 -9.890625 C 17.226562 -8.816406 17.6875 -7.582031 17.6875 -6.1875 L 17.6875 -5.90625 L 17.65625 -5.5625 C 17.65625 -5.21875 17.613281 -4.898438 17.53125 -4.609375 C 17.320312 -3.765625 16.929688 -3.015625 16.359375 -2.359375 C 15.703125 -1.578125 14.78125 -0.988281 13.59375 -0.59375 C 12.414062 -0.195312 11.007812 0 9.375 0 Z M 9.375 0 "/></g></g></g><g fill="#00bf63" fill-opacity="0.4"><g transform="translate(223.564031, 344.734489)"><g><path d="M 20.734375 -9.265625 C 20.753906 -8.710938 20.753906 -8.382812 20.734375 -8.28125 L 5.90625 -8.3125 C 6.113281 -7.707031 6.492188 -7.128906 7.046875 -6.578125 C 8.078125 -5.609375 9.257812 -5.125 10.59375 -5.125 C 12.019531 -5.175781 13.203125 -5.675781 14.140625 -6.625 L 14.296875 -6.78125 L 19.421875 -5.15625 C 18.296875 -3.394531 17.113281 -2.132812 15.875 -1.375 C 14.488281 -0.488281 12.742188 -0.03125 10.640625 0 C 7.859375 0.03125 5.46875 -0.941406 3.46875 -2.921875 C 1.46875 -4.890625 0.457031 -7.28125 0.4375 -10.09375 C 0.40625 -12.875 1.375 -15.265625 3.34375 -17.265625 C 5.320312 -19.253906 7.710938 -20.265625 10.515625 -20.296875 C 13.304688 -20.316406 15.695312 -19.34375 17.6875 -17.375 C 19.6875 -15.40625 20.703125 -13.015625 20.734375 -10.203125 Z M 10.5625 -15.125 C 9.164062 -15.125 7.984375 -14.640625 7.015625 -13.671875 C 6.515625 -13.117188 6.160156 -12.566406 5.953125 -12.015625 L 15.203125 -12.015625 C 14.992188 -12.566406 14.628906 -13.132812 14.109375 -13.71875 C 13.109375 -14.65625 11.925781 -15.125 10.5625 -15.125 Z M 10.5625 -15.125 "/></g></g></g><g fill="#00bf63" fill-opacity="1"><g transform="translate(144.04982, 342.99279)"><g><path d="M 17.375 -25.609375 L 23.09375 -25.609375 L 23.09375 -10.84375 C 23.09375 -7.632812 21.882812 -4.96875 19.46875 -2.84375 C 17.289062 -0.945312 14.832031 0 12.09375 0 C 9.46875 0 7.078125 -0.921875 4.921875 -2.765625 C 2.429688 -4.859375 1.1875 -7.578125 1.1875 -10.921875 L 1.1875 -25.609375 L 6.890625 -25.609375 L 6.890625 -10.921875 C 6.890625 -9.335938 7.457031 -8.070312 8.59375 -7.125 C 9.113281 -6.65625 9.726562 -6.300781 10.4375 -6.0625 C 11.039062 -5.832031 11.59375 -5.71875 12.09375 -5.71875 C 12.570312 -5.71875 13.164062 -5.832031 13.875 -6.0625 C 14.65625 -6.382812 15.269531 -6.753906 15.71875 -7.171875 C 16.300781 -7.691406 16.707031 -8.21875 16.9375 -8.75 C 17.226562 -9.320312 17.375 -10.019531 17.375 -10.84375 Z M 17.375 -25.609375 "/></g></g></g><g fill="#00bf63" fill-opacity="1"><g transform="translate(168.319258, 342.99279)"><g><path d="M 6.703125 -27.390625 L 6.703125 0 L 1.1875 0 L 1.1875 -27.390625 Z M 6.703125 -27.390625 "/></g></g></g><g fill="#00bf63" fill-opacity="1"><g transform="translate(176.19895, 342.99279)"><g><path d="M 6.65625 -27.46875 L 6.65625 -22.8125 L 1.1875 -22.8125 L 1.1875 -27.46875 Z M 6.703125 -20.25 L 6.703125 0 L 1.1875 0 L 1.1875 -20.25 Z M 6.703125 -20.25 "/></g></g></g><g fill="#00bf63" fill-opacity="1"><g transform="translate(184.078641, 342.99279)"><g><path d="M 9.375 0 C 8.007812 0 6.816406 -0.207031 5.796875 -0.625 C 4.984375 -0.914062 4.140625 -1.457031 3.265625 -2.25 C 1.773438 -3.632812 1.09375 -5.394531 1.21875 -7.53125 L 1.21875 -7.953125 L 5.640625 -7.875 L 5.984375 -7.875 L 5.984375 -7.5625 C 6.015625 -6.90625 6.160156 -6.367188 6.421875 -5.953125 C 6.867188 -5.191406 7.851562 -4.8125 9.375 -4.8125 C 10.632812 -4.8125 11.539062 -4.953125 12.09375 -5.234375 C 12.382812 -5.367188 12.582031 -5.539062 12.6875 -5.75 C 12.738281 -5.832031 12.765625 -5.910156 12.765625 -5.984375 L 12.8125 -6.1875 C 12.8125 -6.738281 12.375 -7.1875 11.5 -7.53125 C 11.164062 -7.65625 10.773438 -7.757812 10.328125 -7.84375 C 9.984375 -7.914062 9.601562 -7.976562 9.1875 -8.03125 C 7.601562 -8.195312 6.285156 -8.515625 5.234375 -8.984375 C 4.191406 -9.398438 3.328125 -9.976562 2.640625 -10.71875 C 1.691406 -11.789062 1.21875 -13.023438 1.21875 -14.421875 C 1.21875 -15.285156 1.375 -16.085938 1.6875 -16.828125 C 1.925781 -17.398438 2.242188 -17.910156 2.640625 -18.359375 C 4.054688 -19.992188 6.328125 -20.8125 9.453125 -20.8125 C 11.316406 -20.8125 12.894531 -20.441406 14.1875 -19.703125 C 15.1875 -19.148438 15.988281 -18.398438 16.59375 -17.453125 C 17.0625 -16.742188 17.390625 -15.914062 17.578125 -14.96875 C 17.628906 -14.65625 17.664062 -14.351562 17.6875 -14.0625 L 17.6875 -13.234375 L 12.921875 -13.234375 L 12.921875 -13.828125 C 12.898438 -13.929688 12.890625 -14.035156 12.890625 -14.140625 C 12.804688 -14.429688 12.703125 -14.671875 12.578125 -14.859375 C 11.992188 -15.640625 10.953125 -16.03125 9.453125 -16.03125 C 7.242188 -16.03125 6.140625 -15.570312 6.140625 -14.65625 C 6.140625 -14.1875 6.40625 -13.804688 6.9375 -13.515625 C 7.488281 -13.171875 8.421875 -12.921875 9.734375 -12.765625 C 12.753906 -12.453125 14.945312 -11.492188 16.3125 -9.890625 C 17.226562 -8.816406 17.6875 -7.582031 17.6875 -6.1875 L 17.6875 -5.90625 L 17.65625 -5.5625 C 17.65625 -5.21875 17.613281 -4.898438 17.53125 -4.609375 C 17.320312 -3.765625 16.929688 -3.015625 16.359375 -2.359375 C 15.703125 -1.578125 14.78125 -0.988281 13.59375 -0.59375 C 12.414062 -0.195312 11.007812 0 9.375 0 Z M 9.375 0 "/></g></g></g><g fill="#00bf63" fill-opacity="1"><g transform="translate(202.950485, 342.99279)"><g><path d="M 9.375 0 C 8.007812 0 6.816406 -0.207031 5.796875 -0.625 C 4.984375 -0.914062 4.140625 -1.457031 3.265625 -2.25 C 1.773438 -3.632812 1.09375 -5.394531 1.21875 -7.53125 L 1.21875 -7.953125 L 5.640625 -7.875 L 5.984375 -7.875 L 5.984375 -7.5625 C 6.015625 -6.90625 6.160156 -6.367188 6.421875 -5.953125 C 6.867188 -5.191406 7.851562 -4.8125 9.375 -4.8125 C 10.632812 -4.8125 11.539062 -4.953125 12.09375 -5.234375 C 12.382812 -5.367188 12.582031 -5.539062 12.6875 -5.75 C 12.738281 -5.832031 12.765625 -5.910156 12.765625 -5.984375 L 12.8125 -6.1875 C 12.8125 -6.738281 12.375 -7.1875 11.5 -7.53125 C 11.164062 -7.65625 10.773438 -7.757812 10.328125 -7.84375 C 9.984375 -7.914062 9.601562 -7.976562 9.1875 -8.03125 C 7.601562 -8.195312 6.285156 -8.515625 5.234375 -8.984375 C 4.191406 -9.398438 3.328125 -9.976562 2.640625 -10.71875 C 1.691406 -11.789062 1.21875 -13.023438 1.21875 -14.421875 C 1.21875 -15.285156 1.375 -16.085938 1.6875 -16.828125 C 1.925781 -17.398438 2.242188 -17.910156 2.640625 -18.359375 C 4.054688 -19.992188 6.328125 -20.8125 9.453125 -20.8125 C 11.316406 -20.8125 12.894531 -20.441406 14.1875 -19.703125 C 15.1875 -19.148438 15.988281 -18.398438 16.59375 -17.453125 C 17.0625 -16.742188 17.390625 -15.914062 17.578125 -14.96875 C 17.628906 -14.65625 17.664062 -14.351562 17.6875 -14.0625 L 17.6875 -13.234375 L 12.921875 -13.234375 L 12.921875 -13.828125 C 12.898438 -13.929688 12.890625 -14.035156 12.890625 -14.140625 C 12.804688 -14.429688 12.703125 -14.671875 12.578125 -14.859375 C 11.992188 -15.640625 10.953125 -16.03125 9.453125 -16.03125 C 7.242188 -16.03125 6.140625 -15.570312 6.140625 -14.65625 C 6.140625 -14.1875 6.40625 -13.804688 6.9375 -13.515625 C 7.488281 -13.171875 8.421875 -12.921875 9.734375 -12.765625 C 12.753906 -12.453125 14.945312 -11.492188 16.3125 -9.890625 C 17.226562 -8.816406 17.6875 -7.582031 17.6875 -6.1875 L 17.6875 -5.90625 L 17.65625 -5.5625 C 17.65625 -5.21875 17.613281 -4.898438 17.53125 -4.609375 C 17.320312 -3.765625 16.929688 -3.015625 16.359375 -2.359375 C 15.703125 -1.578125 14.78125 -0.988281 13.59375 -0.59375 C 12.414062 -0.195312 11.007812 0 9.375 0 Z M 9.375 0 "/></g></g></g><g fill="#00bf63" fill-opacity="1"><g transform="translate(221.822329, 342.99279)"><g><path d="M 20.734375 -9.265625 C 20.753906 -8.710938 20.753906 -8.382812 20.734375 -8.28125 L 5.90625 -8.3125 C 6.113281 -7.707031 6.492188 -7.128906 7.046875 -6.578125 C 8.078125 -5.609375 9.257812 -5.125 10.59375 -5.125 C 12.019531 -5.175781 13.203125 -5.675781 14.140625 -6.625 L 14.296875 -6.78125 L 19.421875 -5.15625 C 18.296875 -3.394531 17.113281 -2.132812 15.875 -1.375 C 14.488281 -0.488281 12.742188 -0.03125 10.640625 0 C 7.859375 0.03125 5.46875 -0.941406 3.46875 -2.921875 C 1.46875 -4.890625 0.457031 -7.28125 0.4375 -10.09375 C 0.40625 -12.875 1.375 -15.265625 3.34375 -17.265625 C 5.320312 -19.253906 7.710938 -20.265625 10.515625 -20.296875 C 13.304688 -20.316406 15.695312 -19.34375 17.6875 -17.375 C 19.6875 -15.40625 20.703125 -13.015625 20.734375 -10.203125 Z M 10.5625 -15.125 C 9.164062 -15.125 7.984375 -14.640625 7.015625 -13.671875 C 6.515625 -13.117188 6.160156 -12.566406 5.953125 -12.015625 L 15.203125 -12.015625 C 14.992188 -12.566406 14.628906 -13.132812 14.109375 -13.71875 C 13.109375 -14.65625 11.925781 -15.125 10.5625 -15.125 Z M 10.5625 -15.125 "/></g></g></g><g fill="#0097b2" fill-opacity="0.4"><g transform="translate(106.684004, 367.089204)"><g><path d="M 10.875 -5.9375 L 10.875 0 L 8.8125 0 L 8.8125 -0.8125 C 7.90625 -0.164062 6.882812 0.15625 5.75 0.15625 C 4.289062 0.15625 3.046875 -0.359375 2.015625 -1.390625 C 0.984375 -2.410156 0.46875 -3.65625 0.46875 -5.125 C 0.46875 -6.582031 0.984375 -7.820312 2.015625 -8.84375 C 3.046875 -9.875 4.289062 -10.390625 5.75 -10.390625 C 7.050781 -10.390625 8.195312 -9.972656 9.1875 -9.140625 L 7.609375 -7.578125 C 7.046875 -7.984375 6.425781 -8.1875 5.75 -8.1875 C 4.882812 -8.1875 4.164062 -7.890625 3.59375 -7.296875 C 2.976562 -6.679688 2.671875 -5.957031 2.671875 -5.125 C 2.671875 -4.28125 2.976562 -3.550781 3.59375 -2.9375 C 4.1875 -2.34375 4.90625 -2.046875 5.75 -2.046875 C 6.582031 -2.046875 7.304688 -2.34375 7.921875 -2.9375 C 7.941406 -2.96875 7.960938 -2.992188 7.984375 -3.015625 L 8.0625 -3.09375 C 8.132812 -3.175781 8.203125 -3.253906 8.265625 -3.328125 C 8.441406 -3.546875 8.5625 -3.734375 8.625 -3.890625 L 6.265625 -3.890625 L 6.265625 -5.9375 Z M 8.796875 -3.890625 L 8.8125 -3.875 L 8.8125 -3.890625 Z M 8.796875 -3.890625 "/></g></g></g><g fill="#0097b2" fill-opacity="0.4"><g transform="translate(118.023954, 367.089204)"><g><path d="M 2.671875 -6.90625 C 2.847656 -7.40625 3.148438 -7.753906 3.578125 -7.953125 C 3.984375 -8.148438 4.597656 -8.25 5.421875 -8.25 L 5.421875 -6 C 4.617188 -6 3.953125 -5.726562 3.421875 -5.1875 C 2.921875 -4.695312 2.671875 -4.164062 2.671875 -3.59375 L 2.671875 0 L 0.46875 0 L 0.46875 -8.109375 L 2.671875 -8.109375 Z M 2.671875 -6.90625 "/></g></g></g><g fill="#0097b2" fill-opacity="0.4"><g transform="translate(123.678181, 367.089204)"><g><path d="M 6.296875 -8.140625 L 8.5 -8.140625 L 8.5 0 L 6.296875 0 L 6.296875 -0.90625 C 5.847656 -0.320312 5.164062 -0.03125 4.25 -0.03125 C 3.132812 -0.0195312 2.179688 -0.410156 1.390625 -1.203125 C 0.585938 -1.984375 0.179688 -2.9375 0.171875 -4.0625 C 0.160156 -5.175781 0.550781 -6.132812 1.34375 -6.9375 C 2.125 -7.726562 3.078125 -8.128906 4.203125 -8.140625 C 5.128906 -8.140625 5.828125 -7.84375 6.296875 -7.25 Z M 5.640625 -2.671875 C 6.023438 -3.066406 6.21875 -3.539062 6.21875 -4.09375 C 6.21875 -4.664062 6.019531 -5.140625 5.625 -5.515625 C 5.226562 -5.910156 4.757812 -6.097656 4.21875 -6.078125 C 3.664062 -6.078125 3.191406 -5.882812 2.796875 -5.5 C 2.410156 -5.101562 2.21875 -4.628906 2.21875 -4.078125 C 2.21875 -3.535156 2.414062 -3.0625 2.8125 -2.65625 C 3.207031 -2.269531 3.679688 -2.078125 4.234375 -2.078125 C 4.804688 -2.097656 5.273438 -2.296875 5.640625 -2.671875 Z M 5.640625 -2.671875 "/></g></g></g><g fill="#0097b2" fill-opacity="0.4"><g transform="translate(132.655647, 367.089204)"><g><path d="M 4.5 -8.078125 C 5.65625 -8.171875 6.613281 -7.875 7.375 -7.1875 C 8.175781 -6.4375 8.578125 -5.390625 8.578125 -4.046875 L 8.578125 0 L 6.53125 0 L 6.53125 -4 L 6.515625 -4 L 6.515625 -4.03125 C 6.515625 -4.582031 6.320312 -5.054688 5.9375 -5.453125 C 5.550781 -5.835938 5.078125 -6.03125 4.515625 -6.03125 C 3.953125 -6.007812 3.484375 -5.8125 3.109375 -5.4375 C 2.703125 -5.03125 2.507812 -4.554688 2.53125 -4.015625 L 2.53125 -4 L 2.515625 -4 L 2.515625 0 L 0.3125 0 L 0.3125 -8.140625 L 2.515625 -8.140625 L 2.515625 -7.09375 C 3.015625 -7.675781 3.675781 -8.003906 4.5 -8.078125 Z M 4.5 -8.078125 "/></g></g></g><g fill="#0097b2" fill-opacity="0.4"><g transform="translate(141.554355, 367.089204)"><g><path d="M 6.8125 0 L 6.8125 -0.921875 C 6.0625 -0.304688 5.207031 0 4.25 0 C 3.132812 0.0078125 2.179688 -0.378906 1.390625 -1.171875 C 0.585938 -1.953125 0.179688 -2.90625 0.171875 -4.03125 C 0.160156 -5.144531 0.550781 -6.101562 1.34375 -6.90625 C 2.125 -7.695312 3.078125 -8.097656 4.203125 -8.109375 C 5.179688 -8.109375 6.046875 -7.800781 6.796875 -7.1875 L 6.796875 -11 L 9.015625 -11 L 9.03125 0 Z M 5.65625 -2.640625 C 6.039062 -3.035156 6.234375 -3.507812 6.234375 -4.0625 C 6.210938 -4.625 6.015625 -5.097656 5.640625 -5.484375 C 5.242188 -5.859375 4.769531 -6.046875 4.21875 -6.046875 C 3.664062 -6.046875 3.191406 -5.851562 2.796875 -5.46875 C 2.410156 -5.03125 2.222656 -4.554688 2.234375 -4.046875 C 2.234375 -3.492188 2.425781 -3.019531 2.8125 -2.625 C 3.207031 -2.238281 3.679688 -2.046875 4.234375 -2.046875 C 4.804688 -2.066406 5.28125 -2.265625 5.65625 -2.640625 Z M 5.65625 -2.640625 "/></g></g></g><g fill="#0097b2" fill-opacity="0.4"><g transform="translate(151.051566, 367.089204)"><g><path d="M 4.6875 -8.109375 C 5.800781 -8.117188 6.757812 -7.734375 7.5625 -6.953125 C 8.351562 -6.160156 8.753906 -5.203125 8.765625 -4.078125 C 8.773438 -2.960938 8.390625 -2.007812 7.609375 -1.21875 C 6.816406 -0.414062 5.859375 -0.0078125 4.734375 0 C 3.828125 0 3.140625 -0.285156 2.671875 -0.859375 L 2.671875 3.03125 L 0.46875 3.03125 L 0.46875 -8.09375 L 2.671875 -8.09375 L 2.671875 -7.25 C 3.109375 -7.800781 3.78125 -8.085938 4.6875 -8.109375 Z M 6.140625 -2.640625 C 6.535156 -3.046875 6.722656 -3.519531 6.703125 -4.0625 C 6.703125 -4.613281 6.507812 -5.085938 6.125 -5.484375 C 5.726562 -5.859375 5.253906 -6.046875 4.703125 -6.046875 C 4.148438 -6.046875 3.679688 -5.851562 3.296875 -5.46875 C 2.898438 -5.050781 2.703125 -4.578125 2.703125 -4.046875 C 2.722656 -3.484375 2.925781 -3.007812 3.3125 -2.625 C 3.695312 -2.238281 4.164062 -2.046875 4.71875 -2.046875 C 5.289062 -2.066406 5.765625 -2.265625 6.140625 -2.640625 Z M 6.140625 -2.640625 "/></g></g></g><g fill="#0097b2" fill-opacity="0.4"><g transform="translate(160.076273, 367.089204)"><g><path d="M 6.296875 -8.140625 L 8.5 -8.140625 L 8.5 0 L 6.296875 0 L 6.296875 -0.90625 C 5.847656 -0.320312 5.164062 -0.03125 4.25 -0.03125 C 3.132812 -0.0195312 2.179688 -0.410156 1.390625 -1.203125 C 0.585938 -1.984375 0.179688 -2.9375 0.171875 -4.0625 C 0.160156 -5.175781 0.550781 -6.132812 1.34375 -6.9375 C 2.125 -7.726562 3.078125 -8.128906 4.203125 -8.140625 C 5.128906 -8.140625 5.828125 -7.84375 6.296875 -7.25 Z M 5.640625 -2.671875 C 6.023438 -3.066406 6.21875 -3.539062 6.21875 -4.09375 C 6.21875 -4.664062 6.019531 -5.140625 5.625 -5.515625 C 5.226562 -5.910156 4.757812 -6.097656 4.21875 -6.078125 C 3.664062 -6.078125 3.191406 -5.882812 2.796875 -5.5 C 2.410156 -5.101562 2.21875 -4.628906 2.21875 -4.078125 C 2.21875 -3.535156 2.414062 -3.0625 2.8125 -2.65625 C 3.207031 -2.269531 3.679688 -2.078125 4.234375 -2.078125 C 4.804688 -2.097656 5.273438 -2.296875 5.640625 -2.671875 Z M 5.640625 -2.671875 "/></g></g></g><g fill="#0097b2" fill-opacity="0.4"><g transform="translate(169.053739, 367.089204)"><g><path d="M 2.671875 -6.90625 C 2.847656 -7.40625 3.148438 -7.753906 3.578125 -7.953125 C 3.984375 -8.148438 4.597656 -8.25 5.421875 -8.25 L 5.421875 -6 C 4.617188 -6 3.953125 -5.726562 3.421875 -5.1875 C 2.921875 -4.695312 2.671875 -4.164062 2.671875 -3.59375 L 2.671875 0 L 0.46875 0 L 0.46875 -8.109375 L 2.671875 -8.109375 Z M 2.671875 -6.90625 "/></g></g></g><g fill="#0097b2" fill-opacity="0.4"><g transform="translate(174.707967, 367.089204)"><g><path d="M 8.28125 -3.703125 C 8.289062 -3.484375 8.289062 -3.351562 8.28125 -3.3125 L 2.359375 -3.328125 C 2.441406 -3.085938 2.59375 -2.851562 2.8125 -2.625 C 3.226562 -2.238281 3.703125 -2.046875 4.234375 -2.046875 C 4.804688 -2.066406 5.28125 -2.265625 5.65625 -2.640625 L 5.71875 -2.703125 L 7.765625 -2.0625 C 7.316406 -1.363281 6.84375 -0.859375 6.34375 -0.546875 C 5.789062 -0.191406 5.09375 -0.0078125 4.25 0 C 3.132812 0.0078125 2.179688 -0.378906 1.390625 -1.171875 C 0.585938 -1.953125 0.179688 -2.90625 0.171875 -4.03125 C 0.160156 -5.144531 0.550781 -6.101562 1.34375 -6.90625 C 2.125 -7.695312 3.078125 -8.097656 4.203125 -8.109375 C 5.316406 -8.117188 6.273438 -7.734375 7.078125 -6.953125 C 7.867188 -6.160156 8.269531 -5.203125 8.28125 -4.078125 Z M 4.21875 -6.046875 C 3.664062 -6.046875 3.191406 -5.851562 2.796875 -5.46875 C 2.597656 -5.25 2.457031 -5.023438 2.375 -4.796875 L 6.078125 -4.796875 C 5.992188 -5.023438 5.847656 -5.253906 5.640625 -5.484375 C 5.242188 -5.859375 4.769531 -6.046875 4.21875 -6.046875 Z M 4.21875 -6.046875 "/></g></g></g><g fill="#0097b2" fill-opacity="0.4"><g transform="translate(183.165677, 367.089204)"><g><path d="M 4.5 -8.078125 C 5.65625 -8.171875 6.613281 -7.875 7.375 -7.1875 C 8.175781 -6.4375 8.578125 -5.390625 8.578125 -4.046875 L 8.578125 0 L 6.53125 0 L 6.53125 -4 L 6.515625 -4 L 6.515625 -4.03125 C 6.515625 -4.582031 6.320312 -5.054688 5.9375 -5.453125 C 5.550781 -5.835938 5.078125 -6.03125 4.515625 -6.03125 C 3.953125 -6.007812 3.484375 -5.8125 3.109375 -5.4375 C 2.703125 -5.03125 2.507812 -4.554688 2.53125 -4.015625 L 2.53125 -4 L 2.515625 -4 L 2.515625 0 L 0.3125 0 L 0.3125 -8.140625 L 2.515625 -8.140625 L 2.515625 -7.09375 C 3.015625 -7.675781 3.675781 -8.003906 4.5 -8.078125 Z M 4.5 -8.078125 "/></g></g></g><g fill="#0097b2" fill-opacity="0.4"><g transform="translate(192.064384, 367.089204)"><g><path d="M 6.3125 -8.109375 L 6.3125 -5.90625 L 4.5 -5.90625 L 4.5 0 L 2.296875 0 L 2.296875 -5.90625 L 0.46875 -5.90625 L 0.46875 -8.109375 L 2.296875 -8.109375 L 2.296875 -10.953125 L 4.5 -10.953125 L 4.5 -8.109375 Z M 6.3125 -8.109375 "/></g></g></g><g fill="#0097b2" fill-opacity="0.4"><g transform="translate(198.852607, 367.089204)"><g><path d="M 2.65625 -10.984375 L 2.65625 -9.125 L 0.46875 -9.125 L 0.46875 -10.984375 Z M 2.671875 -8.09375 L 2.671875 0 L 0.46875 0 L 0.46875 -8.09375 Z M 2.671875 -8.09375 "/></g></g></g><g fill="#0097b2" fill-opacity="0.4"><g transform="translate(202.002593, 367.089204)"><g><path d="M 4.5 -8.078125 C 5.65625 -8.171875 6.613281 -7.875 7.375 -7.1875 C 8.175781 -6.4375 8.578125 -5.390625 8.578125 -4.046875 L 8.578125 0 L 6.53125 0 L 6.53125 -4 L 6.515625 -4 L 6.515625 -4.03125 C 6.515625 -4.582031 6.320312 -5.054688 5.9375 -5.453125 C 5.550781 -5.835938 5.078125 -6.03125 4.515625 -6.03125 C 3.953125 -6.007812 3.484375 -5.8125 3.109375 -5.4375 C 2.703125 -5.03125 2.507812 -4.554688 2.53125 -4.015625 L 2.53125 -4 L 2.515625 -4 L 2.515625 0 L 0.3125 0 L 0.3125 -8.140625 L 2.515625 -8.140625 L 2.515625 -7.09375 C 3.015625 -7.675781 3.675781 -8.003906 4.5 -8.078125 Z M 4.5 -8.078125 "/></g></g></g><g fill="#0097b2" fill-opacity="0.4"><g transform="translate(210.901301, 367.089204)"><g><path d="M 6.515625 -8.125 L 8.578125 -8.125 L 8.578125 -0.015625 C 8.578125 1.097656 8.1875 2.046875 7.40625 2.828125 C 6.625 3.617188 5.675781 4.019531 4.5625 4.03125 C 3.53125 4.039062 2.625 3.703125 1.84375 3.015625 C 1.070312 2.335938 0.628906 1.488281 0.515625 0.46875 L 2.59375 0.46875 C 2.664062 0.800781 2.847656 1.113281 3.140625 1.40625 C 3.523438 1.789062 3.992188 1.984375 4.546875 1.984375 C 5.109375 1.984375 5.578125 1.785156 5.953125 1.390625 C 6.335938 0.992188 6.53125 0.523438 6.53125 -0.015625 L 6.515625 -0.8125 C 5.984375 -0.28125 5.332031 -0.015625 4.5625 -0.015625 C 3.4375 -0.00390625 2.476562 -0.394531 1.6875 -1.1875 C 0.882812 -1.96875 0.484375 -2.921875 0.484375 -4.046875 C 0.472656 -5.171875 0.863281 -6.128906 1.65625 -6.921875 C 2.4375 -7.710938 3.390625 -8.113281 4.515625 -8.125 C 5.410156 -8.125 6.078125 -7.847656 6.515625 -7.296875 Z M 6.515625 -4.296875 C 6.472656 -4.765625 6.28125 -5.164062 5.9375 -5.5 C 5.539062 -5.875 5.066406 -6.0625 4.515625 -6.0625 C 3.972656 -6.0625 3.507812 -5.867188 3.125 -5.484375 C 2.726562 -5.066406 2.53125 -4.59375 2.53125 -4.0625 C 2.53125 -3.519531 2.734375 -3.046875 3.140625 -2.640625 C 3.523438 -2.253906 3.992188 -2.0625 4.546875 -2.0625 C 5.117188 -2.082031 5.585938 -2.28125 5.953125 -2.65625 C 6.273438 -2.988281 6.460938 -3.378906 6.515625 -3.828125 Z M 6.515625 -4.296875 "/></g></g></g><g fill="#0097b2" fill-opacity="0.4"><g transform="translate(219.957514, 367.089204)"><g/></g></g><g fill="#0097b2" fill-opacity="0.4"><g transform="translate(224.052496, 367.089204)"><g><path d="M 9.15625 -1.296875 C 8.15625 -0.460938 7.015625 -0.046875 5.734375 -0.046875 C 4.285156 -0.046875 3.046875 -0.5625 2.015625 -1.59375 C 0.984375 -2.625 0.46875 -3.863281 0.46875 -5.3125 C 0.46875 -6.769531 0.984375 -8.015625 2.015625 -9.046875 C 3.046875 -10.066406 4.285156 -10.578125 5.734375 -10.578125 C 7.023438 -10.578125 8.164062 -10.160156 9.15625 -9.328125 L 7.578125 -7.765625 C 7.035156 -8.171875 6.421875 -8.375 5.734375 -8.375 C 4.890625 -8.375 4.171875 -8.078125 3.578125 -7.484375 C 2.972656 -6.878906 2.671875 -6.15625 2.671875 -5.3125 C 2.671875 -4.46875 2.972656 -3.75 3.578125 -3.15625 C 4.171875 -2.550781 4.890625 -2.25 5.734375 -2.25 C 6.421875 -2.25 7.035156 -2.453125 7.578125 -2.859375 Z M 9.15625 -1.296875 "/></g></g></g><g fill="#0097b2" fill-opacity="0.4"><g transform="translate(234.148198, 367.089204)"><g><path d="M 8.734375 0 L 6.6875 0 L 6.6875 -4 L 6.671875 -4 L 6.671875 -4.046875 C 6.671875 -4.585938 6.476562 -5.054688 6.09375 -5.453125 C 5.707031 -5.835938 5.234375 -6.03125 4.671875 -6.03125 C 4.128906 -6.03125 3.660156 -5.832031 3.265625 -5.4375 C 2.859375 -5.03125 2.664062 -4.554688 2.6875 -4.015625 L 2.6875 -4 L 2.671875 -4 L 2.671875 0 L 0.46875 0 L 0.46875 -10.234375 L 2.671875 -10.234375 L 2.671875 -7.09375 C 3.171875 -7.675781 3.832031 -8.003906 4.65625 -8.078125 C 5.8125 -8.171875 6.769531 -7.875 7.53125 -7.1875 C 8.332031 -6.4375 8.734375 -5.390625 8.734375 -4.046875 Z M 8.734375 0 "/></g></g></g><g fill="#0097b2" fill-opacity="0.4"><g transform="translate(243.361905, 367.089204)"><g><path d="M 6.296875 -8.140625 L 8.5 -8.140625 L 8.5 0 L 6.296875 0 L 6.296875 -0.90625 C 5.847656 -0.320312 5.164062 -0.03125 4.25 -0.03125 C 3.132812 -0.0195312 2.179688 -0.410156 1.390625 -1.203125 C 0.585938 -1.984375 0.179688 -2.9375 0.171875 -4.0625 C 0.160156 -5.175781 0.550781 -6.132812 1.34375 -6.9375 C 2.125 -7.726562 3.078125 -8.128906 4.203125 -8.140625 C 5.128906 -8.140625 5.828125 -7.84375 6.296875 -7.25 Z M 5.640625 -2.671875 C 6.023438 -3.066406 6.21875 -3.539062 6.21875 -4.09375 C 6.21875 -4.664062 6.019531 -5.140625 5.625 -5.515625 C 5.226562 -5.910156 4.757812 -6.097656 4.21875 -6.078125 C 3.664062 -6.078125 3.191406 -5.882812 2.796875 -5.5 C 2.410156 -5.101562 2.21875 -4.628906 2.21875 -4.078125 C 2.21875 -3.535156 2.414062 -3.0625 2.8125 -2.65625 C 3.207031 -2.269531 3.679688 -2.078125 4.234375 -2.078125 C 4.804688 -2.097656 5.273438 -2.296875 5.640625 -2.671875 Z M 5.640625 -2.671875 "/></g></g></g><g fill="#0097b2" fill-opacity="0.4"><g transform="translate(252.339371, 367.089204)"><g><path d="M 4.5 -8.078125 C 5.65625 -8.171875 6.613281 -7.875 7.375 -7.1875 C 8.175781 -6.4375 8.578125 -5.390625 8.578125 -4.046875 L 8.578125 0 L 6.53125 0 L 6.53125 -4 L 6.515625 -4 L 6.515625 -4.03125 C 6.515625 -4.582031 6.320312 -5.054688 5.9375 -5.453125 C 5.550781 -5.835938 5.078125 -6.03125 4.515625 -6.03125 C 3.953125 -6.007812 3.484375 -5.8125 3.109375 -5.4375 C 2.703125 -5.03125 2.507812 -4.554688 2.53125 -4.015625 L 2.53125 -4 L 2.515625 -4 L 2.515625 0 L 0.3125 0 L 0.3125 -8.140625 L 2.515625 -8.140625 L 2.515625 -7.09375 C 3.015625 -7.675781 3.675781 -8.003906 4.5 -8.078125 Z M 4.5 -8.078125 "/></g></g></g><g fill="#0097b2" fill-opacity="0.4"><g transform="translate(261.238078, 367.089204)"><g><path d="M 4.5 -8.078125 C 5.65625 -8.171875 6.613281 -7.875 7.375 -7.1875 C 8.175781 -6.4375 8.578125 -5.390625 8.578125 -4.046875 L 8.578125 0 L 6.53125 0 L 6.53125 -4 L 6.515625 -4 L 6.515625 -4.03125 C 6.515625 -4.582031 6.320312 -5.054688 5.9375 -5.453125 C 5.550781 -5.835938 5.078125 -6.03125 4.515625 -6.03125 C 3.953125 -6.007812 3.484375 -5.8125 3.109375 -5.4375 C 2.703125 -5.03125 2.507812 -4.554688 2.53125 -4.015625 L 2.53125 -4 L 2.515625 -4 L 2.515625 0 L 0.3125 0 L 0.3125 -8.140625 L 2.515625 -8.140625 L 2.515625 -7.09375 C 3.015625 -7.675781 3.675781 -8.003906 4.5 -8.078125 Z M 4.5 -8.078125 "/></g></g></g><g fill="#0097b2" fill-opacity="0.4"><g transform="translate(270.136786, 367.089204)"><g><path d="M 8.28125 -3.703125 C 8.289062 -3.484375 8.289062 -3.351562 8.28125 -3.3125 L 2.359375 -3.328125 C 2.441406 -3.085938 2.59375 -2.851562 2.8125 -2.625 C 3.226562 -2.238281 3.703125 -2.046875 4.234375 -2.046875 C 4.804688 -2.066406 5.28125 -2.265625 5.65625 -2.640625 L 5.71875 -2.703125 L 7.765625 -2.0625 C 7.316406 -1.363281 6.84375 -0.859375 6.34375 -0.546875 C 5.789062 -0.191406 5.09375 -0.0078125 4.25 0 C 3.132812 0.0078125 2.179688 -0.378906 1.390625 -1.171875 C 0.585938 -1.953125 0.179688 -2.90625 0.171875 -4.03125 C 0.160156 -5.144531 0.550781 -6.101562 1.34375 -6.90625 C 2.125 -7.695312 3.078125 -8.097656 4.203125 -8.109375 C 5.316406 -8.117188 6.273438 -7.734375 7.078125 -6.953125 C 7.867188 -6.160156 8.269531 -5.203125 8.28125 -4.078125 Z M 4.21875 -6.046875 C 3.664062 -6.046875 3.191406 -5.851562 2.796875 -5.46875 C 2.597656 -5.25 2.457031 -5.023438 2.375 -4.796875 L 6.078125 -4.796875 C 5.992188 -5.023438 5.847656 -5.253906 5.640625 -5.484375 C 5.242188 -5.859375 4.769531 -6.046875 4.21875 -6.046875 Z M 4.21875 -6.046875 "/></g></g></g><g fill="#0097b2" fill-opacity="0.4"><g transform="translate(278.594496, 367.089204)"><g><path d="M 2.671875 -10.953125 L 2.671875 0 L 0.46875 0 L 0.46875 -10.953125 Z M 2.671875 -10.953125 "/></g></g></g><g fill="#0097b2" fill-opacity="1"><g transform="translate(105.987322, 366.392525)"><g><path d="M 10.875 -5.9375 L 10.875 0 L 8.8125 0 L 8.8125 -0.8125 C 7.90625 -0.164062 6.882812 0.15625 5.75 0.15625 C 4.289062 0.15625 3.046875 -0.359375 2.015625 -1.390625 C 0.984375 -2.410156 0.46875 -3.65625 0.46875 -5.125 C 0.46875 -6.582031 0.984375 -7.820312 2.015625 -8.84375 C 3.046875 -9.875 4.289062 -10.390625 5.75 -10.390625 C 7.050781 -10.390625 8.195312 -9.972656 9.1875 -9.140625 L 7.609375 -7.578125 C 7.046875 -7.984375 6.425781 -8.1875 5.75 -8.1875 C 4.882812 -8.1875 4.164062 -7.890625 3.59375 -7.296875 C 2.976562 -6.679688 2.671875 -5.957031 2.671875 -5.125 C 2.671875 -4.28125 2.976562 -3.550781 3.59375 -2.9375 C 4.1875 -2.34375 4.90625 -2.046875 5.75 -2.046875 C 6.582031 -2.046875 7.304688 -2.34375 7.921875 -2.9375 C 7.941406 -2.96875 7.960938 -2.992188 7.984375 -3.015625 L 8.0625 -3.09375 C 8.132812 -3.175781 8.203125 -3.253906 8.265625 -3.328125 C 8.441406 -3.546875 8.5625 -3.734375 8.625 -3.890625 L 6.265625 -3.890625 L 6.265625 -5.9375 Z M 8.796875 -3.890625 L 8.8125 -3.875 L 8.8125 -3.890625 Z M 8.796875 -3.890625 "/></g></g></g><g fill="#0097b2" fill-opacity="1"><g transform="translate(117.327272, 366.392525)"><g><path d="M 2.671875 -6.90625 C 2.847656 -7.40625 3.148438 -7.753906 3.578125 -7.953125 C 3.984375 -8.148438 4.597656 -8.25 5.421875 -8.25 L 5.421875 -6 C 4.617188 -6 3.953125 -5.726562 3.421875 -5.1875 C 2.921875 -4.695312 2.671875 -4.164062 2.671875 -3.59375 L 2.671875 0 L 0.46875 0 L 0.46875 -8.109375 L 2.671875 -8.109375 Z M 2.671875 -6.90625 "/></g></g></g><g fill="#0097b2" fill-opacity="1"><g transform="translate(122.9815, 366.392525)"><g><path d="M 6.296875 -8.140625 L 8.5 -8.140625 L 8.5 0 L 6.296875 0 L 6.296875 -0.90625 C 5.847656 -0.320312 5.164062 -0.03125 4.25 -0.03125 C 3.132812 -0.0195312 2.179688 -0.410156 1.390625 -1.203125 C 0.585938 -1.984375 0.179688 -2.9375 0.171875 -4.0625 C 0.160156 -5.175781 0.550781 -6.132812 1.34375 -6.9375 C 2.125 -7.726562 3.078125 -8.128906 4.203125 -8.140625 C 5.128906 -8.140625 5.828125 -7.84375 6.296875 -7.25 Z M 5.640625 -2.671875 C 6.023438 -3.066406 6.21875 -3.539062 6.21875 -4.09375 C 6.21875 -4.664062 6.019531 -5.140625 5.625 -5.515625 C 5.226562 -5.910156 4.757812 -6.097656 4.21875 -6.078125 C 3.664062 -6.078125 3.191406 -5.882812 2.796875 -5.5 C 2.410156 -5.101562 2.21875 -4.628906 2.21875 -4.078125 C 2.21875 -3.535156 2.414062 -3.0625 2.8125 -2.65625 C 3.207031 -2.269531 3.679688 -2.078125 4.234375 -2.078125 C 4.804688 -2.097656 5.273438 -2.296875 5.640625 -2.671875 Z M 5.640625 -2.671875 "/></g></g></g><g fill="#0097b2" fill-opacity="1"><g transform="translate(131.958966, 366.392525)"><g><path d="M 4.5 -8.078125 C 5.65625 -8.171875 6.613281 -7.875 7.375 -7.1875 C 8.175781 -6.4375 8.578125 -5.390625 8.578125 -4.046875 L 8.578125 0 L 6.53125 0 L 6.53125 -4 L 6.515625 -4 L 6.515625 -4.03125 C 6.515625 -4.582031 6.320312 -5.054688 5.9375 -5.453125 C 5.550781 -5.835938 5.078125 -6.03125 4.515625 -6.03125 C 3.953125 -6.007812 3.484375 -5.8125 3.109375 -5.4375 C 2.703125 -5.03125 2.507812 -4.554688 2.53125 -4.015625 L 2.53125 -4 L 2.515625 -4 L 2.515625 0 L 0.3125 0 L 0.3125 -8.140625 L 2.515625 -8.140625 L 2.515625 -7.09375 C 3.015625 -7.675781 3.675781 -8.003906 4.5 -8.078125 Z M 4.5 -8.078125 "/></g></g></g><g fill="#0097b2" fill-opacity="1"><g transform="translate(140.857674, 366.392525)"><g><path d="M 6.8125 0 L 6.8125 -0.921875 C 6.0625 -0.304688 5.207031 0 4.25 0 C 3.132812 0.0078125 2.179688 -0.378906 1.390625 -1.171875 C 0.585938 -1.953125 0.179688 -2.90625 0.171875 -4.03125 C 0.160156 -5.144531 0.550781 -6.101562 1.34375 -6.90625 C 2.125 -7.695312 3.078125 -8.097656 4.203125 -8.109375 C 5.179688 -8.109375 6.046875 -7.800781 6.796875 -7.1875 L 6.796875 -11 L 9.015625 -11 L 9.03125 0 Z M 5.65625 -2.640625 C 6.039062 -3.035156 6.234375 -3.507812 6.234375 -4.0625 C 6.210938 -4.625 6.015625 -5.097656 5.640625 -5.484375 C 5.242188 -5.859375 4.769531 -6.046875 4.21875 -6.046875 C 3.664062 -6.046875 3.191406 -5.851562 2.796875 -5.46875 C 2.410156 -5.03125 2.222656 -4.554688 2.234375 -4.046875 C 2.234375 -3.492188 2.425781 -3.019531 2.8125 -2.625 C 3.207031 -2.238281 3.679688 -2.046875 4.234375 -2.046875 C 4.804688 -2.066406 5.28125 -2.265625 5.65625 -2.640625 Z M 5.65625 -2.640625 "/></g></g></g><g fill="#0097b2" fill-opacity="1"><g transform="translate(150.354885, 366.392525)"><g><path d="M 4.6875 -8.109375 C 5.800781 -8.117188 6.757812 -7.734375 7.5625 -6.953125 C 8.351562 -6.160156 8.753906 -5.203125 8.765625 -4.078125 C 8.773438 -2.960938 8.390625 -2.007812 7.609375 -1.21875 C 6.816406 -0.414062 5.859375 -0.0078125 4.734375 0 C 3.828125 0 3.140625 -0.285156 2.671875 -0.859375 L 2.671875 3.03125 L 0.46875 3.03125 L 0.46875 -8.09375 L 2.671875 -8.09375 L 2.671875 -7.25 C 3.109375 -7.800781 3.78125 -8.085938 4.6875 -8.109375 Z M 6.140625 -2.640625 C 6.535156 -3.046875 6.722656 -3.519531 6.703125 -4.0625 C 6.703125 -4.613281 6.507812 -5.085938 6.125 -5.484375 C 5.726562 -5.859375 5.253906 -6.046875 4.703125 -6.046875 C 4.148438 -6.046875 3.679688 -5.851562 3.296875 -5.46875 C 2.898438 -5.050781 2.703125 -4.578125 2.703125 -4.046875 C 2.722656 -3.484375 2.925781 -3.007812 3.3125 -2.625 C 3.695312 -2.238281 4.164062 -2.046875 4.71875 -2.046875 C 5.289062 -2.066406 5.765625 -2.265625 6.140625 -2.640625 Z M 6.140625 -2.640625 "/></g></g></g><g fill="#0097b2" fill-opacity="1"><g transform="translate(159.379592, 366.392525)"><g><path d="M 6.296875 -8.140625 L 8.5 -8.140625 L 8.5 0 L 6.296875 0 L 6.296875 -0.90625 C 5.847656 -0.320312 5.164062 -0.03125 4.25 -0.03125 C 3.132812 -0.0195312 2.179688 -0.410156 1.390625 -1.203125 C 0.585938 -1.984375 0.179688 -2.9375 0.171875 -4.0625 C 0.160156 -5.175781 0.550781 -6.132812 1.34375 -6.9375 C 2.125 -7.726562 3.078125 -8.128906 4.203125 -8.140625 C 5.128906 -8.140625 5.828125 -7.84375 6.296875 -7.25 Z M 5.640625 -2.671875 C 6.023438 -3.066406 6.21875 -3.539062 6.21875 -4.09375 C 6.21875 -4.664062 6.019531 -5.140625 5.625 -5.515625 C 5.226562 -5.910156 4.757812 -6.097656 4.21875 -6.078125 C 3.664062 -6.078125 3.191406 -5.882812 2.796875 -5.5 C 2.410156 -5.101562 2.21875 -4.628906 2.21875 -4.078125 C 2.21875 -3.535156 2.414062 -3.0625 2.8125 -2.65625 C 3.207031 -2.269531 3.679688 -2.078125 4.234375 -2.078125 C 4.804688 -2.097656 5.273438 -2.296875 5.640625 -2.671875 Z M 5.640625 -2.671875 "/></g></g></g><g fill="#0097b2" fill-opacity="1"><g transform="translate(168.357058, 366.392525)"><g><path d="M 2.671875 -6.90625 C 2.847656 -7.40625 3.148438 -7.753906 3.578125 -7.953125 C 3.984375 -8.148438 4.597656 -8.25 5.421875 -8.25 L 5.421875 -6 C 4.617188 -6 3.953125 -5.726562 3.421875 -5.1875 C 2.921875 -4.695312 2.671875 -4.164062 2.671875 -3.59375 L 2.671875 0 L 0.46875 0 L 0.46875 -8.109375 L 2.671875 -8.109375 Z M 2.671875 -6.90625 "/></g></g></g><g fill="#0097b2" fill-opacity="1"><g transform="translate(174.011286, 366.392525)"><g><path d="M 8.28125 -3.703125 C 8.289062 -3.484375 8.289062 -3.351562 8.28125 -3.3125 L 2.359375 -3.328125 C 2.441406 -3.085938 2.59375 -2.851562 2.8125 -2.625 C 3.226562 -2.238281 3.703125 -2.046875 4.234375 -2.046875 C 4.804688 -2.066406 5.28125 -2.265625 5.65625 -2.640625 L 5.71875 -2.703125 L 7.765625 -2.0625 C 7.316406 -1.363281 6.84375 -0.859375 6.34375 -0.546875 C 5.789062 -0.191406 5.09375 -0.0078125 4.25 0 C 3.132812 0.0078125 2.179688 -0.378906 1.390625 -1.171875 C 0.585938 -1.953125 0.179688 -2.90625 0.171875 -4.03125 C 0.160156 -5.144531 0.550781 -6.101562 1.34375 -6.90625 C 2.125 -7.695312 3.078125 -8.097656 4.203125 -8.109375 C 5.316406 -8.117188 6.273438 -7.734375 7.078125 -6.953125 C 7.867188 -6.160156 8.269531 -5.203125 8.28125 -4.078125 Z M 4.21875 -6.046875 C 3.664062 -6.046875 3.191406 -5.851562 2.796875 -5.46875 C 2.597656 -5.25 2.457031 -5.023438 2.375 -4.796875 L 6.078125 -4.796875 C 5.992188 -5.023438 5.847656 -5.253906 5.640625 -5.484375 C 5.242188 -5.859375 4.769531 -6.046875 4.21875 -6.046875 Z M 4.21875 -6.046875 "/></g></g></g><g fill="#0097b2" fill-opacity="1"><g transform="translate(182.468995, 366.392525)"><g><path d="M 4.5 -8.078125 C 5.65625 -8.171875 6.613281 -7.875 7.375 -7.1875 C 8.175781 -6.4375 8.578125 -5.390625 8.578125 -4.046875 L 8.578125 0 L 6.53125 0 L 6.53125 -4 L 6.515625 -4 L 6.515625 -4.03125 C 6.515625 -4.582031 6.320312 -5.054688 5.9375 -5.453125 C 5.550781 -5.835938 5.078125 -6.03125 4.515625 -6.03125 C 3.953125 -6.007812 3.484375 -5.8125 3.109375 -5.4375 C 2.703125 -5.03125 2.507812 -4.554688 2.53125 -4.015625 L 2.53125 -4 L 2.515625 -4 L 2.515625 0 L 0.3125 0 L 0.3125 -8.140625 L 2.515625 -8.140625 L 2.515625 -7.09375 C 3.015625 -7.675781 3.675781 -8.003906 4.5 -8.078125 Z M 4.5 -8.078125 "/></g></g></g><g fill="#0097b2" fill-opacity="1"><g transform="translate(191.367703, 366.392525)"><g><path d="M 6.3125 -8.109375 L 6.3125 -5.90625 L 4.5 -5.90625 L 4.5 0 L 2.296875 0 L 2.296875 -5.90625 L 0.46875 -5.90625 L 0.46875 -8.109375 L 2.296875 -8.109375 L 2.296875 -10.953125 L 4.5 -10.953125 L 4.5 -8.109375 Z M 6.3125 -8.109375 "/></g></g></g><g fill="#0097b2" fill-opacity="1"><g transform="translate(198.155926, 366.392525)"><g><path d="M 2.65625 -10.984375 L 2.65625 -9.125 L 0.46875 -9.125 L 0.46875 -10.984375 Z M 2.671875 -8.09375 L 2.671875 0 L 0.46875 0 L 0.46875 -8.09375 Z M 2.671875 -8.09375 "/></g></g></g><g fill="#0097b2" fill-opacity="1"><g transform="translate(201.305912, 366.392525)"><g><path d="M 4.5 -8.078125 C 5.65625 -8.171875 6.613281 -7.875 7.375 -7.1875 C 8.175781 -6.4375 8.578125 -5.390625 8.578125 -4.046875 L 8.578125 0 L 6.53125 0 L 6.53125 -4 L 6.515625 -4 L 6.515625 -4.03125 C 6.515625 -4.582031 6.320312 -5.054688 5.9375 -5.453125 C 5.550781 -5.835938 5.078125 -6.03125 4.515625 -6.03125 C 3.953125 -6.007812 3.484375 -5.8125 3.109375 -5.4375 C 2.703125 -5.03125 2.507812 -4.554688 2.53125 -4.015625 L 2.53125 -4 L 2.515625 -4 L 2.515625 0 L 0.3125 0 L 0.3125 -8.140625 L 2.515625 -8.140625 L 2.515625 -7.09375 C 3.015625 -7.675781 3.675781 -8.003906 4.5 -8.078125 Z M 4.5 -8.078125 "/></g></g></g><g fill="#0097b2" fill-opacity="1"><g transform="translate(210.20462, 366.392525)"><g><path d="M 6.515625 -8.125 L 8.578125 -8.125 L 8.578125 -0.015625 C 8.578125 1.097656 8.1875 2.046875 7.40625 2.828125 C 6.625 3.617188 5.675781 4.019531 4.5625 4.03125 C 3.53125 4.039062 2.625 3.703125 1.84375 3.015625 C 1.070312 2.335938 0.628906 1.488281 0.515625 0.46875 L 2.59375 0.46875 C 2.664062 0.800781 2.847656 1.113281 3.140625 1.40625 C 3.523438 1.789062 3.992188 1.984375 4.546875 1.984375 C 5.109375 1.984375 5.578125 1.785156 5.953125 1.390625 C 6.335938 0.992188 6.53125 0.523438 6.53125 -0.015625 L 6.515625 -0.8125 C 5.984375 -0.28125 5.332031 -0.015625 4.5625 -0.015625 C 3.4375 -0.00390625 2.476562 -0.394531 1.6875 -1.1875 C 0.882812 -1.96875 0.484375 -2.921875 0.484375 -4.046875 C 0.472656 -5.171875 0.863281 -6.128906 1.65625 -6.921875 C 2.4375 -7.710938 3.390625 -8.113281 4.515625 -8.125 C 5.410156 -8.125 6.078125 -7.847656 6.515625 -7.296875 Z M 6.515625 -4.296875 C 6.472656 -4.765625 6.28125 -5.164062 5.9375 -5.5 C 5.539062 -5.875 5.066406 -6.0625 4.515625 -6.0625 C 3.972656 -6.0625 3.507812 -5.867188 3.125 -5.484375 C 2.726562 -5.066406 2.53125 -4.59375 2.53125 -4.0625 C 2.53125 -3.519531 2.734375 -3.046875 3.140625 -2.640625 C 3.523438 -2.253906 3.992188 -2.0625 4.546875 -2.0625 C 5.117188 -2.082031 5.585938 -2.28125 5.953125 -2.65625 C 6.273438 -2.988281 6.460938 -3.378906 6.515625 -3.828125 Z M 6.515625 -4.296875 "/></g></g></g><g fill="#0097b2" fill-opacity="1"><g transform="translate(219.260833, 366.392525)"><g/></g></g><g fill="#0097b2" fill-opacity="1"><g transform="translate(223.355815, 366.392525)"><g><path d="M 9.15625 -1.296875 C 8.15625 -0.460938 7.015625 -0.046875 5.734375 -0.046875 C 4.285156 -0.046875 3.046875 -0.5625 2.015625 -1.59375 C 0.984375 -2.625 0.46875 -3.863281 0.46875 -5.3125 C 0.46875 -6.769531 0.984375 -8.015625 2.015625 -9.046875 C 3.046875 -10.066406 4.285156 -10.578125 5.734375 -10.578125 C 7.023438 -10.578125 8.164062 -10.160156 9.15625 -9.328125 L 7.578125 -7.765625 C 7.035156 -8.171875 6.421875 -8.375 5.734375 -8.375 C 4.890625 -8.375 4.171875 -8.078125 3.578125 -7.484375 C 2.972656 -6.878906 2.671875 -6.15625 2.671875 -5.3125 C 2.671875 -4.46875 2.972656 -3.75 3.578125 -3.15625 C 4.171875 -2.550781 4.890625 -2.25 5.734375 -2.25 C 6.421875 -2.25 7.035156 -2.453125 7.578125 -2.859375 Z M 9.15625 -1.296875 "/></g></g></g><g fill="#0097b2" fill-opacity="1"><g transform="translate(233.451517, 366.392525)"><g><path d="M 8.734375 0 L 6.6875 0 L 6.6875 -4 L 6.671875 -4 L 6.671875 -4.046875 C 6.671875 -4.585938 6.476562 -5.054688 6.09375 -5.453125 C 5.707031 -5.835938 5.234375 -6.03125 4.671875 -6.03125 C 4.128906 -6.03125 3.660156 -5.832031 3.265625 -5.4375 C 2.859375 -5.03125 2.664062 -4.554688 2.6875 -4.015625 L 2.6875 -4 L 2.671875 -4 L 2.671875 0 L 0.46875 0 L 0.46875 -10.234375 L 2.671875 -10.234375 L 2.671875 -7.09375 C 3.171875 -7.675781 3.832031 -8.003906 4.65625 -8.078125 C 5.8125 -8.171875 6.769531 -7.875 7.53125 -7.1875 C 8.332031 -6.4375 8.734375 -5.390625 8.734375 -4.046875 Z M 8.734375 0 "/></g></g></g><g fill="#0097b2" fill-opacity="1"><g transform="translate(242.665223, 366.392525)"><g><path d="M 6.296875 -8.140625 L 8.5 -8.140625 L 8.5 0 L 6.296875 0 L 6.296875 -0.90625 C 5.847656 -0.320312 5.164062 -0.03125 4.25 -0.03125 C 3.132812 -0.0195312 2.179688 -0.410156 1.390625 -1.203125 C 0.585938 -1.984375 0.179688 -2.9375 0.171875 -4.0625 C 0.160156 -5.175781 0.550781 -6.132812 1.34375 -6.9375 C 2.125 -7.726562 3.078125 -8.128906 4.203125 -8.140625 C 5.128906 -8.140625 5.828125 -7.84375 6.296875 -7.25 Z M 5.640625 -2.671875 C 6.023438 -3.066406 6.21875 -3.539062 6.21875 -4.09375 C 6.21875 -4.664062 6.019531 -5.140625 5.625 -5.515625 C 5.226562 -5.910156 4.757812 -6.097656 4.21875 -6.078125 C 3.664062 -6.078125 3.191406 -5.882812 2.796875 -5.5 C 2.410156 -5.101562 2.21875 -4.628906 2.21875 -4.078125 C 2.21875 -3.535156 2.414062 -3.0625 2.8125 -2.65625 C 3.207031 -2.269531 3.679688 -2.078125 4.234375 -2.078125 C 4.804688 -2.097656 5.273438 -2.296875 5.640625 -2.671875 Z M 5.640625 -2.671875 "/></g></g></g><g fill="#0097b2" fill-opacity="1"><g transform="translate(251.642689, 366.392525)"><g><path d="M 4.5 -8.078125 C 5.65625 -8.171875 6.613281 -7.875 7.375 -7.1875 C 8.175781 -6.4375 8.578125 -5.390625 8.578125 -4.046875 L 8.578125 0 L 6.53125 0 L 6.53125 -4 L 6.515625 -4 L 6.515625 -4.03125 C 6.515625 -4.582031 6.320312 -5.054688 5.9375 -5.453125 C 5.550781 -5.835938 5.078125 -6.03125 4.515625 -6.03125 C 3.953125 -6.007812 3.484375 -5.8125 3.109375 -5.4375 C 2.703125 -5.03125 2.507812 -4.554688 2.53125 -4.015625 L 2.53125 -4 L 2.515625 -4 L 2.515625 0 L 0.3125 0 L 0.3125 -8.140625 L 2.515625 -8.140625 L 2.515625 -7.09375 C 3.015625 -7.675781 3.675781 -8.003906 4.5 -8.078125 Z M 4.5 -8.078125 "/></g></g></g><g fill="#0097b2" fill-opacity="1"><g transform="translate(260.541397, 366.392525)"><g><path d="M 4.5 -8.078125 C 5.65625 -8.171875 6.613281 -7.875 7.375 -7.1875 C 8.175781 -6.4375 8.578125 -5.390625 8.578125 -4.046875 L 8.578125 0 L 6.53125 0 L 6.53125 -4 L 6.515625 -4 L 6.515625 -4.03125 C 6.515625 -4.582031 6.320312 -5.054688 5.9375 -5.453125 C 5.550781 -5.835938 5.078125 -6.03125 4.515625 -6.03125 C 3.953125 -6.007812 3.484375 -5.8125 3.109375 -5.4375 C 2.703125 -5.03125 2.507812 -4.554688 2.53125 -4.015625 L 2.53125 -4 L 2.515625 -4 L 2.515625 0 L 0.3125 0 L 0.3125 -8.140625 L 2.515625 -8.140625 L 2.515625 -7.09375 C 3.015625 -7.675781 3.675781 -8.003906 4.5 -8.078125 Z M 4.5 -8.078125 "/></g></g></g><g fill="#0097b2" fill-opacity="1"><g transform="translate(269.440105, 366.392525)"><g><path d="M 8.28125 -3.703125 C 8.289062 -3.484375 8.289062 -3.351562 8.28125 -3.3125 L 2.359375 -3.328125 C 2.441406 -3.085938 2.59375 -2.851562 2.8125 -2.625 C 3.226562 -2.238281 3.703125 -2.046875 4.234375 -2.046875 C 4.804688 -2.066406 5.28125 -2.265625 5.65625 -2.640625 L 5.71875 -2.703125 L 7.765625 -2.0625 C 7.316406 -1.363281 6.84375 -0.859375 6.34375 -0.546875 C 5.789062 -0.191406 5.09375 -0.0078125 4.25 0 C 3.132812 0.0078125 2.179688 -0.378906 1.390625 -1.171875 C 0.585938 -1.953125 0.179688 -2.90625 0.171875 -4.03125 C 0.160156 -5.144531 0.550781 -6.101562 1.34375 -6.90625 C 2.125 -7.695312 3.078125 -8.097656 4.203125 -8.109375 C 5.316406 -8.117188 6.273438 -7.734375 7.078125 -6.953125 C 7.867188 -6.160156 8.269531 -5.203125 8.28125 -4.078125 Z M 4.21875 -6.046875 C 3.664062 -6.046875 3.191406 -5.851562 2.796875 -5.46875 C 2.597656 -5.25 2.457031 -5.023438 2.375 -4.796875 L 6.078125 -4.796875 C 5.992188 -5.023438 5.847656 -5.253906 5.640625 -5.484375 C 5.242188 -5.859375 4.769531 -6.046875 4.21875 -6.046875 Z M 4.21875 -6.046875 "/></g></g></g><g fill="#0097b2" fill-opacity="1"><g transform="translate(277.897815, 366.392525)"><g><path d="M 2.671875 -10.953125 L 2.671875 0 L 0.46875 0 L 0.46875 -10.953125 Z M 2.671875 -10.953125 "/></g></g></g></svg>