<svg xmlns="http://www.w3.org/2000/svg" xmlns:xlink="http://www.w3.org/1999/xlink" width="500" zoomAndPan="magnify" viewBox="0 0 375 374.999991" height="500" preserveAspectRatio="xMidYMid meet" version="1.0"><defs><g/><clipPath id="01df8295c4"><path d="M 28.660156 4 L 346.660156 4 L 346.660156 371.371094 L 28.660156 371.371094 Z M 28.660156 4 " clip-rule="nonzero"/></clipPath><clipPath id="feb8f9e121"><path d="M 331 147 L 337 147 L 337 152 L 331 152 Z M 331 147 " clip-rule="nonzero"/></clipPath><clipPath id="897836dfec"><path d="M 206.535156 318.75 L 26.296875 173.070312 L 163.019531 3.914062 L 343.257812 149.59375 Z M 206.535156 318.75 " clip-rule="nonzero"/></clipPath><clipPath id="22e926fa06"><path d="M 206.535156 318.75 L 26.296875 173.070312 L 163.019531 3.914062 L 343.257812 149.59375 Z M 206.535156 318.75 " clip-rule="nonzero"/></clipPath><clipPath id="c7eef6f320"><path d="M 206.535156 318.75 L 26.296875 173.070312 L 163.019531 3.914062 L 343.257812 149.59375 Z M 206.535156 318.75 " clip-rule="nonzero"/></clipPath><clipPath id="5ebeb555cd"><path d="M 39 100 L 326 100 L 326 163 L 39 163 Z M 39 100 " clip-rule="nonzero"/></clipPath><clipPath id="445c0c5d60"><path d="M 206.535156 318.75 L 26.296875 173.070312 L 163.019531 3.914062 L 343.257812 149.59375 Z M 206.535156 318.75 " clip-rule="nonzero"/></clipPath><clipPath id="50526b63a7"><path d="M 206.535156 318.75 L 26.296875 173.070312 L 163.019531 3.914062 L 343.257812 149.59375 Z M 206.535156 318.75 " clip-rule="nonzero"/></clipPath><clipPath id="56444f40a4"><path d="M 206.535156 318.75 L 26.296875 173.070312 L 163.019531 3.914062 L 343.257812 149.59375 Z M 206.535156 318.75 " clip-rule="nonzero"/></clipPath><clipPath id="98db27ccf7"><path d="M 32 167 L 37 167 L 37 174 L 32 174 Z M 32 167 " clip-rule="nonzero"/></clipPath><clipPath id="f2f41be75d"><path d="M 206.535156 318.75 L 26.296875 173.070312 L 163.019531 3.914062 L 343.257812 149.59375 Z M 206.535156 318.75 " clip-rule="nonzero"/></clipPath><clipPath id="01d22a4d9e"><path d="M 206.535156 318.75 L 26.296875 173.070312 L 163.019531 3.914062 L 343.257812 149.59375 Z M 206.535156 318.75 " clip-rule="nonzero"/></clipPath><clipPath id="78228ada78"><path d="M 206.535156 318.75 L 26.296875 173.070312 L 163.019531 3.914062 L 343.257812 149.59375 Z M 206.535156 318.75 " clip-rule="nonzero"/></clipPath><clipPath id="2ae4a06b65"><path d="M 331 145 L 342 145 L 342 156 L 331 156 Z M 331 145 " clip-rule="nonzero"/></clipPath><clipPath id="0c1f01fd8a"><path d="M 206.535156 318.75 L 26.296875 173.070312 L 163.019531 3.914062 L 343.257812 149.59375 Z M 206.535156 318.75 " clip-rule="nonzero"/></clipPath><clipPath id="ee217985b5"><path d="M 206.535156 318.75 L 26.296875 173.070312 L 163.019531 3.914062 L 343.257812 149.59375 Z M 206.535156 318.75 " clip-rule="nonzero"/></clipPath><clipPath id="5776332c1f"><path d="M 206.535156 318.75 L 26.296875 173.070312 L 163.019531 3.914062 L 343.257812 149.59375 Z M 206.535156 318.75 " clip-rule="nonzero"/></clipPath><clipPath id="796e5cb875"><path d="M 28 167 L 39 167 L 39 178 L 28 178 Z M 28 167 " clip-rule="nonzero"/></clipPath><clipPath id="6ad760310e"><path d="M 206.535156 318.75 L 26.296875 173.070312 L 163.019531 3.914062 L 343.257812 149.59375 Z M 206.535156 318.75 " clip-rule="nonzero"/></clipPath><clipPath id="4f087c45db"><path d="M 206.535156 318.75 L 26.296875 173.070312 L 163.019531 3.914062 L 343.257812 149.59375 Z M 206.535156 318.75 " clip-rule="nonzero"/></clipPath><clipPath id="9e6a0d2ebb"><path d="M 206.535156 318.75 L 26.296875 173.070312 L 163.019531 3.914062 L 343.257812 149.59375 Z M 206.535156 318.75 " clip-rule="nonzero"/></clipPath><clipPath id="f36ffb9e20"><path d="M 82.867188 108.667969 L 244.117188 108.667969 L 244.117188 266 L 82.867188 266 Z M 82.867188 108.667969 " clip-rule="nonzero"/></clipPath><clipPath id="b00905111d"><path d="M 184.902344 108.667969 L 302.652344 108.667969 L 302.652344 241.417969 L 184.902344 241.417969 Z M 184.902344 108.667969 " clip-rule="nonzero"/></clipPath><clipPath id="4c8b756690"><path d="M 13.566406 132 L 43.566406 132 L 43.566406 241.371094 L 13.566406 241.371094 Z M 13.566406 132 " clip-rule="nonzero"/></clipPath><clipPath id="87081faa02"><path d="M 312.777344 179 L 326 179 L 326 245 L 312.777344 245 Z M 312.777344 179 " clip-rule="nonzero"/></clipPath><clipPath id="29b6346111"><path d="M 321.019531 125.941406 L 364.527344 125.941406 L 364.527344 245.742188 L 321.019531 245.742188 Z M 321.019531 125.941406 " clip-rule="nonzero"/></clipPath><clipPath id="9e77e0f766"><path d="M 187 85 L 201 85 L 201 99.15625 L 187 99.15625 Z M 187 85 " clip-rule="nonzero"/></clipPath></defs><rect x="-37.5" width="450" fill="#ffffff" y="-37.499999" height="449.999989" fill-opacity="1"/><rect x="-37.5" width="450" fill="#ffffff" y="-37.499999" height="449.999989" fill-opacity="1"/><g clip-path="url(#01df8295c4)"><path fill="#000000" d="M 346.660156 133.800781 L 339.480469 133.800781 L 339.480469 100.003906 L 187.660156 12.316406 L 35.839844 100.003906 L 35.839844 133.800781 L 28.660156 133.800781 L 28.660156 95.84375 L 187.660156 4.066406 L 346.660156 95.84375 Z M 346.660156 279.398438 L 346.660156 241.4375 L 339.480469 241.4375 L 339.480469 275.234375 L 187.660156 362.851562 L 35.839844 275.234375 L 35.839844 241.4375 L 28.660156 241.4375 L 28.660156 279.398438 L 187.660156 371.175781 Z M 346.660156 279.398438 " fill-opacity="1" fill-rule="nonzero"/></g><g clip-path="url(#feb8f9e121)"><g clip-path="url(#897836dfec)"><g clip-path="url(#22e926fa06)"><g clip-path="url(#c7eef6f320)"><path fill="#000000" d="M 336.777344 148.980469 L 335.535156 151.542969 C 334.25 150.921875 332.972656 150.300781 331.6875 149.683594 L 332.917969 147.113281 C 334.207031 147.730469 335.492188 148.355469 336.777344 148.980469 Z M 336.777344 148.980469 " fill-opacity="1" fill-rule="nonzero"/></g></g></g></g><g clip-path="url(#5ebeb555cd)"><g clip-path="url(#445c0c5d60)"><g clip-path="url(#50526b63a7)"><g clip-path="url(#56444f40a4)"><path fill="#000000" d="M 325.339844 143.492188 L 324.117188 146.066406 C 321.511719 144.832031 318.957031 143.632812 316.53125 142.511719 L 317.730469 139.925781 C 320.164062 141.050781 322.722656 142.25 325.339844 143.492188 Z M 310.085938 136.425781 L 308.914062 139.023438 C 306.328125 137.855469 303.753906 136.707031 301.261719 135.617188 L 302.40625 133.007812 C 304.90625 134.105469 307.492188 135.253906 310.089844 136.425781 Z M 294.679688 129.679688 L 293.570312 132.308594 C 290.976562 131.207031 288.375 130.128906 285.835938 129.097656 L 286.90625 126.457031 C 289.460938 127.492188 292.074219 128.582031 294.675781 129.683594 Z M 279.085938 123.34375 L 278.058594 126 C 275.4375 124.980469 272.800781 123.984375 270.230469 123.039062 L 271.214844 120.363281 C 273.796875 121.3125 276.445312 122.320312 279.085938 123.34375 Z M 263.289062 117.53125 L 262.359375 120.222656 C 259.707031 119.300781 257.035156 118.40625 254.429688 117.5625 L 255.304688 114.851562 C 257.929688 115.703125 260.617188 116.605469 263.289062 117.53125 Z M 247.261719 112.34375 L 246.449219 115.078125 C 243.757812 114.269531 241.058594 113.496094 238.414062 112.777344 L 239.160156 110.03125 C 241.820312 110.757812 244.550781 111.539062 247.265625 112.347656 Z M 231 107.910156 L 230.328125 110.683594 C 227.605469 110.015625 224.867188 109.386719 222.191406 108.808594 L 222.789062 106.019531 C 225.488281 106.601562 228.25 107.238281 231 107.910156 Z M 214.519531 104.363281 L 214.003906 107.164062 C 211.265625 106.660156 208.5 106.191406 205.777344 105.773438 L 206.203125 102.953125 C 208.953125 103.375 211.75 103.847656 214.515625 104.359375 Z M 197.847656 101.816406 L 197.515625 104.652344 C 194.738281 104.320312 191.945312 104.035156 189.222656 103.808594 L 189.457031 100.96875 C 192.214844 101.199219 195.039062 101.484375 197.851562 101.820312 Z M 181.035156 100.402344 L 180.90625 103.253906 C 179.464844 103.183594 178.007812 103.128906 176.582031 103.085938 C 175.257812 103.050781 173.914062 103.027344 172.585938 103.015625 L 172.605469 100.164062 C 173.949219 100.171875 175.316406 100.199219 176.65625 100.234375 C 178.105469 100.277344 179.582031 100.332031 181.035156 100.402344 Z M 164.152344 100.289062 L 164.265625 103.140625 C 161.515625 103.246094 158.714844 103.410156 155.957031 103.632812 L 155.722656 100.792969 C 158.523438 100.566406 161.363281 100.398438 164.15625 100.292969 Z M 147.316406 101.65625 L 147.675781 104.488281 C 144.929688 104.835938 142.15625 105.246094 139.441406 105.707031 L 138.957031 102.894531 C 141.714844 102.425781 144.523438 102.007812 147.316406 101.65625 Z M 130.667969 104.5 L 131.273438 107.289062 C 128.570312 107.875 125.847656 108.535156 123.183594 109.238281 L 122.449219 106.484375 C 125.152344 105.769531 127.917969 105.101562 130.667969 104.507812 Z M 114.332031 108.832031 L 115.191406 111.550781 C 112.546875 112.386719 109.902344 113.289062 107.324219 114.242188 L 106.335938 111.566406 C 108.957031 110.601562 111.644531 109.679688 114.332031 108.832031 Z M 98.476562 114.6875 L 99.597656 117.3125 C 97.042969 118.398438 94.5 119.5625 92.039062 120.765625 L 90.78125 118.199219 C 93.289062 116.976562 95.878906 115.792969 98.472656 114.6875 Z M 83.285156 122.113281 L 84.675781 124.605469 C 82.246094 125.957031 79.84375 127.382812 77.535156 128.835938 L 76.011719 126.425781 C 78.363281 124.9375 80.8125 123.488281 83.285156 122.109375 Z M 68.984375 131.152344 L 70.652344 133.472656 C 68.394531 135.089844 66.175781 136.78125 64.058594 138.503906 L 62.257812 136.289062 C 64.417969 134.53125 66.683594 132.800781 68.988281 131.148438 Z M 55.855469 141.832031 L 57.792969 143.929688 C 55.761719 145.808594 53.777344 147.765625 51.898438 149.75 L 49.824219 147.789062 C 51.746094 145.757812 53.777344 143.757812 55.851562 141.835938 Z M 44.210938 154.128906 L 46.410156 155.949219 C 46.148438 156.273438 45.878906 156.597656 45.617188 156.925781 C 44.144531 158.742188 42.71875 160.621094 41.367188 162.511719 L 39.042969 160.855469 C 40.425781 158.917969 41.886719 156.996094 43.390625 155.132812 C 43.660156 154.800781 43.933594 154.464844 44.207031 154.132812 Z M 44.210938 154.128906 " fill-opacity="1" fill-rule="nonzero"/></g></g></g></g><g clip-path="url(#98db27ccf7)"><g clip-path="url(#f2f41be75d)"><g clip-path="url(#01d22a4d9e)"><g clip-path="url(#78228ada78)"><path fill="#000000" d="M 36.804688 169.421875 C 36.070312 170.625 35.355469 171.84375 34.671875 173.066406 L 32.179688 171.667969 C 32.882812 170.421875 33.617188 169.164062 34.367188 167.933594 Z M 36.804688 169.421875 " fill-opacity="1" fill-rule="nonzero"/></g></g></g></g><g clip-path="url(#2ae4a06b65)"><g clip-path="url(#0c1f01fd8a)"><g clip-path="url(#ee217985b5)"><g clip-path="url(#5776332c1f)"><path fill="#000000" d="M 332.253906 147.105469 C 332.457031 146.851562 332.6875 146.617188 332.941406 146.40625 C 333.195312 146.195312 333.464844 146.011719 333.753906 145.855469 C 334.042969 145.699219 334.34375 145.570312 334.660156 145.472656 C 334.972656 145.375 335.296875 145.308594 335.621094 145.273438 C 335.949219 145.238281 336.277344 145.238281 336.605469 145.269531 C 336.933594 145.296875 337.257812 145.359375 337.570312 145.453125 C 337.886719 145.546875 338.191406 145.667969 338.484375 145.824219 C 338.773438 145.976562 339.050781 146.15625 339.304688 146.363281 C 339.5625 146.570312 339.796875 146.800781 340.007812 147.054688 C 340.21875 147.308594 340.402344 147.578125 340.558594 147.867188 C 340.71875 148.15625 340.84375 148.457031 340.941406 148.773438 C 341.042969 149.085938 341.109375 149.410156 341.144531 149.734375 C 341.179688 150.0625 341.179688 150.390625 341.152344 150.71875 C 341.121094 151.046875 341.058594 151.367188 340.96875 151.683594 C 340.875 152 340.75 152.304688 340.597656 152.59375 C 340.445312 152.886719 340.265625 153.160156 340.058594 153.417969 C 339.851562 153.671875 339.621094 153.90625 339.371094 154.117188 C 339.117188 154.328125 338.84375 154.511719 338.554688 154.667969 C 338.265625 154.824219 337.964844 154.953125 337.652344 155.050781 C 337.335938 155.148438 337.015625 155.214844 336.6875 155.246094 C 336.359375 155.28125 336.03125 155.285156 335.703125 155.253906 C 335.375 155.222656 335.054688 155.164062 334.738281 155.070312 C 334.421875 154.976562 334.121094 154.851562 333.828125 154.699219 C 333.535156 154.546875 333.261719 154.367188 333.003906 154.160156 C 332.75 153.949219 332.515625 153.722656 332.304688 153.46875 C 332.09375 153.214844 331.910156 152.945312 331.75 152.65625 C 331.59375 152.363281 331.464844 152.0625 331.367188 151.75 C 331.269531 151.433594 331.203125 151.113281 331.167969 150.785156 C 331.132812 150.457031 331.128906 150.128906 331.160156 149.804688 C 331.1875 149.476562 331.25 149.152344 331.34375 148.835938 C 331.4375 148.523438 331.558594 148.21875 331.710938 147.925781 C 331.867188 147.636719 332.046875 147.363281 332.253906 147.105469 Z M 332.253906 147.105469 " fill-opacity="1" fill-rule="nonzero"/></g></g></g></g><g clip-path="url(#796e5cb875)"><g clip-path="url(#6ad760310e)"><g clip-path="url(#4f087c45db)"><g clip-path="url(#9e6a0d2ebb)"><path fill="#000000" d="M 29.523438 169.210938 C 29.730469 168.953125 29.960938 168.722656 30.214844 168.511719 C 30.46875 168.300781 30.738281 168.117188 31.027344 167.960938 C 31.316406 167.800781 31.617188 167.675781 31.933594 167.578125 C 32.246094 167.480469 32.570312 167.414062 32.894531 167.378906 C 33.222656 167.34375 33.550781 167.34375 33.878906 167.371094 C 34.207031 167.402344 34.527344 167.464844 34.84375 167.558594 C 35.160156 167.652344 35.464844 167.773438 35.757812 167.925781 C 36.046875 168.082031 36.324219 168.261719 36.578125 168.46875 C 36.835938 168.675781 37.070312 168.90625 37.28125 169.160156 C 37.492188 169.410156 37.675781 169.683594 37.832031 169.972656 C 37.992188 170.261719 38.117188 170.5625 38.214844 170.878906 C 38.316406 171.191406 38.382812 171.511719 38.417969 171.839844 C 38.453125 172.167969 38.453125 172.496094 38.425781 172.824219 C 38.394531 173.152344 38.332031 173.472656 38.242188 173.789062 C 38.148438 174.105469 38.023438 174.40625 37.871094 174.699219 C 37.71875 174.992188 37.539062 175.265625 37.332031 175.519531 C 37.125 175.777344 36.894531 176.007812 36.640625 176.21875 C 36.390625 176.429688 36.117188 176.613281 35.828125 176.773438 C 35.539062 176.929688 35.238281 177.054688 34.925781 177.152344 C 34.609375 177.25 34.289062 177.316406 33.960938 177.351562 C 33.632812 177.386719 33.304688 177.390625 32.976562 177.359375 C 32.648438 177.328125 32.328125 177.265625 32.011719 177.171875 C 31.695312 177.078125 31.390625 176.957031 31.101562 176.804688 C 30.808594 176.648438 30.535156 176.46875 30.277344 176.261719 C 30.023438 176.054688 29.789062 175.824219 29.578125 175.574219 C 29.367188 175.320312 29.183594 175.046875 29.023438 174.757812 C 28.867188 174.46875 28.738281 174.167969 28.640625 173.851562 C 28.542969 173.539062 28.476562 173.21875 28.441406 172.890625 C 28.40625 172.5625 28.402344 172.234375 28.433594 171.90625 C 28.460938 171.578125 28.523438 171.257812 28.617188 170.941406 C 28.710938 170.625 28.832031 170.324219 28.984375 170.03125 C 29.136719 169.738281 29.316406 169.464844 29.523438 169.210938 Z M 29.523438 169.210938 " fill-opacity="1" fill-rule="nonzero"/></g></g></g></g><path fill="#000000" d="M 215.859375 151.804688 C 215.667969 151.460938 215.449219 151.105469 215.410156 151.019531 C 214.804688 149.667969 214.398438 148.214844 214.1875 146.75 C 213.609375 142.75 214.347656 139.019531 215.878906 135.3125 C 216.339844 134.199219 216.847656 133.097656 217.332031 131.992188 C 217.390625 131.859375 217.640625 131.046875 217.832031 131.035156 C 217.972656 131.027344 218.066406 132.21875 218.078125 132.3125 C 218.273438 133.800781 218.503906 135.292969 218.804688 136.761719 C 219.636719 140.851562 220.359375 145.078125 219.496094 149.234375 C 219.203125 150.644531 218.628906 152.542969 217.257812 153.355469 C 216.417969 160.882812 213.101562 167.6875 210.820312 174.851562 C 211.148438 174.222656 211.492188 173.601562 211.855469 172.992188 C 215.054688 167.609375 219.535156 163.5625 225.128906 160.78125 C 226.339844 160.179688 227.558594 159.609375 228.796875 159.074219 C 228.941406 159.011719 229.820312 158.519531 229.949219 158.667969 C 230.136719 158.886719 229.429688 160.140625 229.335938 160.351562 C 228.542969 162.160156 227.6875 163.941406 226.886719 165.746094 C 224.320312 171.546875 219.710938 175.945312 214.378906 179.230469 C 213.042969 180.054688 210.847656 181.632812 209.085938 181.746094 C 207.914062 188.40625 208.25 195.078125 209.679688 201.65625 C 209.714844 200.75 209.769531 199.847656 209.839844 198.945312 C 210.140625 195.144531 210.703125 190.152344 213.101562 186.871094 C 212.910156 186.679688 212.746094 186.453125 212.628906 186.191406 C 212.089844 185.023438 212.605469 183.640625 213.777344 183.109375 C 214.949219 182.574219 216.335938 183.085938 216.871094 184.253906 C 217.410156 185.421875 216.894531 186.804688 215.722656 187.339844 C 215.332031 187.515625 214.917969 187.578125 214.519531 187.539062 C 212.113281 190.574219 211.65625 195.421875 211.371094 199.0625 C 211.332031 199.554688 211.296875 200.042969 211.269531 200.53125 C 212.234375 195.808594 214.058594 191.128906 217.089844 187.351562 C 217.503906 186.835938 219.746094 183.675781 220.679688 183.953125 C 220.917969 184.023438 220.621094 185.289062 220.601562 185.46875 C 220.410156 187.136719 220.394531 188.832031 220.402344 190.511719 C 220.433594 196.3125 219.046875 201.238281 215.542969 206 C 214.53125 207.375 212.917969 208.285156 211.898438 209.597656 C 212.929688 212.785156 214.035156 215.949219 215.082031 219.125 C 215.222656 218.667969 215.367188 218.207031 215.511719 217.75 C 216.390625 215.003906 217.597656 212.417969 219.3125 210.09375 C 219.351562 210.035156 219.398438 209.988281 219.449219 209.945312 C 219.414062 209.878906 219.375 209.8125 219.34375 209.742188 C 218.808594 208.574219 219.324219 207.191406 220.496094 206.65625 C 221.664062 206.121094 223.050781 206.636719 223.589844 207.804688 C 224.125 208.972656 223.609375 210.351562 222.4375 210.886719 C 221.832031 211.164062 221.164062 211.160156 220.59375 210.929688 C 220.578125 210.953125 220.5625 210.972656 220.546875 210.996094 C 218.933594 213.191406 217.800781 215.628906 216.972656 218.214844 C 216.683594 219.117188 216.40625 220.023438 216.144531 220.9375 C 216.105469 221.070312 216.136719 221.28125 216.136719 221.472656 C 216.140625 221.738281 216.121094 221.984375 216.070312 222.15625 L 216.0625 222.183594 C 217.011719 225.238281 217.863281 228.324219 218.5 231.480469 C 218.898438 233.457031 217.390625 233.726562 216.996094 231.78125 C 216.4375 228.996094 215.703125 226.269531 214.886719 223.566406 C 214.457031 223.21875 213.976562 222.875 213.933594 222.847656 C 211.914062 221.441406 209.558594 220.386719 207.265625 219.523438 C 201.871094 217.488281 198.050781 214.484375 196.132812 208.910156 C 195.839844 208.058594 194.546875 204.929688 195.144531 204.007812 C 195.1875 203.945312 196.304688 204.820312 196.386719 204.875 C 197.816406 205.875 199.230469 206.890625 200.621094 207.941406 C 203.808594 210.347656 206.84375 212.871094 209.875 215.457031 C 211.09375 216.5 212.269531 217.429688 213.269531 218.519531 C 212.035156 214.808594 210.734375 211.117188 209.589844 207.367188 C 208.34375 203.277344 207.476562 199.136719 207.082031 194.976562 C 206.636719 194.882812 205.855469 194.832031 205.566406 194.738281 C 204.1875 194.300781 202.875 193.691406 201.625 192.972656 C 196.316406 189.921875 192.5625 184.671875 190.617188 178.949219 C 189.980469 177.085938 189.425781 175.175781 189.078125 173.238281 C 189.03125 172.972656 188.695312 171.703125 189.078125 171.511719 C 189.265625 171.417969 190.078125 172.703125 190.179688 172.832031 C 191.3125 174.246094 192.6875 175.410156 193.988281 176.664062 C 198.070312 180.605469 202.214844 184.78125 205.328125 189.585938 C 205.082031 188.589844 204.828125 187.597656 204.550781 186.609375 C 203.292969 182.109375 201.875 177.808594 199.085938 174.015625 C 199.078125 174.003906 199.070312 173.992188 199.0625 173.980469 C 197.957031 174.324219 196.738281 173.800781 196.246094 172.726562 C 195.707031 171.558594 196.226562 170.175781 197.398438 169.640625 C 198.566406 169.109375 199.953125 169.621094 200.492188 170.789062 C 200.84375 171.558594 200.742188 172.421875 200.292969 173.074219 C 200.304688 173.085938 200.316406 173.097656 200.324219 173.113281 C 203.222656 177.058594 204.71875 181.519531 206.027344 186.199219 C 206.320312 187.242188 206.585938 188.289062 206.847656 189.339844 C 206.890625 185.675781 207.332031 182.003906 208.238281 178.335938 C 208.945312 175.464844 209.914062 172.675781 210.925781 169.910156 C 210.898438 169.714844 210.890625 169.238281 210.824219 169.042969 C 210.613281 168.40625 210.363281 167.777344 210.074219 167.171875 C 209.25 165.453125 208.175781 163.859375 207.097656 162.285156 C 203.570312 157.132812 201.050781 152.4375 200.554688 146.058594 C 200.445312 144.621094 200.398438 143.160156 200.542969 141.722656 C 200.5625 141.546875 200.582031 140.433594 200.789062 140.335938 C 200.882812 140.292969 201.769531 141.8125 201.835938 141.910156 C 202.976562 143.582031 204.226562 145.183594 205.449219 146.796875 C 208.273438 150.511719 209.460938 154.667969 210.640625 159.109375 C 210.976562 160.363281 211.296875 161.527344 211.570312 162.65625 C 211.660156 161.480469 211.714844 160.300781 211.710938 159.121094 C 211.683594 154.222656 211.15625 149.371094 209.632812 144.710938 C 208.746094 144.710938 207.898438 144.207031 207.503906 143.351562 C 206.96875 142.183594 207.484375 140.804688 208.65625 140.269531 C 209.824219 139.734375 211.210938 140.246094 211.75 141.414062 C 212.203125 142.40625 211.902344 143.554688 211.082031 144.203125 C 212.660156 149.027344 213.214844 154.046875 213.242188 159.113281 C 213.25 160.851562 213.132812 162.585938 212.964844 164.3125 C 214.378906 160.269531 215.570312 156.167969 215.859375 151.804688 Z M 215.859375 151.804688 " fill-opacity="1" fill-rule="evenodd"/><g clip-path="url(#f36ffb9e20)"><path fill="#000000" d="M 220.308594 226.867188 L 210.449219 226.867188 C 209.25 232.511719 207.394531 236.953125 204.890625 240.175781 C 200.683594 245.441406 195.554688 249.398438 189.484375 252.03125 C 183.261719 254.671875 176.261719 255.988281 168.484375 255.988281 C 154.636719 255.988281 143.824219 251.570312 136.046875 242.726562 C 133.398438 239.625 131.378906 235.363281 129.976562 229.9375 C 128.574219 224.507812 127.878906 219.550781 127.878906 215.050781 L 127.878906 131.558594 C 127.878906 126.441406 128.421875 122.71875 129.507812 120.394531 C 130.753906 117.910156 132.230469 116.363281 133.941406 115.742188 L 135.8125 115.042969 C 137.050781 114.578125 137.910156 114.269531 138.378906 114.113281 C 138.996094 113.957031 140.324219 113.878906 142.34375 113.878906 L 148.882812 113.183594 L 148.882812 108.765625 L 82.835938 108.765625 L 82.835938 113.414062 L 92.167969 114.8125 C 94.820312 114.964844 96.992188 115.585938 98.707031 116.671875 C 100.265625 117.757812 101.503906 119.695312 102.4375 122.484375 C 103.375 125.277344 103.835938 129.230469 103.835938 134.347656 L 103.835938 212.492188 C 103.835938 219.46875 104.851562 225.988281 106.875 232.035156 C 109.046875 238.699219 112.242188 244.441406 116.4375 249.246094 C 126.550781 260.40625 141.800781 265.984375 162.179688 265.984375 C 183.183594 265.984375 198.503906 260.945312 208.15625 250.867188 C 212.507812 246.0625 216.007812 240.09375 218.65625 232.964844 C 219.296875 230.96875 219.839844 228.941406 220.308594 226.867188 Z M 211.453125 129.828125 L 222.652344 129.828125 C 222.960938 127.511719 223.421875 125.453125 224.019531 123.648438 C 225.269531 120.238281 226.742188 117.988281 228.453125 116.902344 C 230.789062 115.507812 233.203125 114.5 235.691406 113.878906 L 244.09375 112.949219 L 244.09375 108.765625 L 189.949219 108.765625 L 189.949219 113.414062 C 195.863281 113.414062 200.53125 114.269531 203.949219 115.972656 C 207.222656 117.679688 209.394531 120.625 210.488281 124.8125 C 210.878906 126.203125 211.203125 127.875 211.453125 129.828125 Z M 211.453125 129.828125 " fill-opacity="1" fill-rule="nonzero"/></g><path fill="#000000" d="M 214.074219 153.457031 C 213.914062 153.164062 213.730469 152.863281 213.695312 152.789062 C 213.183594 151.648438 212.839844 150.414062 212.660156 149.171875 C 212.171875 145.78125 212.792969 142.621094 214.09375 139.476562 C 214.484375 138.53125 214.910156 137.601562 215.324219 136.664062 C 215.375 136.550781 215.585938 135.859375 215.746094 135.851562 C 215.863281 135.84375 215.945312 136.851562 215.957031 136.933594 C 216.117188 138.195312 216.316406 139.457031 216.570312 140.703125 C 217.273438 144.171875 217.886719 147.757812 217.15625 151.277344 C 216.910156 152.472656 216.421875 154.082031 215.261719 154.769531 C 214.550781 161.152344 211.742188 166.921875 209.808594 172.996094 C 210.085938 172.460938 210.378906 171.933594 210.683594 171.417969 C 213.394531 166.851562 217.1875 163.425781 221.925781 161.066406 C 222.949219 160.554688 223.980469 160.074219 225.03125 159.621094 C 225.152344 159.566406 225.898438 159.148438 226.007812 159.273438 C 226.167969 159.457031 225.566406 160.523438 225.488281 160.703125 C 224.816406 162.234375 224.089844 163.746094 223.414062 165.277344 C 221.242188 170.191406 217.339844 173.921875 212.824219 176.707031 C 211.691406 177.402344 209.832031 178.742188 208.339844 178.835938 C 207.347656 184.484375 207.632812 190.140625 208.84375 195.714844 C 208.875 194.949219 208.917969 194.183594 208.980469 193.417969 C 209.234375 190.195312 209.710938 185.964844 211.742188 183.183594 C 211.578125 183.023438 211.441406 182.828125 211.339844 182.605469 C 210.882812 181.617188 211.320312 180.445312 212.3125 179.992188 C 213.304688 179.539062 214.480469 179.976562 214.933594 180.964844 C 215.386719 181.953125 214.949219 183.125 213.960938 183.578125 C 213.628906 183.730469 213.277344 183.78125 212.941406 183.75 C 210.902344 186.324219 210.519531 190.433594 210.273438 193.519531 C 210.242188 193.933594 210.214844 194.347656 210.1875 194.765625 C 211.007812 190.757812 212.550781 186.792969 215.117188 183.589844 C 215.46875 183.15625 217.367188 180.472656 218.15625 180.707031 C 218.359375 180.769531 218.109375 181.84375 218.09375 181.992188 C 217.929688 183.410156 217.917969 184.847656 217.921875 186.269531 C 217.949219 191.1875 216.773438 195.363281 213.808594 199.398438 C 212.953125 200.5625 211.585938 201.335938 210.722656 202.449219 C 211.59375 205.152344 212.53125 207.832031 213.417969 210.527344 C 213.535156 210.136719 213.65625 209.75 213.78125 209.359375 C 214.527344 207.03125 215.546875 204.839844 217 202.867188 C 217.03125 202.820312 217.074219 202.78125 217.117188 202.746094 C 217.085938 202.6875 217.054688 202.628906 217.027344 202.570312 C 216.570312 201.582031 217.007812 200.410156 218 199.957031 C 218.992188 199.503906 220.167969 199.9375 220.621094 200.929688 C 221.074219 201.917969 220.636719 203.089844 219.648438 203.542969 C 219.132812 203.777344 218.570312 203.773438 218.082031 203.578125 C 218.070312 203.597656 218.058594 203.617188 218.046875 203.632812 C 216.679688 205.492188 215.71875 207.558594 215.019531 209.753906 C 214.773438 210.519531 214.539062 211.289062 214.316406 212.058594 C 214.285156 212.175781 214.308594 212.355469 214.3125 212.515625 C 214.3125 212.738281 214.296875 212.949219 214.253906 213.097656 L 214.246094 213.117188 C 215.050781 215.707031 215.773438 218.324219 216.3125 221 C 216.648438 222.675781 216.875 224.375 217.101562 226.066406 C 217.144531 226.371094 217.316406 226.984375 217.324219 227.464844 C 217.328125 227.8125 217.25 228.113281 217.105469 228.324219 C 216.90625 228.621094 216.5 228.699219 216.207031 228.496094 C 215.917969 228.300781 215.835938 227.917969 216.015625 227.625 C 216.015625 227.585938 216.019531 227.320312 215.996094 227.164062 C 215.941406 226.808594 215.84375 226.449219 215.816406 226.242188 C 215.59375 224.574219 215.371094 222.902344 215.039062 221.253906 C 214.5625 218.894531 213.945312 216.582031 213.25 214.289062 C 212.886719 213.996094 212.480469 213.703125 212.445312 213.679688 C 210.734375 212.488281 208.738281 211.59375 206.796875 210.863281 C 202.230469 209.136719 198.996094 206.59375 197.371094 201.867188 C 197.125 201.144531 196.027344 198.492188 196.535156 197.710938 C 196.570312 197.65625 197.519531 198.398438 197.585938 198.445312 C 198.800781 199.292969 199.996094 200.152344 201.171875 201.046875 C 203.871094 203.085938 206.441406 205.222656 209.007812 207.417969 C 210.042969 208.300781 211.035156 209.089844 211.882812 210.011719 C 210.835938 206.867188 209.734375 203.738281 208.769531 200.558594 C 207.710938 197.089844 206.976562 193.582031 206.644531 190.054688 C 206.265625 189.976562 205.605469 189.933594 205.359375 189.855469 C 204.191406 189.480469 203.082031 188.964844 202.023438 188.355469 C 197.527344 185.769531 194.347656 181.316406 192.699219 176.46875 C 192.164062 174.886719 191.695312 173.269531 191.398438 171.625 C 191.359375 171.402344 191.074219 170.328125 191.398438 170.164062 C 191.558594 170.082031 192.246094 171.171875 192.332031 171.28125 C 193.292969 172.480469 194.457031 173.46875 195.554688 174.53125 C 199.011719 177.871094 202.523438 181.410156 205.160156 185.484375 C 204.949219 184.640625 204.734375 183.796875 204.5 182.960938 C 203.433594 179.144531 202.234375 175.5 199.875 172.285156 C 199.867188 172.277344 199.859375 172.265625 199.851562 172.253906 C 198.917969 172.546875 197.886719 172.105469 197.46875 171.191406 C 197.011719 170.203125 197.449219 169.03125 198.441406 168.578125 C 199.433594 168.125 200.605469 168.558594 201.0625 169.550781 C 201.359375 170.203125 201.273438 170.933594 200.894531 171.488281 C 200.902344 171.496094 200.914062 171.507812 200.921875 171.519531 C 203.375 174.863281 204.640625 178.644531 205.75 182.613281 C 206 183.496094 206.222656 184.386719 206.445312 185.277344 C 206.480469 182.171875 206.855469 179.054688 207.621094 175.949219 C 208.21875 173.511719 209.039062 171.152344 209.898438 168.804688 C 209.875 168.640625 209.867188 168.234375 209.8125 168.070312 C 209.632812 167.53125 209.421875 166.996094 209.179688 166.484375 C 208.480469 165.027344 207.570312 163.675781 206.65625 162.34375 C 203.671875 157.972656 201.535156 153.996094 201.117188 148.585938 C 201.023438 147.367188 200.984375 146.128906 201.105469 144.910156 C 201.121094 144.761719 201.136719 143.816406 201.316406 143.734375 C 201.394531 143.699219 202.144531 144.988281 202.199219 145.070312 C 203.164062 146.488281 204.226562 147.84375 205.261719 149.210938 C 207.652344 152.359375 208.65625 155.882812 209.65625 159.648438 C 209.941406 160.710938 210.214844 161.699219 210.445312 162.65625 C 210.519531 161.660156 210.566406 160.660156 210.5625 159.660156 C 210.539062 155.507812 210.09375 151.394531 208.804688 147.441406 C 208.054688 147.445312 207.332031 147.015625 207 146.292969 C 206.546875 145.300781 206.984375 144.132812 207.976562 143.675781 C 208.96875 143.222656 210.140625 143.660156 210.59375 144.648438 C 210.980469 145.492188 210.722656 146.460938 210.03125 147.015625 C 211.367188 151.101562 211.839844 155.355469 211.859375 159.652344 C 211.867188 161.125 211.765625 162.59375 211.625 164.058594 C 212.820312 160.632812 213.832031 157.15625 214.074219 153.457031 Z M 214.074219 153.457031 " fill-opacity="1" fill-rule="evenodd"/><g clip-path="url(#b00905111d)"><path fill="#000000" d="M 222.859375 215.390625 L 202.566406 215.390625 L 202.566406 221.902344 C 202.566406 228.582031 201.09375 232.792969 198.148438 234.527344 C 196.675781 235.464844 194.800781 236.132812 192.523438 236.53125 C 190.515625 237.066406 187.96875 237.335938 184.890625 237.335938 L 184.890625 241.34375 L 293.171875 241.34375 L 302.617188 206.464844 L 297.796875 206.464844 C 295.253906 212.746094 292.238281 217.824219 288.757812 221.699219 C 285.269531 225.574219 281.453125 228.316406 277.304688 229.917969 C 276.230469 230.453125 274.625 231.054688 272.484375 231.722656 L 271.074219 232.125 C 269.332031 232.65625 267.390625 232.925781 265.25 232.925781 L 249.980469 233.925781 L 233.910156 233.925781 C 232.167969 233.925781 230.425781 233.59375 228.683594 232.925781 C 227.078125 232.390625 226.140625 232.125 225.871094 232.125 C 223.863281 231.054688 222.859375 229.25 222.859375 226.710938 Z M 202.566406 134.601562 L 222.859375 134.601562 L 222.859375 128.492188 C 222.859375 122.34375 224.265625 118.203125 227.078125 116.066406 C 230.023438 113.792969 234.914062 112.65625 241.742188 112.65625 L 241.742188 108.648438 L 184.890625 108.648438 L 184.890625 112.65625 C 189.710938 112.65625 193.527344 113.324219 196.339844 114.660156 C 198.617188 115.730469 200.222656 117.46875 201.160156 119.875 C 202.097656 122.277344 202.566406 125.753906 202.566406 130.296875 Z M 202.566406 134.601562 " fill-opacity="1" fill-rule="nonzero"/></g><g clip-path="url(#4c8b756690)"><path fill="#000000" d="M 18.449219 145.089844 C 17.925781 145.410156 17.914062 145.851562 18.019531 146.34375 C 18.445312 148.382812 19.324219 150.269531 20.070312 152.195312 C 21.261719 155.273438 21.816406 158.449219 21.417969 161.753906 C 21.289062 162.828125 20.976562 163.84375 20.445312 164.789062 C 20.304688 165.03125 20.171875 165.289062 19.78125 165.460938 C 19.914062 164.488281 20.292969 163.648438 20.242188 162.742188 C 19.914062 163.851562 19.605469 164.964844 19.207031 166.046875 C 19.144531 166.214844 19.097656 166.386719 19.027344 166.550781 C 18.957031 166.707031 18.902344 166.925781 18.6875 166.90625 C 18.402344 166.882812 18.449219 166.628906 18.433594 166.4375 C 18.324219 165.03125 18.554688 163.636719 18.585938 162.070312 C 17.714844 164.296875 16.640625 166.183594 14.789062 167.546875 C 15.949219 164.632812 15.988281 161.6875 15.355469 158.695312 C 14.808594 161.082031 14.886719 163.546875 14.53125 166.027344 C 14.195312 165.878906 14.195312 165.652344 14.15625 165.449219 C 13.625 162.816406 13.566406 160.1875 14.171875 157.5625 C 14.621094 155.636719 14.597656 153.738281 14.105469 151.816406 C 13.59375 149.800781 13.582031 147.757812 14.140625 145.738281 C 14.683594 143.777344 15.886719 142.511719 17.941406 142.195312 C 18.46875 142.113281 18.625 141.839844 18.683594 141.359375 C 19.3125 135.839844 23.398438 132.136719 28.914062 132.0625 C 33.253906 132.003906 37.210938 133.179688 40.644531 135.890625 C 42.605469 137.445312 43.566406 139.5 43.265625 142.046875 C 43.183594 142.726562 43.042969 143.410156 42.265625 143.890625 C 42.234375 142.917969 42.386719 141.992188 41.820312 141.175781 C 42.085938 142.871094 41.460938 144.398438 41.011719 145.960938 C 40.734375 146.914062 41.003906 147.765625 41.597656 148.527344 C 41.777344 148.753906 41.957031 148.980469 42.144531 149.203125 C 42.496094 149.617188 42.472656 150 41.96875 150.226562 C 41.328125 150.515625 41.179688 151 41.253906 151.632812 C 41.300781 152.03125 41.335938 152.445312 40.898438 152.695312 C 40.792969 152.757812 40.769531 152.890625 40.851562 152.992188 C 41.238281 153.46875 40.894531 153.765625 40.585938 154.0625 C 40.261719 154.367188 40.117188 154.746094 40.054688 155.179688 C 39.890625 156.316406 39.328125 156.714844 38.164062 156.632812 C 37.359375 156.574219 36.605469 156.304688 35.820312 156.15625 C 34.714844 155.945312 34.144531 156.144531 33.761719 156.898438 C 33.320312 157.78125 33.488281 158.9375 34.15625 159.558594 C 34.589844 159.957031 35.113281 160.214844 35.636719 160.449219 C 36.828125 160.984375 37.542969 161.878906 37.960938 163.125 C 39.285156 167.09375 40.027344 171.183594 40.71875 175.292969 C 41.113281 177.621094 41.5625 179.9375 41.714844 182.296875 C 41.914062 185.414062 41.921875 188.527344 41.878906 191.648438 C 41.863281 192.863281 41.433594 193.417969 40.308594 193.628906 C 39.769531 193.730469 39.265625 194.011719 38.730469 194.160156 C 38.253906 194.289062 38.101562 194.585938 38.082031 195.039062 C 37.925781 199.023438 37.441406 202.980469 37.261719 206.964844 C 37.234375 207.574219 36.988281 207.824219 36.417969 207.796875 C 35.914062 207.769531 35.773438 208.015625 35.789062 208.492188 C 35.816406 209.292969 35.8125 210.097656 35.789062 210.894531 C 35.742188 212.339844 35.515625 213.757812 34.777344 215.007812 C 33.699219 216.832031 33.164062 218.78125 32.9375 220.875 C 32.621094 223.777344 32.277344 226.667969 32.3125 229.597656 C 32.332031 231.160156 33.019531 232.265625 34.289062 233.082031 C 35.519531 233.867188 36.878906 234.34375 38.261719 234.769531 C 38.984375 234.988281 39.714844 235.1875 40.382812 235.546875 C 40.984375 235.875 41.457031 236.320312 41.394531 237.0625 C 41.328125 237.804688 40.71875 238.054688 40.109375 238.246094 C 39.304688 238.5 38.46875 238.496094 37.574219 238.527344 C 37.640625 238.664062 37.671875 238.742188 37.71875 238.804688 C 38.253906 239.632812 38.054688 240.300781 37.125 240.632812 C 36.175781 240.976562 35.179688 241.066406 34.179688 241.113281 C 31.660156 241.234375 29.167969 241.042969 26.730469 240.339844 C 25.734375 240.050781 24.714844 240 23.699219 239.953125 C 21.175781 239.839844 20.855469 238.113281 21.144531 236.429688 C 21.277344 235.65625 21.558594 234.910156 21.945312 234.242188 C 22.695312 232.9375 22.640625 231.554688 22.480469 230.148438 C 22.167969 227.40625 21.621094 224.695312 21.445312 221.9375 C 21.335938 220.203125 21.6875 218.574219 22.316406 216.980469 C 22.847656 215.640625 23.5 214.335938 23.671875 212.875 C 23.839844 211.476562 23.890625 210.078125 23.894531 208.671875 C 23.894531 208.273438 23.667969 208.152344 23.339844 208.050781 C 21.921875 207.613281 21.972656 207.609375 22.097656 206.144531 C 22.25 204.390625 22.3125 202.632812 22.414062 200.875 C 22.425781 200.582031 22.371094 200.324219 22.152344 200.085938 C 19.332031 196.890625 19.179688 193.289062 20.570312 189.460938 C 20.710938 189.0625 20.855469 188.644531 21.097656 188.3125 C 22.171875 186.835938 22.09375 185.125 22.160156 183.441406 C 22.179688 182.976562 21.855469 182.722656 21.574219 182.441406 C 19.863281 180.753906 19.25 178.753906 19.816406 176.402344 C 20.074219 175.320312 20.332031 174.238281 20.566406 173.148438 C 20.902344 171.558594 21.136719 169.964844 20.984375 168.3125 C 20.785156 166.15625 21.554688 164.246094 22.734375 162.480469 C 23.082031 161.960938 23.445312 161.457031 23.792969 160.941406 C 23.914062 160.757812 24.101562 160.5625 24.117188 160.367188 C 24.21875 159.230469 25 158.691406 25.839844 158.089844 C 27.117188 157.175781 27.164062 154.847656 26.027344 153.742188 C 25.867188 153.589844 25.6875 153.542969 25.480469 153.546875 C 23.519531 153.574219 22.125 152.554688 20.980469 151.085938 C 19.753906 149.507812 19.023438 147.707031 18.675781 145.746094 C 18.636719 145.527344 18.636719 145.304688 18.445312 145.085938 Z M 18.449219 145.089844 " fill-opacity="1" fill-rule="nonzero"/></g><g clip-path="url(#87081faa02)"><path fill="#000000" d="M 322.441406 185.210938 L 322.726562 185.210938 L 314.328125 239.433594 L 313.929688 239.433594 L 313.308594 242.199219 L 313.042969 242.425781 L 312.777344 243.800781 C 312.777344 243.800781 312.871094 243.914062 312.96875 243.933594 C 313.0625 243.953125 315.691406 244.296875 315.691406 244.296875 C 315.691406 244.296875 315.785156 244.277344 315.824219 244.125 C 315.863281 243.972656 316.011719 242.75 316.011719 242.75 L 315.898438 242.558594 L 316.070312 239.792969 L 315.578125 239.546875 L 323.953125 185.421875 L 324.257812 185.421875 C 324.257812 185.421875 324.539062 183.820312 324.691406 183.496094 C 324.84375 183.171875 325.335938 181.894531 325.296875 180.636719 C 325.257812 179.375 323.652344 178.308594 323.027344 179.585938 C 322.402344 180.863281 322.496094 181.285156 322.480469 182.160156 C 322.460938 183.039062 322.480469 183.589844 322.480469 184.050781 C 322.480469 184.507812 322.441406 185.210938 322.441406 185.210938 " fill-opacity="1" fill-rule="nonzero"/></g><g clip-path="url(#29b6346111)"><path fill="#000000" d="M 364.515625 162.667969 C 364.363281 161.773438 364.328125 160.496094 363.53125 159.238281 C 362.738281 157.976562 362.09375 157.292969 361.699219 156.910156 C 361.300781 156.527344 361.015625 156.339844 361.054688 156.222656 C 361.09375 156.109375 361.179688 156.027344 361.097656 155.953125 C 361.082031 155.9375 361.058594 155.914062 361.019531 155.878906 C 360.9375 155.804688 360.789062 155.671875 360.515625 155.4375 C 360.105469 155.078125 359.507812 154.4375 359.167969 154.019531 C 358.828125 153.605469 358.019531 152.277344 357.707031 151.875 C 357.394531 151.476562 356.53125 149.972656 356.078125 149.585938 C 355.625 149.199219 355.507812 148.828125 354.914062 148.097656 C 354.320312 147.371094 354.546875 147.296875 354.234375 146.726562 C 353.921875 146.152344 353.820312 146.039062 353.394531 145.582031 C 352.972656 145.125 352.800781 145.179688 352.433594 144.679688 C 352.0625 144.179688 351.566406 143.835938 351.167969 143.621094 C 350.773438 143.40625 350.320312 143.265625 349.75 143.050781 C 349.183594 142.835938 348.601562 142.792969 348.191406 142.679688 C 347.78125 142.5625 347.496094 142.433594 347.496094 142.433594 C 347.496094 142.433594 348.09375 142.277344 348.164062 142.207031 C 348.164062 142.207031 347.792969 142.304688 347.679688 141.992188 C 347.566406 141.675781 347.652344 141.476562 347.582031 141.375 C 347.511719 141.277344 347.511719 140.976562 347.496094 140.574219 C 347.484375 140.175781 347.667969 139.703125 347.738281 140.117188 C 347.738281 140.117188 347.738281 139.804688 347.597656 139.71875 C 347.453125 139.632812 347.339844 139.304688 347.339844 139.101562 C 347.339844 138.902344 347.296875 138.445312 347.339844 138.328125 C 347.382812 138.214844 347.410156 138.386719 347.566406 138.832031 C 347.722656 139.273438 348.035156 139.375 348.035156 139.375 C 348.035156 139.375 347.609375 138.917969 347.609375 138.574219 C 347.609375 138.230469 347.402344 137.742188 347.324219 137.558594 C 347.242188 137.371094 347.070312 137.171875 347 136.871094 C 346.929688 136.570312 346.828125 136.355469 346.773438 135.683594 C 346.714844 135.011719 347.058594 135.957031 347.070312 136.15625 C 347.070312 136.15625 347.027344 135.597656 346.914062 135.339844 C 346.800781 135.082031 346.5625 134.78125 346.53125 134.667969 C 346.503906 134.554688 346.105469 133.296875 346.179688 132.523438 C 346.25 131.75 346.21875 131.363281 346.007812 130.90625 C 345.796875 130.449219 345.398438 129.847656 345.382812 129.804688 C 345.371094 129.761719 345.824219 130.046875 345.921875 130.347656 C 345.921875 130.347656 345.765625 129.789062 345.566406 129.632812 C 345.371094 129.476562 345.101562 129.332031 344.945312 128.960938 C 344.789062 128.589844 344.433594 128.101562 344.292969 127.988281 C 344.148438 127.875 343.9375 127.703125 343.371094 127.515625 C 342.800781 127.328125 342.6875 126.800781 341.453125 126.488281 C 340.222656 126.171875 339.613281 125.929688 338.40625 125.941406 C 337.199219 125.957031 336.519531 126.113281 335.851562 126.472656 C 335.1875 126.828125 334.675781 126.957031 334.476562 126.914062 C 334.277344 126.871094 333.527344 127.117188 333.527344 127.117188 C 333.527344 127.117188 334.832031 126.914062 334.335938 127.128906 C 333.839844 127.34375 333.398438 127.429688 333.273438 127.574219 C 333.144531 127.71875 332.320312 128.1875 331.855469 128.617188 C 331.386719 129.046875 330.875 130.191406 330.890625 130.277344 C 330.890625 130.277344 331.429688 129.519531 331.316406 129.820312 C 331.199219 130.121094 331.328125 130.40625 330.972656 130.847656 C 330.621094 131.292969 330.292969 132.121094 330.378906 132.539062 C 330.464844 132.953125 330.476562 133.394531 330.449219 133.4375 C 330.421875 133.480469 330.660156 134.082031 331.003906 134.296875 C 331.34375 134.511719 331.386719 134.625 331.386719 134.625 C 331.386719 134.625 331.046875 135.296875 331.074219 135.796875 C 331.101562 136.300781 331.171875 136.484375 331.285156 136.785156 C 331.398438 137.085938 331.429688 137.757812 331.386719 138.042969 C 331.34375 138.328125 331.285156 138.644531 331.34375 139.074219 C 331.398438 139.503906 331.78125 141.148438 331.8125 141.707031 C 331.820312 141.863281 331.820312 142.03125 331.820312 142.1875 C 331.820312 142.398438 331.726562 142.597656 331.710938 142.808594 C 331.699219 143.03125 331.734375 143.234375 331.835938 143.410156 C 332.003906 143.707031 332.105469 143.820312 332.425781 143.929688 C 332.648438 144 332.90625 144.074219 332.957031 144.339844 C 333.019531 144.679688 332.761719 144.878906 332.472656 144.980469 C 332.324219 145.035156 332.199219 145.046875 332.042969 145.042969 C 331.8125 145.035156 331.597656 145.097656 331.378906 145.160156 C 330.964844 145.28125 330.542969 145.464844 330.238281 145.78125 C 329.585938 146.453125 329.214844 147.542969 329.015625 148.027344 C 328.816406 148.515625 328.550781 149.628906 328.433594 150.257812 C 328.324219 150.886719 328.492188 151.933594 328.082031 153.476562 C 327.667969 155.023438 327.160156 157.324219 326.675781 158.113281 C 326.195312 158.898438 326.109375 159.15625 325.984375 159.328125 C 325.855469 159.5 325.585938 159.585938 325.839844 159.984375 C 326.097656 160.386719 326.335938 160.6875 326.335938 160.6875 C 326.335938 160.6875 325.8125 161.773438 325.472656 162.675781 C 325.132812 163.574219 324.863281 164.347656 324.691406 164.761719 C 324.523438 165.175781 324.152344 167.238281 324.109375 168.738281 C 324.066406 170.242188 324.207031 172.972656 324.195312 173.960938 C 324.179688 174.945312 324.066406 175.589844 323.9375 176.277344 C 323.8125 176.964844 323.671875 177.578125 323.484375 177.808594 C 323.300781 178.035156 322.960938 178.394531 322.363281 178.765625 C 321.769531 179.136719 321.429688 179.253906 321.386719 179.625 C 321.34375 179.996094 321.386719 180.125 321.273438 180.410156 C 321.160156 180.699219 320.949219 181.011719 321.101562 181.226562 C 321.257812 181.441406 321.300781 181.484375 321.289062 181.582031 C 321.273438 181.683594 321.445312 182.070312 321.488281 182.542969 C 321.527344 183.011719 321.542969 183.601562 321.726562 183.84375 C 321.914062 184.085938 322.238281 184.285156 322.410156 184.601562 C 322.578125 184.917969 322.777344 185.101562 322.945312 184.875 C 323.117188 184.644531 323.246094 184.015625 323.132812 183.65625 C 323.019531 183.300781 322.789062 183 322.789062 182.726562 C 322.789062 182.511719 322.722656 182.292969 322.757812 182.078125 C 322.789062 181.882812 322.910156 181.722656 322.96875 181.53125 C 323.023438 181.359375 323.027344 181.128906 323.011719 180.9375 C 322.972656 180.550781 323.019531 180.269531 323.230469 179.945312 C 323.535156 179.46875 324 179.257812 324.5 179.589844 C 324.996094 179.921875 325.0625 180.558594 325.0625 181.109375 C 325.066406 181.582031 325.117188 182.125 324.847656 182.542969 C 324.632812 182.871094 324.324219 183.542969 324.523438 183.886719 C 324.71875 184.230469 324.789062 184.503906 325.117188 184.316406 C 325.441406 184.128906 325.542969 183.527344 325.785156 183.328125 C 326.023438 183.128906 326.351562 182.785156 326.40625 182.285156 C 326.464844 181.785156 326.507812 181.414062 326.777344 181.039062 C 327.046875 180.667969 327.484375 179.09375 327.484375 178.738281 C 327.484375 178.378906 327.429688 178.25 327.570312 177.636719 C 327.710938 177.019531 327.824219 175.046875 327.839844 174.53125 C 327.855469 174.015625 328.265625 172.859375 328.378906 172.359375 C 328.492188 171.855469 328.578125 171.585938 328.71875 171.34375 C 328.863281 171.097656 329.273438 170.414062 329.273438 170.414062 C 329.273438 170.414062 329.472656 170.65625 329.542969 171.070312 C 329.613281 171.484375 330.363281 173.800781 330.648438 174.933594 C 330.929688 176.0625 331.144531 179.109375 331.117188 179.625 C 331.085938 180.140625 331.160156 181.96875 331.214844 182.542969 C 331.273438 183.113281 331.613281 185.386719 331.472656 185.6875 C 331.328125 185.988281 331.214844 185.988281 330.902344 186.261719 C 330.589844 186.53125 330.09375 187.277344 329.753906 187.433594 C 329.414062 187.589844 328.945312 187.546875 328.988281 187.761719 C 329.03125 187.976562 329.074219 188.164062 329.371094 188.363281 C 329.667969 188.5625 329.9375 188.691406 329.96875 188.949219 C 329.996094 189.207031 329.980469 189.40625 330.335938 189.652344 C 330.691406 189.894531 330.804688 189.863281 330.816406 190.167969 C 330.832031 190.464844 330.859375 190.808594 331.214844 190.964844 C 331.570312 191.125 332.195312 191.195312 332.195312 191.195312 C 332.195312 191.195312 332.207031 193.882812 332.421875 195.574219 C 332.632812 197.261719 333.058594 200.578125 333.058594 201.980469 C 333.058594 203.382812 333.414062 206.042969 333.34375 206.972656 C 333.273438 207.902344 333.398438 210.191406 333.386719 210.707031 C 333.371094 211.222656 333.457031 213.410156 332.902344 214.769531 C 332.351562 216.128906 333.117188 216.441406 333.839844 216.3125 C 334.5625 216.183594 334.578125 216.042969 335.144531 216.15625 C 335.710938 216.269531 336.136719 216.4375 336.535156 216.339844 C 336.929688 216.242188 337.230469 216.027344 337.683594 216.285156 C 338.136719 216.542969 338.363281 217 338.691406 217.011719 C 339.015625 217.027344 339.230469 217.273438 339.230469 217.273438 C 339.230469 217.273438 339.285156 218.058594 339.570312 218.757812 C 339.851562 219.460938 340.109375 220.203125 340.078125 220.402344 C 340.050781 220.605469 339.613281 223.507812 339.667969 224.550781 C 339.726562 225.597656 340.050781 229.386719 339.867188 230.402344 C 339.683594 231.417969 339.269531 232.804688 339.042969 233.421875 C 338.816406 234.035156 338.703125 234.734375 338.617188 234.765625 C 338.535156 234.792969 338.390625 234.90625 338.347656 235.066406 C 338.308594 235.222656 338.335938 235.492188 338.195312 235.695312 C 338.050781 235.894531 337.46875 237.167969 337.257812 237.613281 C 337.042969 238.054688 336.761719 238.441406 336.648438 238.554688 C 336.535156 238.667969 336.546875 238.769531 336.277344 238.8125 C 336.007812 238.855469 335.46875 239.257812 335.214844 239.457031 C 334.960938 239.65625 334.292969 240.359375 333.457031 240.742188 C 332.617188 241.128906 331.882812 241.730469 331.738281 242.089844 C 331.597656 242.445312 331.613281 242.644531 331.585938 242.859375 C 331.554688 243.074219 331.1875 243.632812 331.484375 243.820312 C 331.78125 244.003906 333.144531 244.363281 334.71875 244.5625 C 336.292969 244.761719 337.257812 244.949219 338.234375 245.175781 C 339.214844 245.40625 340.476562 245.59375 340.945312 245.621094 C 341.414062 245.648438 342.6875 245.964844 342.6875 245.449219 C 342.6875 244.933594 342.644531 244.789062 342.84375 244.363281 C 343.042969 243.933594 343.113281 243.863281 343.042969 243.777344 C 342.972656 243.691406 342.914062 243.574219 342.957031 243.503906 C 343 243.433594 343.183594 242.875 343.199219 242.53125 C 343.214844 242.1875 343.15625 242.046875 343.15625 242.046875 C 343.15625 242.046875 346.191406 241.929688 347.226562 241.488281 C 348.261719 241.042969 348.363281 240.773438 348.757812 240.601562 C 349.15625 240.429688 350.546875 240.1875 351.15625 240.101562 C 351.765625 240.015625 353.566406 239.898438 353.652344 239.472656 C 353.738281 239.042969 353.625 238.855469 353.59375 238.484375 C 353.566406 238.113281 353.808594 237.480469 353.394531 237.410156 C 352.984375 237.339844 352.660156 237.296875 352.417969 237.339844 C 352.175781 237.382812 351.992188 237.394531 351.992188 237.394531 C 351.992188 237.394531 352.589844 236.710938 352.21875 235.894531 C 351.851562 235.078125 351.511719 234.464844 351.3125 233.847656 C 351.113281 233.234375 350.277344 231.5625 350.25 231.246094 C 350.21875 230.929688 350.628906 230.546875 350.445312 230.316406 C 350.261719 230.085938 350.019531 229.617188 349.992188 229.515625 C 349.964844 229.414062 349.835938 228.558594 349.75 228.300781 C 349.667969 228.042969 349.59375 227.886719 349.59375 227.886719 C 349.59375 227.886719 349.609375 227.910156 349.480469 227.539062 C 349.480469 227.539062 349.015625 225.953125 348.859375 224.667969 C 348.703125 223.378906 348.660156 221.332031 348.25 220.144531 C 347.835938 218.957031 347.511719 218.101562 347.511719 218.101562 C 347.511719 218.101562 347.410156 217.871094 347.738281 217.6875 C 348.0625 217.5 348.363281 217.816406 348.261719 217.214844 C 348.164062 216.613281 347.835938 216.210938 348.035156 216.027344 C 348.234375 215.839844 349.851562 215.3125 349.75 214.953125 C 349.652344 214.597656 349.636719 214.308594 349.75 214.167969 C 349.867188 214.023438 350.136719 214.140625 350.007812 213.539062 C 349.878906 212.9375 349.128906 211.019531 349.324219 209.589844 C 349.523438 208.160156 349.582031 207.042969 349.667969 206.273438 C 349.75 205.5 350.488281 204.3125 350.460938 203.410156 C 350.433594 202.511719 350.714844 201.324219 350.84375 200.609375 C 350.972656 199.894531 352.25 195.988281 352.671875 194.527344 C 353.097656 193.070312 353.992188 190.007812 354.132812 189.265625 C 354.277344 188.519531 354.320312 188.222656 354.445312 188.164062 C 354.574219 188.105469 355.550781 188.121094 355.46875 187.847656 C 355.382812 187.578125 355.367188 187.363281 355.480469 187.234375 C 355.59375 187.105469 355.992188 186.976562 355.976562 186.703125 C 355.964844 186.433594 355.820312 186.160156 356.046875 185.945312 C 356.277344 185.730469 356.53125 185.589844 356.417969 185.300781 C 356.304688 185.015625 356.234375 184.601562 356.234375 184.488281 C 356.234375 184.375 356.554688 182.027344 356.707031 180.5 C 356.859375 178.976562 357.101562 175.542969 356.441406 174.511719 C 355.777344 173.484375 355.675781 172.664062 355.625 172.207031 C 355.570312 171.746094 355.210938 171.042969 355.078125 170.71875 C 354.945312 170.394531 354.964844 170.183594 354.871094 169.726562 C 354.777344 169.269531 354.398438 168.640625 354.359375 168.335938 C 354.324219 168.027344 354.324219 168.027344 354.324219 168.027344 C 354.324219 168.027344 358.160156 167.074219 359.296875 166.484375 C 360.429688 165.894531 362.078125 164.804688 362.945312 164.480469 C 363.816406 164.15625 364.667969 163.566406 364.515625 162.667969 Z M 346.035156 234.90625 C 346.007812 235.265625 345.867188 235.492188 345.765625 235.695312 C 345.667969 235.894531 345.523438 235.839844 345.226562 235.839844 C 344.929688 235.839844 344.605469 236.46875 344.304688 237.011719 C 344.007812 237.554688 343.042969 238.113281 343.042969 238.113281 C 343.042969 238.113281 343 237.996094 342.972656 237.742188 C 342.945312 237.480469 342.988281 237.511719 343.128906 237.351562 C 343.269531 237.195312 343.269531 236.667969 343.296875 236.324219 C 343.328125 235.980469 343.625 235.121094 343.765625 234.664062 C 343.910156 234.207031 343.964844 234.0625 344.023438 233.835938 C 344.078125 233.605469 343.964844 233.460938 343.992188 233.390625 C 344.023438 233.320312 344.105469 233.078125 344.164062 232.863281 C 344.222656 232.648438 345 230.585938 345 230.585938 C 345 230.585938 345.015625 230.789062 345.058594 230.972656 C 345.101562 231.160156 345.226562 231.5625 345.285156 231.875 C 345.339844 232.191406 345.640625 232.234375 345.765625 232.304688 C 345.894531 232.375 346.035156 233.132812 346.035156 233.347656 C 346.035156 233.5625 346.09375 233.820312 346.105469 234.0625 C 346.121094 234.308594 346.066406 234.550781 346.035156 234.90625 Z M 355.097656 161.800781 C 354.84375 161.929688 354.390625 162.101562 354.191406 162.230469 C 353.992188 162.359375 353.769531 162.46875 353.835938 162.332031 C 353.835938 162.332031 354.121094 161.746094 354.207031 161.542969 C 354.289062 161.34375 354.375 161.144531 354.417969 161.015625 C 354.460938 160.886719 354.558594 160.757812 354.558594 160.558594 C 354.558594 160.359375 354.558594 160.058594 354.558594 160.058594 C 354.558594 160.058594 354.644531 159.984375 354.898438 160.273438 C 355.15625 160.558594 355.210938 160.628906 355.324219 160.886719 C 355.4375 161.144531 355.625 161.472656 355.625 161.472656 C 355.625 161.472656 355.355469 161.671875 355.097656 161.800781 " fill-opacity="1" fill-rule="nonzero"/></g><path fill="#000000" d="M 173.796875 81.449219 C 173.796875 81.449219 163.320312 73 166.285156 69.578125 C 169.25 66.15625 173.203125 73 173.203125 73 C 173.203125 73 176.957031 66.765625 179.921875 68.570312 C 182.886719 70.378906 173.796875 81.449219 173.796875 81.449219 Z M 173.796875 81.449219 " fill-opacity="1" fill-rule="nonzero"/><g clip-path="url(#9e77e0f766)"><path fill="#000000" d="M 195.535156 99.15625 C 195.535156 99.15625 185.660156 89.492188 188.226562 87.28125 C 190.796875 85.070312 194.546875 90.707031 194.546875 90.707031 C 194.546875 90.707031 197.511719 83.867188 200.277344 85.476562 C 203.046875 87.085938 195.535156 99.15625 195.535156 99.15625 Z M 195.535156 99.15625 " fill-opacity="1" fill-rule="nonzero"/></g><g fill="#000000" fill-opacity="0.4"><g transform="translate(138.759225, 69.295682)"><g><path d="M 1.765625 -20.328125 L 5.046875 -22.15625 L 9.796875 -13.65625 C 10.828125 -11.8125 10.988281 -9.894531 10.28125 -7.90625 C 9.632812 -6.101562 8.523438 -4.765625 6.953125 -3.890625 C 5.441406 -3.046875 3.773438 -2.800781 1.953125 -3.15625 C -0.148438 -3.5625 -1.738281 -4.726562 -2.8125 -6.65625 L -7.546875 -15.109375 L -4.265625 -16.953125 L 0.46875 -8.5 C 0.96875 -7.59375 1.691406 -7.050781 2.640625 -6.875 C 3.109375 -6.769531 3.578125 -6.757812 4.046875 -6.84375 C 4.472656 -6.90625 4.828125 -7.015625 5.109375 -7.171875 C 5.378906 -7.316406 5.6875 -7.570312 6.03125 -7.9375 C 6.375 -8.382812 6.613281 -8.796875 6.75 -9.171875 C 6.90625 -9.671875 6.96875 -10.109375 6.9375 -10.484375 C 6.914062 -10.910156 6.773438 -11.359375 6.515625 -11.828125 Z M 1.765625 -20.328125 "/></g></g></g><g fill="#000000" fill-opacity="0.4"><g transform="translate(156.529343, 60.066559)"><g><path d="M 3.625 -4.84375 L 11.421875 -7.109375 L 12.4375 -3.609375 L 0.75 -0.21875 L -3.953125 -16.421875 L -0.0625 -17.546875 Z M 3.625 -4.84375 "/></g></g></g><g fill="#000000" fill-opacity="0.4"><g transform="translate(173.852827, 55.804107)"><g><path d="M -1.5625 -16.8125 L 2.453125 -17.28125 L 4.40625 -0.515625 L 0.390625 -0.046875 Z M -1.5625 -16.8125 "/></g></g></g><g fill="#000000" fill-opacity="0.4"><g transform="translate(183.125672, 54.650191)"><g><path d="M 7.640625 0.515625 C 6.503906 0.441406 5.507812 0.210938 4.65625 -0.171875 C 4 -0.503906 3.320312 -1.007812 2.625 -1.6875 C 1.84375 -2.5 1.378906 -3.46875 1.234375 -4.59375 C 1.171875 -4.96875 1.148438 -5.335938 1.171875 -5.703125 C 1.160156 -5.828125 1.164062 -5.945312 1.1875 -6.0625 L 1.203125 -6.25 L 4.734375 -5.984375 L 4.734375 -6 C 4.691406 -5.363281 4.800781 -4.828125 5.0625 -4.390625 C 5.53125 -3.585938 6.460938 -3.140625 7.859375 -3.046875 C 10.109375 -2.910156 11.265625 -3.363281 11.328125 -4.40625 C 11.398438 -5.425781 10.285156 -6.140625 7.984375 -6.546875 C 6.660156 -6.785156 5.53125 -7.140625 4.59375 -7.609375 C 3.75 -8.015625 3.066406 -8.539062 2.546875 -9.1875 C 1.828125 -10.101562 1.503906 -11.125 1.578125 -12.25 C 1.628906 -12.96875 1.796875 -13.625 2.078125 -14.21875 C 2.304688 -14.675781 2.59375 -15.085938 2.9375 -15.453125 C 4.25 -16.742188 6.210938 -17.304688 8.828125 -17.140625 C 10.410156 -17.046875 11.722656 -16.648438 12.765625 -15.953125 C 13.554688 -15.429688 14.1875 -14.769531 14.65625 -13.96875 C 15 -13.351562 15.222656 -12.660156 15.328125 -11.890625 C 15.367188 -11.617188 15.390625 -11.351562 15.390625 -11.09375 C 15.410156 -11.019531 15.414062 -10.941406 15.40625 -10.859375 L 15.40625 -10.703125 L 11.859375 -10.921875 L 11.84375 -10.890625 C 11.90625 -11.398438 11.804688 -11.847656 11.546875 -12.234375 C 11.035156 -13.035156 10.050781 -13.484375 8.59375 -13.578125 C 7.71875 -13.628906 6.988281 -13.566406 6.40625 -13.390625 C 5.675781 -13.148438 5.296875 -12.769531 5.265625 -12.25 C 5.203125 -11.1875 6.3125 -10.453125 8.59375 -10.046875 C 11.164062 -9.597656 12.984375 -8.679688 14.046875 -7.296875 C 14.742188 -6.335938 15.054688 -5.296875 14.984375 -4.171875 L 14.96875 -3.9375 C 14.96875 -3.832031 14.953125 -3.734375 14.921875 -3.640625 C 14.890625 -3.359375 14.835938 -3.109375 14.765625 -2.890625 C 14.554688 -2.203125 14.191406 -1.609375 13.671875 -1.109375 C 13.054688 -0.492188 12.257812 -0.046875 11.28125 0.234375 C 10.289062 0.503906 9.078125 0.597656 7.640625 0.515625 Z M 7.640625 0.515625 "/></g></g></g><g fill="#000000" fill-opacity="0.4"><g transform="translate(202.490838, 56.331248)"><g><path d="M 7.296875 2.28125 C 6.210938 1.945312 5.304688 1.492188 4.578125 0.921875 C 4.003906 0.453125 3.460938 -0.195312 2.953125 -1.03125 C 2.367188 -2 2.140625 -3.050781 2.265625 -4.1875 C 2.296875 -4.5625 2.367188 -4.925781 2.484375 -5.28125 C 2.492188 -5.394531 2.53125 -5.507812 2.59375 -5.625 L 2.640625 -5.796875 L 6.015625 -4.703125 L 6.015625 -4.71875 C 5.835938 -4.113281 5.816406 -3.570312 5.953125 -3.09375 C 6.222656 -2.1875 7.023438 -1.53125 8.359375 -1.125 C 10.515625 -0.457031 11.742188 -0.625 12.046875 -1.625 C 12.347656 -2.601562 11.429688 -3.554688 9.296875 -4.484375 C 8.066406 -5.023438 7.054688 -5.632812 6.265625 -6.3125 C 5.523438 -6.90625 4.976562 -7.578125 4.625 -8.328125 C 4.144531 -9.390625 4.078125 -10.460938 4.421875 -11.546875 C 4.628906 -12.234375 4.941406 -12.832031 5.359375 -13.34375 C 5.691406 -13.726562 6.0625 -14.0625 6.46875 -14.34375 C 8.039062 -15.28125 10.082031 -15.363281 12.59375 -14.59375 C 14.101562 -14.125 15.285156 -13.429688 16.140625 -12.515625 C 16.796875 -11.816406 17.257812 -11.023438 17.53125 -10.140625 C 17.707031 -9.460938 17.765625 -8.738281 17.703125 -7.96875 C 17.671875 -7.707031 17.625 -7.445312 17.5625 -7.1875 C 17.5625 -7.101562 17.550781 -7.019531 17.53125 -6.9375 L 17.484375 -6.796875 L 14.078125 -7.84375 L 14.0625 -7.8125 C 14.238281 -8.300781 14.242188 -8.757812 14.078125 -9.1875 C 13.785156 -10.09375 12.941406 -10.757812 11.546875 -11.1875 C 10.710938 -11.445312 9.988281 -11.554688 9.375 -11.515625 C 8.613281 -11.453125 8.15625 -11.171875 8 -10.671875 C 7.6875 -9.648438 8.585938 -8.675781 10.703125 -7.75 C 13.097656 -6.707031 14.648438 -5.390625 15.359375 -3.796875 C 15.816406 -2.710938 15.878906 -1.628906 15.546875 -0.546875 L 15.484375 -0.328125 C 15.453125 -0.234375 15.410156 -0.140625 15.359375 -0.046875 C 15.253906 0.210938 15.148438 0.453125 15.046875 0.671875 C 14.671875 1.285156 14.171875 1.773438 13.546875 2.140625 C 12.816406 2.585938 11.9375 2.828125 10.90625 2.859375 C 9.875 2.898438 8.671875 2.707031 7.296875 2.28125 Z M 7.296875 2.28125 "/></g></g></g><g fill="#000000" fill-opacity="0.4"><g transform="translate(220.974653, 62.634237)"><g><path d="M 7.5 -3.3125 L 6.015625 -0.734375 L 12.703125 3.125 L 10.875 6.28125 L 0.671875 0.390625 L 9.125 -14.21875 L 19.328125 -8.328125 L 17.5 -5.1875 L 10.8125 -9.046875 L 9.3125 -6.453125 L 15 -3.171875 L 13.1875 -0.03125 Z M 7.5 -3.3125 "/></g></g></g><g fill="#000000" fill-opacity="1"><g transform="translate(137.6113, 68.147743)"><g><path d="M 1.765625 -20.328125 L 5.046875 -22.15625 L 9.796875 -13.65625 C 10.828125 -11.8125 10.988281 -9.894531 10.28125 -7.90625 C 9.632812 -6.101562 8.523438 -4.765625 6.953125 -3.890625 C 5.441406 -3.046875 3.773438 -2.800781 1.953125 -3.15625 C -0.148438 -3.5625 -1.738281 -4.726562 -2.8125 -6.65625 L -7.546875 -15.109375 L -4.265625 -16.953125 L 0.46875 -8.5 C 0.96875 -7.59375 1.691406 -7.050781 2.640625 -6.875 C 3.109375 -6.769531 3.578125 -6.757812 4.046875 -6.84375 C 4.472656 -6.90625 4.828125 -7.015625 5.109375 -7.171875 C 5.378906 -7.316406 5.6875 -7.570312 6.03125 -7.9375 C 6.375 -8.382812 6.613281 -8.796875 6.75 -9.171875 C 6.90625 -9.671875 6.96875 -10.109375 6.9375 -10.484375 C 6.914062 -10.910156 6.773438 -11.359375 6.515625 -11.828125 Z M 1.765625 -20.328125 "/></g></g></g><g fill="#000000" fill-opacity="1"><g transform="translate(155.381401, 58.91862)"><g><path d="M 3.625 -4.84375 L 11.421875 -7.109375 L 12.4375 -3.609375 L 0.75 -0.21875 L -3.953125 -16.421875 L -0.0625 -17.546875 Z M 3.625 -4.84375 "/></g></g></g><g fill="#000000" fill-opacity="1"><g transform="translate(172.704902, 54.656168)"><g><path d="M -1.5625 -16.8125 L 2.453125 -17.28125 L 4.40625 -0.515625 L 0.390625 -0.046875 Z M -1.5625 -16.8125 "/></g></g></g><g fill="#000000" fill-opacity="1"><g transform="translate(181.977732, 53.502251)"><g><path d="M 7.640625 0.515625 C 6.503906 0.441406 5.507812 0.210938 4.65625 -0.171875 C 4 -0.503906 3.320312 -1.007812 2.625 -1.6875 C 1.84375 -2.5 1.378906 -3.46875 1.234375 -4.59375 C 1.171875 -4.96875 1.148438 -5.335938 1.171875 -5.703125 C 1.160156 -5.828125 1.164062 -5.945312 1.1875 -6.0625 L 1.203125 -6.25 L 4.734375 -5.984375 L 4.734375 -6 C 4.691406 -5.363281 4.800781 -4.828125 5.0625 -4.390625 C 5.53125 -3.585938 6.460938 -3.140625 7.859375 -3.046875 C 10.109375 -2.910156 11.265625 -3.363281 11.328125 -4.40625 C 11.398438 -5.425781 10.285156 -6.140625 7.984375 -6.546875 C 6.660156 -6.785156 5.53125 -7.140625 4.59375 -7.609375 C 3.75 -8.015625 3.066406 -8.539062 2.546875 -9.1875 C 1.828125 -10.101562 1.503906 -11.125 1.578125 -12.25 C 1.628906 -12.96875 1.796875 -13.625 2.078125 -14.21875 C 2.304688 -14.675781 2.59375 -15.085938 2.9375 -15.453125 C 4.25 -16.742188 6.210938 -17.304688 8.828125 -17.140625 C 10.410156 -17.046875 11.722656 -16.648438 12.765625 -15.953125 C 13.554688 -15.429688 14.1875 -14.769531 14.65625 -13.96875 C 15 -13.351562 15.222656 -12.660156 15.328125 -11.890625 C 15.367188 -11.617188 15.390625 -11.351562 15.390625 -11.09375 C 15.410156 -11.019531 15.414062 -10.941406 15.40625 -10.859375 L 15.40625 -10.703125 L 11.859375 -10.921875 L 11.84375 -10.890625 C 11.90625 -11.398438 11.804688 -11.847656 11.546875 -12.234375 C 11.035156 -13.035156 10.050781 -13.484375 8.59375 -13.578125 C 7.71875 -13.628906 6.988281 -13.566406 6.40625 -13.390625 C 5.675781 -13.148438 5.296875 -12.769531 5.265625 -12.25 C 5.203125 -11.1875 6.3125 -10.453125 8.59375 -10.046875 C 11.164062 -9.597656 12.984375 -8.679688 14.046875 -7.296875 C 14.742188 -6.335938 15.054688 -5.296875 14.984375 -4.171875 L 14.96875 -3.9375 C 14.96875 -3.832031 14.953125 -3.734375 14.921875 -3.640625 C 14.890625 -3.359375 14.835938 -3.109375 14.765625 -2.890625 C 14.554688 -2.203125 14.191406 -1.609375 13.671875 -1.109375 C 13.054688 -0.492188 12.257812 -0.046875 11.28125 0.234375 C 10.289062 0.503906 9.078125 0.597656 7.640625 0.515625 Z M 7.640625 0.515625 "/></g></g></g><g fill="#000000" fill-opacity="1"><g transform="translate(201.342899, 55.183308)"><g><path d="M 7.296875 2.28125 C 6.210938 1.945312 5.304688 1.492188 4.578125 0.921875 C 4.003906 0.453125 3.460938 -0.195312 2.953125 -1.03125 C 2.367188 -2 2.140625 -3.050781 2.265625 -4.1875 C 2.296875 -4.5625 2.367188 -4.925781 2.484375 -5.28125 C 2.492188 -5.394531 2.53125 -5.507812 2.59375 -5.625 L 2.640625 -5.796875 L 6.015625 -4.703125 L 6.015625 -4.71875 C 5.835938 -4.113281 5.816406 -3.570312 5.953125 -3.09375 C 6.222656 -2.1875 7.023438 -1.53125 8.359375 -1.125 C 10.515625 -0.457031 11.742188 -0.625 12.046875 -1.625 C 12.347656 -2.601562 11.429688 -3.554688 9.296875 -4.484375 C 8.066406 -5.023438 7.054688 -5.632812 6.265625 -6.3125 C 5.523438 -6.90625 4.976562 -7.578125 4.625 -8.328125 C 4.144531 -9.390625 4.078125 -10.460938 4.421875 -11.546875 C 4.628906 -12.234375 4.941406 -12.832031 5.359375 -13.34375 C 5.691406 -13.726562 6.0625 -14.0625 6.46875 -14.34375 C 8.039062 -15.28125 10.082031 -15.363281 12.59375 -14.59375 C 14.101562 -14.125 15.285156 -13.429688 16.140625 -12.515625 C 16.796875 -11.816406 17.257812 -11.023438 17.53125 -10.140625 C 17.707031 -9.460938 17.765625 -8.738281 17.703125 -7.96875 C 17.671875 -7.707031 17.625 -7.445312 17.5625 -7.1875 C 17.5625 -7.101562 17.550781 -7.019531 17.53125 -6.9375 L 17.484375 -6.796875 L 14.078125 -7.84375 L 14.0625 -7.8125 C 14.238281 -8.300781 14.242188 -8.757812 14.078125 -9.1875 C 13.785156 -10.09375 12.941406 -10.757812 11.546875 -11.1875 C 10.710938 -11.445312 9.988281 -11.554688 9.375 -11.515625 C 8.613281 -11.453125 8.15625 -11.171875 8 -10.671875 C 7.6875 -9.648438 8.585938 -8.675781 10.703125 -7.75 C 13.097656 -6.707031 14.648438 -5.390625 15.359375 -3.796875 C 15.816406 -2.710938 15.878906 -1.628906 15.546875 -0.546875 L 15.484375 -0.328125 C 15.453125 -0.234375 15.410156 -0.140625 15.359375 -0.046875 C 15.253906 0.210938 15.148438 0.453125 15.046875 0.671875 C 14.671875 1.285156 14.171875 1.773438 13.546875 2.140625 C 12.816406 2.585938 11.9375 2.828125 10.90625 2.859375 C 9.875 2.898438 8.671875 2.707031 7.296875 2.28125 Z M 7.296875 2.28125 "/></g></g></g><g fill="#000000" fill-opacity="1"><g transform="translate(219.826728, 61.486298)"><g><path d="M 7.5 -3.3125 L 6.015625 -0.734375 L 12.703125 3.125 L 10.875 6.28125 L 0.671875 0.390625 L 9.125 -14.21875 L 19.328125 -8.328125 L 17.5 -5.1875 L 10.8125 -9.046875 L 9.3125 -6.453125 L 15 -3.171875 L 13.1875 -0.03125 Z M 7.5 -3.3125 "/></g></g></g><g fill="#000000" fill-opacity="0.4"><g transform="translate(80.449204, 296.38961)"><g><path d="M 8.28125 -4.53125 L 8.28125 0 L 6.71875 0 L 6.71875 -0.625 C 6.019531 -0.125 5.238281 0.125 4.375 0.125 C 3.269531 0.125 2.320312 -0.269531 1.53125 -1.0625 C 0.75 -1.84375 0.359375 -2.789062 0.359375 -3.90625 C 0.359375 -5.007812 0.75 -5.957031 1.53125 -6.75 C 2.320312 -7.53125 3.269531 -7.921875 4.375 -7.921875 C 5.375 -7.921875 6.25 -7.597656 7 -6.953125 L 5.796875 -5.765625 C 5.367188 -6.078125 4.894531 -6.234375 4.375 -6.234375 C 3.71875 -6.234375 3.171875 -6.007812 2.734375 -5.5625 C 2.273438 -5.09375 2.046875 -4.539062 2.046875 -3.90625 C 2.046875 -3.257812 2.273438 -2.707031 2.734375 -2.25 C 3.191406 -1.789062 3.738281 -1.5625 4.375 -1.5625 C 5.007812 -1.5625 5.5625 -1.789062 6.03125 -2.25 C 6.050781 -2.257812 6.066406 -2.273438 6.078125 -2.296875 L 6.140625 -2.359375 C 6.203125 -2.421875 6.253906 -2.476562 6.296875 -2.53125 C 6.429688 -2.695312 6.523438 -2.84375 6.578125 -2.96875 L 4.78125 -2.96875 L 4.78125 -4.53125 Z M 6.703125 -2.96875 L 6.71875 -2.953125 L 6.71875 -2.96875 Z M 6.703125 -2.96875 "/></g></g></g><g fill="#000000" fill-opacity="0.4"><g transform="translate(91.933218, 296.38961)"><g><path d="M 6.875 -5.140625 C 6.875 -4.628906 6.742188 -4.160156 6.484375 -3.734375 C 6.179688 -3.222656 5.742188 -2.863281 5.171875 -2.65625 L 6.859375 0 L 4.75 0 L 3.125 -2.484375 L 2.234375 -2.484375 L 2.234375 0 L 0.359375 0 L 0.359375 -7.796875 L 4.09375 -7.796875 C 4.976562 -7.796875 5.679688 -7.503906 6.203125 -6.921875 C 6.648438 -6.410156 6.875 -5.816406 6.875 -5.140625 Z M 2.234375 -6.125 L 2.234375 -4.15625 L 4.078125 -4.15625 C 4.335938 -4.15625 4.539062 -4.191406 4.6875 -4.265625 C 4.820312 -4.335938 4.914062 -4.40625 4.96875 -4.46875 C 5.050781 -4.570312 5.109375 -4.6875 5.140625 -4.8125 C 5.179688 -4.925781 5.203125 -5.035156 5.203125 -5.140625 C 5.203125 -5.242188 5.179688 -5.351562 5.140625 -5.46875 C 5.097656 -5.59375 5.03125 -5.707031 4.9375 -5.8125 C 4.769531 -6.019531 4.488281 -6.125 4.09375 -6.125 Z M 2.234375 -6.125 "/></g></g></g><g fill="#000000" fill-opacity="0.4"><g transform="translate(102.013236, 296.38961)"><g><path d="M 6.34375 0 L 5.78125 -1.09375 L 2.84375 -1.09375 L 2.28125 0 L 0.125 0 L 4.3125 -7.796875 L 8.515625 0 Z M 5.03125 -2.5625 L 4.3125 -3.921875 L 3.59375 -2.5625 Z M 5.03125 -2.5625 "/></g></g></g><g fill="#000000" fill-opacity="0.4"><g transform="translate(113.485256, 296.38961)"><g><path d="M 5.453125 -7.796875 L 7.328125 -7.796875 L 7.328125 0 L 2.15625 -3.796875 L 2.15625 0 L 0.28125 0 L 0.28125 -7.796875 L 5.453125 -3.8125 Z M 5.453125 -7.796875 "/></g></g></g><g fill="#000000" fill-opacity="0.4"><g transform="translate(123.94927, 296.38961)"><g><path d="M 3.328125 -7.75 C 4.398438 -7.75 5.316406 -7.367188 6.078125 -6.609375 C 6.835938 -5.847656 7.21875 -4.929688 7.21875 -3.859375 C 7.21875 -2.785156 6.835938 -1.863281 6.078125 -1.09375 C 5.316406 -0.332031 4.398438 0.046875 3.328125 0.046875 L 0.359375 0.046875 L 0.359375 -7.75 Z M 4.8125 -2.359375 C 5.21875 -2.765625 5.421875 -3.265625 5.421875 -3.859375 C 5.421875 -4.429688 5.21875 -4.929688 4.8125 -5.359375 C 4.40625 -5.765625 3.90625 -5.96875 3.3125 -5.96875 L 2.234375 -5.96875 L 2.234375 -1.75 L 3.328125 -1.75 C 3.910156 -1.75 4.40625 -1.953125 4.8125 -2.359375 Z M 4.8125 -2.359375 "/></g></g></g><g fill="#000000" fill-opacity="0.4"><g transform="translate(134.37728, 296.38961)"><g><path d="M 4.109375 -7.796875 C 4.992188 -7.796875 5.695312 -7.503906 6.21875 -6.921875 C 6.664062 -6.410156 6.890625 -5.816406 6.890625 -5.140625 C 6.890625 -4.472656 6.679688 -3.890625 6.265625 -3.390625 C 5.742188 -2.785156 5.015625 -2.484375 4.078125 -2.484375 L 2.234375 -2.484375 L 2.234375 0 L 0.359375 0 L 0.359375 -7.796875 Z M 4.984375 -4.46875 C 5.054688 -4.570312 5.113281 -4.6875 5.15625 -4.8125 C 5.1875 -4.925781 5.203125 -5.035156 5.203125 -5.140625 C 5.203125 -5.242188 5.179688 -5.351562 5.140625 -5.46875 C 5.097656 -5.59375 5.035156 -5.707031 4.953125 -5.8125 C 4.773438 -6.019531 4.492188 -6.125 4.109375 -6.125 L 2.234375 -6.125 L 2.234375 -4.15625 L 4.078125 -4.15625 C 4.328125 -4.15625 4.535156 -4.191406 4.703125 -4.265625 C 4.816406 -4.335938 4.910156 -4.40625 4.984375 -4.46875 Z M 4.984375 -4.46875 "/></g></g></g><g fill="#000000" fill-opacity="0.4"><g transform="translate(144.469292, 296.38961)"><g><path d="M 6.34375 0 L 5.78125 -1.09375 L 2.84375 -1.09375 L 2.28125 0 L 0.125 0 L 4.3125 -7.796875 L 8.515625 0 Z M 5.03125 -2.5625 L 4.3125 -3.921875 L 3.59375 -2.5625 Z M 5.03125 -2.5625 "/></g></g></g><g fill="#000000" fill-opacity="0.4"><g transform="translate(155.941312, 296.38961)"><g><path d="M 6.875 -5.140625 C 6.875 -4.628906 6.742188 -4.160156 6.484375 -3.734375 C 6.179688 -3.222656 5.742188 -2.863281 5.171875 -2.65625 L 6.859375 0 L 4.75 0 L 3.125 -2.484375 L 2.234375 -2.484375 L 2.234375 0 L 0.359375 0 L 0.359375 -7.796875 L 4.09375 -7.796875 C 4.976562 -7.796875 5.679688 -7.503906 6.203125 -6.921875 C 6.648438 -6.410156 6.875 -5.816406 6.875 -5.140625 Z M 2.234375 -6.125 L 2.234375 -4.15625 L 4.078125 -4.15625 C 4.335938 -4.15625 4.539062 -4.191406 4.6875 -4.265625 C 4.820312 -4.335938 4.914062 -4.40625 4.96875 -4.46875 C 5.050781 -4.570312 5.109375 -4.6875 5.140625 -4.8125 C 5.179688 -4.925781 5.203125 -5.035156 5.203125 -5.140625 C 5.203125 -5.242188 5.179688 -5.351562 5.140625 -5.46875 C 5.097656 -5.59375 5.03125 -5.707031 4.9375 -5.8125 C 4.769531 -6.019531 4.488281 -6.125 4.09375 -6.125 Z M 2.234375 -6.125 "/></g></g></g><g fill="#000000" fill-opacity="0.4"><g transform="translate(166.02133, 296.38961)"><g><path d="M 2.234375 -3.0625 L 2.234375 -1.6875 L 5.8125 -1.6875 L 5.8125 0 L 0.359375 0 L 0.359375 -7.796875 L 5.8125 -7.796875 L 5.8125 -6.125 L 2.234375 -6.125 L 2.234375 -4.734375 L 5.265625 -4.734375 L 5.265625 -3.0625 Z M 2.234375 -3.0625 "/></g></g></g><g fill="#000000" fill-opacity="0.4"><g transform="translate(175.03334, 296.38961)"><g><path d="M 5.453125 -7.796875 L 7.328125 -7.796875 L 7.328125 0 L 2.15625 -3.796875 L 2.15625 0 L 0.28125 0 L 0.28125 -7.796875 L 5.453125 -3.8125 Z M 5.453125 -7.796875 "/></g></g></g><g fill="#000000" fill-opacity="0.4"><g transform="translate(185.497354, 296.38961)"><g><path d="M 6.28125 -5.921875 L 4.265625 -5.921875 L 4.265625 0 L 2.390625 0 L 2.390625 -5.921875 L 0.359375 -5.921875 L 0.359375 -7.796875 L 6.28125 -7.796875 Z M 6.28125 -5.921875 "/></g></g></g><g fill="#000000" fill-opacity="0.4"><g transform="translate(194.881371, 296.38961)"><g><path d="M 0.1875 -7.796875 L 2.046875 -7.796875 L 2.046875 0 L 0.1875 0 Z M 0.1875 -7.796875 "/></g></g></g><g fill="#000000" fill-opacity="0.4"><g transform="translate(199.957375, 296.38961)"><g><path d="M 5.453125 -7.796875 L 7.328125 -7.796875 L 7.328125 0 L 2.15625 -3.796875 L 2.15625 0 L 0.28125 0 L 0.28125 -7.796875 L 5.453125 -3.8125 Z M 5.453125 -7.796875 "/></g></g></g><g fill="#000000" fill-opacity="0.4"><g transform="translate(210.421394, 296.38961)"><g><path d="M 8.28125 -4.53125 L 8.28125 0 L 6.71875 0 L 6.71875 -0.625 C 6.019531 -0.125 5.238281 0.125 4.375 0.125 C 3.269531 0.125 2.320312 -0.269531 1.53125 -1.0625 C 0.75 -1.84375 0.359375 -2.789062 0.359375 -3.90625 C 0.359375 -5.007812 0.75 -5.957031 1.53125 -6.75 C 2.320312 -7.53125 3.269531 -7.921875 4.375 -7.921875 C 5.375 -7.921875 6.25 -7.597656 7 -6.953125 L 5.796875 -5.765625 C 5.367188 -6.078125 4.894531 -6.234375 4.375 -6.234375 C 3.71875 -6.234375 3.171875 -6.007812 2.734375 -5.5625 C 2.273438 -5.09375 2.046875 -4.539062 2.046875 -3.90625 C 2.046875 -3.257812 2.273438 -2.707031 2.734375 -2.25 C 3.191406 -1.789062 3.738281 -1.5625 4.375 -1.5625 C 5.007812 -1.5625 5.5625 -1.789062 6.03125 -2.25 C 6.050781 -2.257812 6.066406 -2.273438 6.078125 -2.296875 L 6.140625 -2.359375 C 6.203125 -2.421875 6.253906 -2.476562 6.296875 -2.53125 C 6.429688 -2.695312 6.523438 -2.84375 6.578125 -2.96875 L 4.78125 -2.96875 L 4.78125 -4.53125 Z M 6.703125 -2.96875 L 6.71875 -2.953125 L 6.71875 -2.96875 Z M 6.703125 -2.96875 "/></g></g></g><g fill="#000000" fill-opacity="0.4"><g transform="translate(221.905402, 296.38961)"><g/></g></g><g fill="#000000" fill-opacity="0.4"><g transform="translate(227.869398, 296.38961)"><g><path d="M 6.96875 -0.984375 C 6.207031 -0.347656 5.34375 -0.03125 4.375 -0.03125 C 3.269531 -0.03125 2.320312 -0.425781 1.53125 -1.21875 C 0.75 -2 0.359375 -2.941406 0.359375 -4.046875 C 0.359375 -5.160156 0.75 -6.109375 1.53125 -6.890625 C 2.320312 -7.671875 3.269531 -8.0625 4.375 -8.0625 C 5.351562 -8.0625 6.21875 -7.742188 6.96875 -7.109375 L 5.765625 -5.921875 C 5.359375 -6.234375 4.894531 -6.390625 4.375 -6.390625 C 3.726562 -6.390625 3.175781 -6.160156 2.71875 -5.703125 C 2.269531 -5.242188 2.046875 -4.691406 2.046875 -4.046875 C 2.046875 -3.398438 2.269531 -2.851562 2.71875 -2.40625 C 3.175781 -1.945312 3.726562 -1.71875 4.375 -1.71875 C 4.894531 -1.71875 5.359375 -1.875 5.765625 -2.1875 Z M 6.96875 -0.984375 "/></g></g></g><g fill="#000000" fill-opacity="0.4"><g transform="translate(238.405424, 296.38961)"><g><path d="M 4.578125 -7.796875 L 6.453125 -7.796875 L 6.453125 0 L 4.578125 0 L 4.578125 -3.0625 L 2.234375 -3.0625 L 2.234375 0 L 0.359375 0 L 0.359375 -7.796875 L 2.234375 -7.796875 L 2.234375 -4.734375 L 4.578125 -4.734375 Z M 4.578125 -7.796875 "/></g></g></g><g fill="#000000" fill-opacity="0.4"><g transform="translate(248.065427, 296.38961)"><g><path d="M 6.34375 0 L 5.78125 -1.09375 L 2.84375 -1.09375 L 2.28125 0 L 0.125 0 L 4.3125 -7.796875 L 8.515625 0 Z M 5.03125 -2.5625 L 4.3125 -3.921875 L 3.59375 -2.5625 Z M 5.03125 -2.5625 "/></g></g></g><g fill="#000000" fill-opacity="0.4"><g transform="translate(259.537441, 296.38961)"><g><path d="M 5.453125 -7.796875 L 7.328125 -7.796875 L 7.328125 0 L 2.15625 -3.796875 L 2.15625 0 L 0.28125 0 L 0.28125 -7.796875 L 5.453125 -3.8125 Z M 5.453125 -7.796875 "/></g></g></g><g fill="#000000" fill-opacity="0.4"><g transform="translate(270.00146, 296.38961)"><g><path d="M 5.453125 -7.796875 L 7.328125 -7.796875 L 7.328125 0 L 2.15625 -3.796875 L 2.15625 0 L 0.28125 0 L 0.28125 -7.796875 L 5.453125 -3.8125 Z M 5.453125 -7.796875 "/></g></g></g><g fill="#000000" fill-opacity="0.4"><g transform="translate(280.465479, 296.38961)"><g><path d="M 2.234375 -3.0625 L 2.234375 -1.6875 L 5.8125 -1.6875 L 5.8125 0 L 0.359375 0 L 0.359375 -7.796875 L 5.8125 -7.796875 L 5.8125 -6.125 L 2.234375 -6.125 L 2.234375 -4.734375 L 5.265625 -4.734375 L 5.265625 -3.0625 Z M 2.234375 -3.0625 "/></g></g></g><g fill="#000000" fill-opacity="0.4"><g transform="translate(289.477495, 296.38961)"><g><path d="M 2.234375 -1.6875 L 5.984375 -1.6875 L 5.984375 0 L 0.359375 0 L 0.359375 -7.796875 L 2.234375 -7.796875 Z M 2.234375 -1.6875 "/></g></g></g><g fill="#000000" fill-opacity="1"><g transform="translate(79.918871, 295.859277)"><g><path d="M 8.28125 -4.53125 L 8.28125 0 L 6.71875 0 L 6.71875 -0.625 C 6.019531 -0.125 5.238281 0.125 4.375 0.125 C 3.269531 0.125 2.320312 -0.269531 1.53125 -1.0625 C 0.75 -1.84375 0.359375 -2.789062 0.359375 -3.90625 C 0.359375 -5.007812 0.75 -5.957031 1.53125 -6.75 C 2.320312 -7.53125 3.269531 -7.921875 4.375 -7.921875 C 5.375 -7.921875 6.25 -7.597656 7 -6.953125 L 5.796875 -5.765625 C 5.367188 -6.078125 4.894531 -6.234375 4.375 -6.234375 C 3.71875 -6.234375 3.171875 -6.007812 2.734375 -5.5625 C 2.273438 -5.09375 2.046875 -4.539062 2.046875 -3.90625 C 2.046875 -3.257812 2.273438 -2.707031 2.734375 -2.25 C 3.191406 -1.789062 3.738281 -1.5625 4.375 -1.5625 C 5.007812 -1.5625 5.5625 -1.789062 6.03125 -2.25 C 6.050781 -2.257812 6.066406 -2.273438 6.078125 -2.296875 L 6.140625 -2.359375 C 6.203125 -2.421875 6.253906 -2.476562 6.296875 -2.53125 C 6.429688 -2.695312 6.523438 -2.84375 6.578125 -2.96875 L 4.78125 -2.96875 L 4.78125 -4.53125 Z M 6.703125 -2.96875 L 6.71875 -2.953125 L 6.71875 -2.96875 Z M 6.703125 -2.96875 "/></g></g></g><g fill="#000000" fill-opacity="1"><g transform="translate(91.402885, 295.859277)"><g><path d="M 6.875 -5.140625 C 6.875 -4.628906 6.742188 -4.160156 6.484375 -3.734375 C 6.179688 -3.222656 5.742188 -2.863281 5.171875 -2.65625 L 6.859375 0 L 4.75 0 L 3.125 -2.484375 L 2.234375 -2.484375 L 2.234375 0 L 0.359375 0 L 0.359375 -7.796875 L 4.09375 -7.796875 C 4.976562 -7.796875 5.679688 -7.503906 6.203125 -6.921875 C 6.648438 -6.410156 6.875 -5.816406 6.875 -5.140625 Z M 2.234375 -6.125 L 2.234375 -4.15625 L 4.078125 -4.15625 C 4.335938 -4.15625 4.539062 -4.191406 4.6875 -4.265625 C 4.820312 -4.335938 4.914062 -4.40625 4.96875 -4.46875 C 5.050781 -4.570312 5.109375 -4.6875 5.140625 -4.8125 C 5.179688 -4.925781 5.203125 -5.035156 5.203125 -5.140625 C 5.203125 -5.242188 5.179688 -5.351562 5.140625 -5.46875 C 5.097656 -5.59375 5.03125 -5.707031 4.9375 -5.8125 C 4.769531 -6.019531 4.488281 -6.125 4.09375 -6.125 Z M 2.234375 -6.125 "/></g></g></g><g fill="#000000" fill-opacity="1"><g transform="translate(101.482903, 295.859277)"><g><path d="M 6.34375 0 L 5.78125 -1.09375 L 2.84375 -1.09375 L 2.28125 0 L 0.125 0 L 4.3125 -7.796875 L 8.515625 0 Z M 5.03125 -2.5625 L 4.3125 -3.921875 L 3.59375 -2.5625 Z M 5.03125 -2.5625 "/></g></g></g><g fill="#000000" fill-opacity="1"><g transform="translate(112.954924, 295.859277)"><g><path d="M 5.453125 -7.796875 L 7.328125 -7.796875 L 7.328125 0 L 2.15625 -3.796875 L 2.15625 0 L 0.28125 0 L 0.28125 -7.796875 L 5.453125 -3.8125 Z M 5.453125 -7.796875 "/></g></g></g><g fill="#000000" fill-opacity="1"><g transform="translate(123.418937, 295.859277)"><g><path d="M 3.328125 -7.75 C 4.398438 -7.75 5.316406 -7.367188 6.078125 -6.609375 C 6.835938 -5.847656 7.21875 -4.929688 7.21875 -3.859375 C 7.21875 -2.785156 6.835938 -1.863281 6.078125 -1.09375 C 5.316406 -0.332031 4.398438 0.046875 3.328125 0.046875 L 0.359375 0.046875 L 0.359375 -7.75 Z M 4.8125 -2.359375 C 5.21875 -2.765625 5.421875 -3.265625 5.421875 -3.859375 C 5.421875 -4.429688 5.21875 -4.929688 4.8125 -5.359375 C 4.40625 -5.765625 3.90625 -5.96875 3.3125 -5.96875 L 2.234375 -5.96875 L 2.234375 -1.75 L 3.328125 -1.75 C 3.910156 -1.75 4.40625 -1.953125 4.8125 -2.359375 Z M 4.8125 -2.359375 "/></g></g></g><g fill="#000000" fill-opacity="1"><g transform="translate(133.846947, 295.859277)"><g><path d="M 4.109375 -7.796875 C 4.992188 -7.796875 5.695312 -7.503906 6.21875 -6.921875 C 6.664062 -6.410156 6.890625 -5.816406 6.890625 -5.140625 C 6.890625 -4.472656 6.679688 -3.890625 6.265625 -3.390625 C 5.742188 -2.785156 5.015625 -2.484375 4.078125 -2.484375 L 2.234375 -2.484375 L 2.234375 0 L 0.359375 0 L 0.359375 -7.796875 Z M 4.984375 -4.46875 C 5.054688 -4.570312 5.113281 -4.6875 5.15625 -4.8125 C 5.1875 -4.925781 5.203125 -5.035156 5.203125 -5.140625 C 5.203125 -5.242188 5.179688 -5.351562 5.140625 -5.46875 C 5.097656 -5.59375 5.035156 -5.707031 4.953125 -5.8125 C 4.773438 -6.019531 4.492188 -6.125 4.109375 -6.125 L 2.234375 -6.125 L 2.234375 -4.15625 L 4.078125 -4.15625 C 4.328125 -4.15625 4.535156 -4.191406 4.703125 -4.265625 C 4.816406 -4.335938 4.910156 -4.40625 4.984375 -4.46875 Z M 4.984375 -4.46875 "/></g></g></g><g fill="#000000" fill-opacity="1"><g transform="translate(143.938959, 295.859277)"><g><path d="M 6.34375 0 L 5.78125 -1.09375 L 2.84375 -1.09375 L 2.28125 0 L 0.125 0 L 4.3125 -7.796875 L 8.515625 0 Z M 5.03125 -2.5625 L 4.3125 -3.921875 L 3.59375 -2.5625 Z M 5.03125 -2.5625 "/></g></g></g><g fill="#000000" fill-opacity="1"><g transform="translate(155.410979, 295.859277)"><g><path d="M 6.875 -5.140625 C 6.875 -4.628906 6.742188 -4.160156 6.484375 -3.734375 C 6.179688 -3.222656 5.742188 -2.863281 5.171875 -2.65625 L 6.859375 0 L 4.75 0 L 3.125 -2.484375 L 2.234375 -2.484375 L 2.234375 0 L 0.359375 0 L 0.359375 -7.796875 L 4.09375 -7.796875 C 4.976562 -7.796875 5.679688 -7.503906 6.203125 -6.921875 C 6.648438 -6.410156 6.875 -5.816406 6.875 -5.140625 Z M 2.234375 -6.125 L 2.234375 -4.15625 L 4.078125 -4.15625 C 4.335938 -4.15625 4.539062 -4.191406 4.6875 -4.265625 C 4.820312 -4.335938 4.914062 -4.40625 4.96875 -4.46875 C 5.050781 -4.570312 5.109375 -4.6875 5.140625 -4.8125 C 5.179688 -4.925781 5.203125 -5.035156 5.203125 -5.140625 C 5.203125 -5.242188 5.179688 -5.351562 5.140625 -5.46875 C 5.097656 -5.59375 5.03125 -5.707031 4.9375 -5.8125 C 4.769531 -6.019531 4.488281 -6.125 4.09375 -6.125 Z M 2.234375 -6.125 "/></g></g></g><g fill="#000000" fill-opacity="1"><g transform="translate(165.490998, 295.859277)"><g><path d="M 2.234375 -3.0625 L 2.234375 -1.6875 L 5.8125 -1.6875 L 5.8125 0 L 0.359375 0 L 0.359375 -7.796875 L 5.8125 -7.796875 L 5.8125 -6.125 L 2.234375 -6.125 L 2.234375 -4.734375 L 5.265625 -4.734375 L 5.265625 -3.0625 Z M 2.234375 -3.0625 "/></g></g></g><g fill="#000000" fill-opacity="1"><g transform="translate(174.503008, 295.859277)"><g><path d="M 5.453125 -7.796875 L 7.328125 -7.796875 L 7.328125 0 L 2.15625 -3.796875 L 2.15625 0 L 0.28125 0 L 0.28125 -7.796875 L 5.453125 -3.8125 Z M 5.453125 -7.796875 "/></g></g></g><g fill="#000000" fill-opacity="1"><g transform="translate(184.967021, 295.859277)"><g><path d="M 6.28125 -5.921875 L 4.265625 -5.921875 L 4.265625 0 L 2.390625 0 L 2.390625 -5.921875 L 0.359375 -5.921875 L 0.359375 -7.796875 L 6.28125 -7.796875 Z M 6.28125 -5.921875 "/></g></g></g><g fill="#000000" fill-opacity="1"><g transform="translate(194.351038, 295.859277)"><g><path d="M 0.1875 -7.796875 L 2.046875 -7.796875 L 2.046875 0 L 0.1875 0 Z M 0.1875 -7.796875 "/></g></g></g><g fill="#000000" fill-opacity="1"><g transform="translate(199.427042, 295.859277)"><g><path d="M 5.453125 -7.796875 L 7.328125 -7.796875 L 7.328125 0 L 2.15625 -3.796875 L 2.15625 0 L 0.28125 0 L 0.28125 -7.796875 L 5.453125 -3.8125 Z M 5.453125 -7.796875 "/></g></g></g><g fill="#000000" fill-opacity="1"><g transform="translate(209.891061, 295.859277)"><g><path d="M 8.28125 -4.53125 L 8.28125 0 L 6.71875 0 L 6.71875 -0.625 C 6.019531 -0.125 5.238281 0.125 4.375 0.125 C 3.269531 0.125 2.320312 -0.269531 1.53125 -1.0625 C 0.75 -1.84375 0.359375 -2.789062 0.359375 -3.90625 C 0.359375 -5.007812 0.75 -5.957031 1.53125 -6.75 C 2.320312 -7.53125 3.269531 -7.921875 4.375 -7.921875 C 5.375 -7.921875 6.25 -7.597656 7 -6.953125 L 5.796875 -5.765625 C 5.367188 -6.078125 4.894531 -6.234375 4.375 -6.234375 C 3.71875 -6.234375 3.171875 -6.007812 2.734375 -5.5625 C 2.273438 -5.09375 2.046875 -4.539062 2.046875 -3.90625 C 2.046875 -3.257812 2.273438 -2.707031 2.734375 -2.25 C 3.191406 -1.789062 3.738281 -1.5625 4.375 -1.5625 C 5.007812 -1.5625 5.5625 -1.789062 6.03125 -2.25 C 6.050781 -2.257812 6.066406 -2.273438 6.078125 -2.296875 L 6.140625 -2.359375 C 6.203125 -2.421875 6.253906 -2.476562 6.296875 -2.53125 C 6.429688 -2.695312 6.523438 -2.84375 6.578125 -2.96875 L 4.78125 -2.96875 L 4.78125 -4.53125 Z M 6.703125 -2.96875 L 6.71875 -2.953125 L 6.71875 -2.96875 Z M 6.703125 -2.96875 "/></g></g></g><g fill="#000000" fill-opacity="1"><g transform="translate(221.375069, 295.859277)"><g/></g></g><g fill="#000000" fill-opacity="1"><g transform="translate(227.339065, 295.859277)"><g><path d="M 6.96875 -0.984375 C 6.207031 -0.347656 5.34375 -0.03125 4.375 -0.03125 C 3.269531 -0.03125 2.320312 -0.425781 1.53125 -1.21875 C 0.75 -2 0.359375 -2.941406 0.359375 -4.046875 C 0.359375 -5.160156 0.75 -6.109375 1.53125 -6.890625 C 2.320312 -7.671875 3.269531 -8.0625 4.375 -8.0625 C 5.351562 -8.0625 6.21875 -7.742188 6.96875 -7.109375 L 5.765625 -5.921875 C 5.359375 -6.234375 4.894531 -6.390625 4.375 -6.390625 C 3.726562 -6.390625 3.175781 -6.160156 2.71875 -5.703125 C 2.269531 -5.242188 2.046875 -4.691406 2.046875 -4.046875 C 2.046875 -3.398438 2.269531 -2.851562 2.71875 -2.40625 C 3.175781 -1.945312 3.726562 -1.71875 4.375 -1.71875 C 4.894531 -1.71875 5.359375 -1.875 5.765625 -2.1875 Z M 6.96875 -0.984375 "/></g></g></g><g fill="#000000" fill-opacity="1"><g transform="translate(237.875091, 295.859277)"><g><path d="M 4.578125 -7.796875 L 6.453125 -7.796875 L 6.453125 0 L 4.578125 0 L 4.578125 -3.0625 L 2.234375 -3.0625 L 2.234375 0 L 0.359375 0 L 0.359375 -7.796875 L 2.234375 -7.796875 L 2.234375 -4.734375 L 4.578125 -4.734375 Z M 4.578125 -7.796875 "/></g></g></g><g fill="#000000" fill-opacity="1"><g transform="translate(247.535094, 295.859277)"><g><path d="M 6.34375 0 L 5.78125 -1.09375 L 2.84375 -1.09375 L 2.28125 0 L 0.125 0 L 4.3125 -7.796875 L 8.515625 0 Z M 5.03125 -2.5625 L 4.3125 -3.921875 L 3.59375 -2.5625 Z M 5.03125 -2.5625 "/></g></g></g><g fill="#000000" fill-opacity="1"><g transform="translate(259.007108, 295.859277)"><g><path d="M 5.453125 -7.796875 L 7.328125 -7.796875 L 7.328125 0 L 2.15625 -3.796875 L 2.15625 0 L 0.28125 0 L 0.28125 -7.796875 L 5.453125 -3.8125 Z M 5.453125 -7.796875 "/></g></g></g><g fill="#000000" fill-opacity="1"><g transform="translate(269.471128, 295.859277)"><g><path d="M 5.453125 -7.796875 L 7.328125 -7.796875 L 7.328125 0 L 2.15625 -3.796875 L 2.15625 0 L 0.28125 0 L 0.28125 -7.796875 L 5.453125 -3.8125 Z M 5.453125 -7.796875 "/></g></g></g><g fill="#000000" fill-opacity="1"><g transform="translate(279.935147, 295.859277)"><g><path d="M 2.234375 -3.0625 L 2.234375 -1.6875 L 5.8125 -1.6875 L 5.8125 0 L 0.359375 0 L 0.359375 -7.796875 L 5.8125 -7.796875 L 5.8125 -6.125 L 2.234375 -6.125 L 2.234375 -4.734375 L 5.265625 -4.734375 L 5.265625 -3.0625 Z M 2.234375 -3.0625 "/></g></g></g><g fill="#000000" fill-opacity="1"><g transform="translate(288.947162, 295.859277)"><g><path d="M 2.234375 -1.6875 L 5.984375 -1.6875 L 5.984375 0 L 0.359375 0 L 0.359375 -7.796875 L 2.234375 -7.796875 Z M 2.234375 -1.6875 "/></g></g></g></svg>